Kufam-Regular.ufo
<glyph name="quotedbl" format="2">
  <advance width="336"/>
  <unicode hex="0022"/>
  <note>
quotedbl
</note>
  <outline>
    <contour>
      <point x="204" y="720" type="line"/>
      <point x="208" y="484" type="line"/>
      <point x="284" y="484" type="line"/>
      <point x="288" y="720" type="line"/>
    </contour>
    <contour>
      <point x="48" y="720" type="line"/>
      <point x="52" y="484" type="line"/>
      <point x="128" y="484" type="line"/>
      <point x="132" y="720" type="line"/>
    </contour>
  </outline>
</glyph>
<glyph name="ampersand" format="2">
  <advance width="644"/>
  <unicode hex="0026"/>
  <note>
ampersand
</note>
  <outline>
    <contour>
      <point x="326" y="-12" type="curve" smooth="yes"/>
      <point x="396" y="-12"/>
      <point x="468" y="4"/>
      <point x="522" y="28" type="curve"/>
      <point x="524" y="36" type="line"/>
      <point x="516" y="72"/>
      <point x="516" y="160"/>
      <point x="516" y="200" type="curve" smooth="yes"/>
      <point x="516" y="300" type="line"/>
      <point x="596" y="300" type="line"/>
      <point x="596" y="384" type="line"/>
      <point x="292" y="384" type="line" smooth="yes"/>
      <point x="208" y="384"/>
      <point x="148" y="420"/>
      <point x="148" y="504" type="curve" smooth="yes"/>
      <point x="148" y="604"/>
      <point x="236" y="644"/>
      <point x="348" y="644" type="curve" smooth="yes"/>
      <point x="416" y="644"/>
      <point x="468" y="628"/>
      <point x="500" y="612" type="curve"/>
      <point x="508" y="612" type="line"/>
      <point x="508" y="704" type="line"/>
      <point x="472" y="720"/>
      <point x="408" y="732"/>
      <point x="352" y="732" type="curve" smooth="yes"/>
      <point x="172" y="732"/>
      <point x="52" y="660"/>
      <point x="52" y="500" type="curve" smooth="yes"/>
      <point x="52" y="413"/>
      <point x="101" y="352"/>
      <point x="171" y="322" type="curve"/>
      <point x="172" y="346" type="line"/>
      <point x="107" y="314"/>
      <point x="68" y="257"/>
      <point x="68" y="180" type="curve" smooth="yes"/>
      <point x="68" y="32"/>
      <point x="188" y="-12"/>
    </contour>
    <contour>
      <point x="430" y="59" type="curve"/>
      <point x="451" y="89" type="line"/>
      <point x="413" y="73"/>
      <point x="379" y="68"/>
      <point x="337" y="68" type="curve" smooth="yes"/>
      <point x="230" y="68"/>
      <point x="160" y="92"/>
      <point x="160" y="184" type="curve" smooth="yes"/>
      <point x="160" y="260"/>
      <point x="218" y="300"/>
      <point x="312" y="300" type="curve" smooth="yes"/>
      <point x="424" y="300" type="line"/>
      <point x="424" y="144" type="line" smooth="yes"/>
      <point x="424" y="112"/>
      <point x="426" y="82"/>
    </contour>
  </outline>
</glyph>
<glyph name="quotesingle" format="2">
  <advance width="180"/>
  <unicode hex="0027"/>
  <note>
quotesingle
</note>
  <outline>
    <contour>
      <point x="48" y="720" type="line"/>
      <point x="52" y="484" type="line"/>
      <point x="128" y="484" type="line"/>
      <point x="132" y="720" type="line"/>
    </contour>
  </outline>
</glyph>
<glyph name="parenright" format="2">
  <advance width="356"/>
  <unicode hex="0029"/>
  <note>
parenright
</note>
  <outline>
    <contour>
      <point x="40" y="-84" type="curve"/>
      <point x="40" y="-88" type="line"/>
      <point x="136" y="-88" type="line"/>
      <point x="216" y="-4"/>
      <point x="280" y="156"/>
      <point x="280" y="336" type="curve" smooth="yes"/>
      <point x="280" y="516"/>
      <point x="216" y="676"/>
      <point x="136" y="760" type="curve"/>
      <point x="40" y="760" type="line"/>
      <point x="40" y="756" type="line"/>
      <point x="136" y="652"/>
      <point x="196" y="512"/>
      <point x="196" y="336" type="curve" smooth="yes"/>
      <point x="196" y="160"/>
      <point x="136" y="20"/>
    </contour>
  </outline>
</glyph>
<glyph name="asterisk" format="2">
  <advance width="544"/>
  <unicode hex="002A"/>
  <note>
asterisk
</note>
  <outline>
    <contour>
      <point x="242" y="500" type="line"/>
      <point x="230" y="280" type="line"/>
      <point x="314" y="280" type="line"/>
      <point x="302" y="500" type="line"/>
      <point x="314" y="720" type="line"/>
      <point x="230" y="720" type="line"/>
    </contour>
    <contour>
      <point x="257" y="474" type="line"/>
      <point x="442" y="354" type="line"/>
      <point x="484" y="426" type="line"/>
      <point x="287" y="526" type="line"/>
      <point x="102" y="646" type="line"/>
      <point x="60" y="574" type="line"/>
    </contour>
    <contour>
      <point x="287" y="474" type="line"/>
      <point x="483" y="574" type="line"/>
      <point x="442" y="647" type="line"/>
      <point x="257" y="526" type="line"/>
      <point x="61" y="426" type="line"/>
      <point x="102" y="353" type="line"/>
    </contour>
  </outline>
</glyph>
<glyph name="period" format="2">
  <advance width="280"/>
  <unicode hex="002E"/>
  <note>
period
</note>
  <outline>
    <contour>
      <point x="140" y="-8" type="curve" smooth="yes"/>
      <point x="176" y="-8"/>
      <point x="204" y="16"/>
      <point x="204" y="56" type="curve" smooth="yes"/>
      <point x="204" y="96"/>
      <point x="176" y="120"/>
      <point x="140" y="120" type="curve" smooth="yes"/>
      <point x="104" y="120"/>
      <point x="76" y="96"/>
      <point x="76" y="56" type="curve" smooth="yes"/>
      <point x="76" y="16"/>
      <point x="104" y="-8"/>
    </contour>
  </outline>
</glyph>
<glyph name="slash" format="2">
  <advance width="516"/>
  <unicode hex="002F"/>
  <note>
slash
</note>
  <outline>
    <contour>
      <point x="412" y="720" type="line"/>
      <point x="20" y="0" type="line"/>
      <point x="104" y="0" type="line"/>
      <point x="496" y="720" type="line"/>
    </contour>
  </outline>
</glyph>
<glyph name="one" format="2">
  <advance width="616"/>
  <unicode hex="0031"/>
  <note>
one
</note>
  <outline>
    <contour>
      <point x="276" y="12" type="line"/>
      <point x="372" y="12" type="line"/>
      <point x="372" y="544" type="line" smooth="yes"/>
      <point x="372" y="584"/>
      <point x="372" y="668"/>
      <point x="380" y="704" type="curve"/>
      <point x="378" y="716" type="line"/>
      <point x="356" y="722"/>
      <point x="320" y="728"/>
      <point x="272" y="728" type="curve" smooth="yes"/>
      <point x="204" y="728"/>
      <point x="116" y="718"/>
      <point x="88" y="708" type="curve"/>
      <point x="88" y="640" type="line"/>
      <point x="318" y="640" type="line"/>
      <point x="282" y="646" type="line"/>
      <point x="279" y="652"/>
      <point x="276" y="587"/>
      <point x="276" y="556" type="curve" smooth="yes"/>
    </contour>
    <contour>
      <point x="72" y="0" type="line"/>
      <point x="552" y="0" type="line"/>
      <point x="552" y="84" type="line"/>
      <point x="72" y="84" type="line"/>
    </contour>
  </outline>
</glyph>
<glyph name="four" format="2">
  <advance width="616"/>
  <unicode hex="0034"/>
  <note>
four
</note>
  <outline>
    <contour>
      <point x="400" y="0" type="line"/>
      <point x="496" y="0" type="line"/>
      <point x="496" y="540" type="line" smooth="yes"/>
      <point x="496" y="580"/>
      <point x="496" y="660"/>
      <point x="502" y="700" type="curve"/>
      <point x="500" y="712" type="line"/>
      <point x="470" y="722"/>
      <point x="426" y="728"/>
      <point x="376" y="728" type="curve" smooth="yes"/>
      <point x="220" y="728"/>
      <point x="158" y="634"/>
      <point x="106" y="480" type="curve" smooth="yes"/>
      <point x="36" y="272" type="line"/>
      <point x="36" y="196" type="line"/>
      <point x="604" y="196" type="line"/>
      <point x="604" y="280" type="line"/>
      <point x="96" y="280" type="line"/>
      <point x="122" y="244" type="line"/>
      <point x="196" y="468" type="line" smooth="yes"/>
      <point x="237" y="592"/>
      <point x="284" y="644"/>
      <point x="376" y="644" type="curve" smooth="yes"/>
      <point x="394" y="644"/>
      <point x="411" y="640"/>
      <point x="422" y="636" type="curve"/>
      <point x="407" y="666" type="line"/>
      <point x="400" y="644"/>
      <point x="400" y="619"/>
      <point x="400" y="592" type="curve" smooth="yes"/>
    </contour>
  </outline>
</glyph>
<glyph name="five" format="2">
  <advance width="616"/>
  <unicode hex="0035"/>
  <note>
five
</note>
  <outline>
    <contour>
      <point x="64" y="122" type="line"/>
      <point x="64" y="28" type="line"/>
      <point x="108" y="4"/>
      <point x="180" y="-12"/>
      <point x="260" y="-12" type="curve" smooth="yes"/>
      <point x="436" y="-12"/>
      <point x="544" y="80"/>
      <point x="544" y="220" type="curve" smooth="yes"/>
      <point x="544" y="356"/>
      <point x="460" y="436"/>
      <point x="284" y="436" type="curve" smooth="yes"/>
      <point x="244" y="436"/>
      <point x="200" y="430"/>
      <point x="165" y="423" type="curve"/>
      <point x="188" y="389" type="line"/>
      <point x="188" y="588" type="line" smooth="yes"/>
      <point x="188" y="612"/>
      <point x="186" y="639"/>
      <point x="185" y="658" type="curve"/>
      <point x="148" y="636" type="line"/>
      <point x="512" y="636" type="line"/>
      <point x="512" y="720" type="line"/>
      <point x="232" y="720" type="line" smooth="yes"/>
      <point x="164" y="720"/>
      <point x="120" y="716"/>
      <point x="90" y="708" type="curve"/>
      <point x="88" y="700" type="line"/>
      <point x="96" y="664"/>
      <point x="96" y="572"/>
      <point x="96" y="532" type="curve" smooth="yes"/>
      <point x="96" y="332" type="line"/>
      <point x="104" y="328" type="line"/>
      <point x="140" y="336"/>
      <point x="194" y="356"/>
      <point x="280" y="356" type="curve" smooth="yes"/>
      <point x="392" y="356"/>
      <point x="448" y="308"/>
      <point x="448" y="220" type="curve" smooth="yes"/>
      <point x="448" y="148"/>
      <point x="408" y="72"/>
      <point x="260" y="72" type="curve" smooth="yes"/>
      <point x="176" y="72"/>
      <point x="108" y="100"/>
      <point x="72" y="122" type="curve"/>
    </contour>
  </outline>
</glyph>
<glyph name="six" format="2">
  <advance width="616"/>
  <unicode hex="0036"/>
  <note>
six
</note>
  <outline>
    <contour>
      <point x="316" y="-12" type="curve" smooth="yes"/>
      <point x="476" y="-12"/>
      <point x="564" y="96"/>
      <point x="564" y="232" type="curve" smooth="yes"/>
      <point x="564" y="388"/>
      <point x="468" y="468"/>
      <point x="336" y="468" type="curve" smooth="yes"/>
      <point x="232" y="468"/>
      <point x="176" y="428"/>
      <point x="144" y="390" type="curve"/>
      <point x="104" y="390" type="line"/>
      <point x="104" y="296" type="line"/>
      <point x="140" y="296" type="line"/>
      <point x="178" y="348"/>
      <point x="232" y="388"/>
      <point x="320" y="388" type="curve" smooth="yes"/>
      <point x="420" y="388"/>
      <point x="472" y="328"/>
      <point x="472" y="232" type="curve" smooth="yes"/>
      <point x="472" y="144"/>
      <point x="428" y="68"/>
      <point x="320" y="68" type="curve" smooth="yes"/>
      <point x="192" y="68"/>
      <point x="152" y="164"/>
      <point x="152" y="352" type="curve" smooth="yes"/>
      <point x="152" y="540"/>
      <point x="224" y="648"/>
      <point x="384" y="648" type="curve" smooth="yes"/>
      <point x="444" y="648"/>
      <point x="476" y="636"/>
      <point x="504" y="624" type="curve"/>
      <point x="512" y="624" type="line"/>
      <point x="512" y="712" type="line"/>
      <point x="480" y="724"/>
      <point x="444" y="732"/>
      <point x="388" y="732" type="curve" smooth="yes"/>
      <point x="168" y="732"/>
      <point x="56" y="584"/>
      <point x="56" y="348" type="curve" smooth="yes"/>
      <point x="56" y="132"/>
      <point x="128" y="-12"/>
    </contour>
  </outline>
</glyph>
<glyph name="B" format="2">
  <advance width="640"/>
  <unicode hex="0042"/>
  <note>
B
</note>
  <anchor x="320" y="0" name="bottom"/>
  <anchor x="320" y="720" name="top"/>
  <outline>
    <contour>
      <point x="152" y="0" type="line"/>
      <point x="380" y="0" type="line" smooth="yes"/>
      <point x="528" y="0"/>
      <point x="584" y="92"/>
      <point x="584" y="184" type="curve" smooth="yes"/>
      <point x="584" y="266"/>
      <point x="536" y="324"/>
      <point x="449" y="340" type="curve"/>
      <point x="454" y="320" type="line"/>
      <point x="532" y="359"/>
      <point x="572" y="443"/>
      <point x="572" y="524" type="curve" smooth="yes"/>
      <point x="572" y="656"/>
      <point x="496" y="720"/>
      <point x="348" y="720" type="curve" smooth="yes"/>
      <point x="152" y="720" type="line"/>
      <point x="152" y="636" type="line"/>
      <point x="348" y="636" type="line" smooth="yes"/>
      <point x="428" y="636"/>
      <point x="476" y="608"/>
      <point x="476" y="524" type="curve" smooth="yes"/>
      <point x="476" y="440"/>
      <point x="432" y="364"/>
      <point x="340" y="364" type="curve" smooth="yes"/>
      <point x="152" y="364" type="line"/>
      <point x="152" y="280" type="line"/>
      <point x="376" y="280" type="line" smooth="yes"/>
      <point x="440" y="280"/>
      <point x="488" y="256"/>
      <point x="488" y="184" type="curve" smooth="yes"/>
      <point x="488" y="108"/>
      <point x="436" y="84"/>
      <point x="376" y="84" type="curve" smooth="yes"/>
      <point x="152" y="84" type="line"/>
    </contour>
    <contour>
      <point x="96" y="0" type="line"/>
      <point x="192" y="0" type="line"/>
      <point x="192" y="720" type="line"/>
      <point x="96" y="720" type="line"/>
    </contour>
  </outline>
</glyph>
<glyph name="C" format="2">
  <advance width="648"/>
  <unicode hex="0043"/>
  <note>
C
</note>
  <anchor x="384" y="0" name="bottom"/>
  <anchor x="384" y="720" name="top"/>
  <outline>
    <contour>
      <point x="56" y="360" type="curve" smooth="yes"/>
      <point x="56" y="128"/>
      <point x="188" y="-12"/>
      <point x="420" y="-12" type="curve" smooth="yes"/>
      <point x="488" y="-12"/>
      <point x="540" y="0"/>
      <point x="580" y="20" type="curve"/>
      <point x="580" y="112" type="line"/>
      <point x="572" y="112" type="line"/>
      <point x="532" y="88"/>
      <point x="480" y="76"/>
      <point x="420" y="76" type="curve" smooth="yes"/>
      <point x="260" y="76"/>
      <point x="156" y="168"/>
      <point x="156" y="360" type="curve" smooth="yes"/>
      <point x="156" y="552"/>
      <point x="260" y="644"/>
      <point x="420" y="644" type="curve" smooth="yes"/>
      <point x="480" y="644"/>
      <point x="532" y="632"/>
      <point x="572" y="608" type="curve"/>
      <point x="580" y="608" type="line"/>
      <point x="580" y="700" type="line"/>
      <point x="540" y="720"/>
      <point x="488" y="732"/>
      <point x="420" y="732" type="curve" smooth="yes"/>
      <point x="188" y="732"/>
      <point x="56" y="584"/>
    </contour>
  </outline>
</glyph>
<glyph name="E" format="2">
  <advance width="616"/>
  <unicode hex="0045"/>
  <note>
E
</note>
  <anchor x="308" y="0" name="bottom"/>
  <anchor x="564" y="0" name="ogonek"/>
  <anchor x="308" y="720" name="top"/>
  <anchor x="20" y="720" name="topleft"/>
  <outline>
    <contour>
      <point x="96" y="0" type="line"/>
      <point x="192" y="0" type="line"/>
      <point x="192" y="720" type="line"/>
      <point x="96" y="720" type="line"/>
    </contour>
    <contour>
      <point x="152" y="0" type="line"/>
      <point x="564" y="0" type="line"/>
      <point x="564" y="84" type="line"/>
      <point x="152" y="84" type="line"/>
    </contour>
    <contour>
      <point x="152" y="336" type="line"/>
      <point x="496" y="336" type="line"/>
      <point x="496" y="420" type="line"/>
      <point x="152" y="420" type="line"/>
    </contour>
    <contour>
      <point x="152" y="636" type="line"/>
      <point x="552" y="636" type="line"/>
      <point x="552" y="720" type="line"/>
      <point x="152" y="720" type="line"/>
    </contour>
  </outline>
</glyph>
<glyph name="H" format="2">
  <advance width="736"/>
  <unicode hex="0048"/>
  <note>
H
</note>
  <anchor x="368" y="0" name="bottom"/>
  <anchor x="368" y="580" name="center"/>
  <anchor x="368" y="720" name="top"/>
  <anchor x="20" y="720" name="topleft"/>
  <outline>
    <contour>
      <point x="544" y="0" type="line"/>
      <point x="640" y="0" type="line"/>
      <point x="640" y="720" type="line"/>
      <point x="544" y="720" type="line"/>
    </contour>
    <contour>
      <point x="96" y="0" type="line"/>
      <point x="192" y="0" type="line"/>
      <point x="192" y="720" type="line"/>
      <point x="96" y="720" type="line"/>
    </contour>
    <contour>
      <point x="152" y="332" type="line"/>
      <point x="584" y="332" type="line"/>
      <point x="584" y="416" type="line"/>
      <point x="152" y="416" type="line"/>
    </contour>
  </outline>
</glyph>
<glyph name="J" format="2">
  <advance width="412"/>
  <unicode hex="004A"/>
  <note>
J
</note>
  <anchor x="206" y="0" name="bottom"/>
  <anchor x="284" y="720" name="top"/>
  <outline>
    <contour>
      <point x="12" y="84" type="line"/>
      <point x="12" y="0" type="line"/>
      <point x="36" y="-6"/>
      <point x="76" y="-12"/>
      <point x="112" y="-12" type="curve" smooth="yes"/>
      <point x="256" y="-12"/>
      <point x="332" y="72"/>
      <point x="332" y="204" type="curve" smooth="yes"/>
      <point x="332" y="720" type="line"/>
      <point x="236" y="720" type="line"/>
      <point x="236" y="192" type="line" smooth="yes"/>
      <point x="236" y="116"/>
      <point x="192" y="72"/>
      <point x="112" y="72" type="curve" smooth="yes"/>
      <point x="84" y="72"/>
      <point x="36" y="78"/>
      <point x="20" y="84" type="curve"/>
    </contour>
  </outline>
</glyph>
<glyph name="P" format="2">
  <advance width="620"/>
  <unicode hex="0050"/>
  <note>
P
</note>
  <anchor x="310" y="0" name="bottom"/>
  <anchor x="310" y="720" name="top"/>
  <outline>
    <contour>
      <point x="152" y="240" type="line"/>
      <point x="308" y="240" type="line" smooth="yes"/>
      <point x="500" y="240"/>
      <point x="580" y="380"/>
      <point x="580" y="512" type="curve" smooth="yes"/>
      <point x="580" y="652"/>
      <point x="488" y="720"/>
      <point x="352" y="720" type="curve" smooth="yes"/>
      <point x="152" y="720" type="line"/>
      <point x="152" y="636" type="line"/>
      <point x="348" y="636" type="line" smooth="yes"/>
      <point x="428" y="636"/>
      <point x="480" y="604"/>
      <point x="480" y="512" type="curve" smooth="yes"/>
      <point x="480" y="408"/>
      <point x="428" y="324"/>
      <point x="308" y="324" type="curve" smooth="yes"/>
      <point x="152" y="324" type="line"/>
    </contour>
    <contour>
      <point x="96" y="0" type="line"/>
      <point x="192" y="0" type="line"/>
      <point x="192" y="720" type="line"/>
      <point x="96" y="720" type="line"/>
    </contour>
  </outline>
</glyph>
<glyph name="Q" format="2">
  <advance width="784"/>
  <unicode hex="0051"/>
  <note>
Q
</note>
  <anchor x="392" y="0" name="bottom"/>
  <anchor x="392" y="720" name="top"/>
  <anchor x="392" y="360" name="center"/>
  <anchor x="466" y="10" name="ogonek"/>
  <anchor x="20" y="720" name="topleft"/>
  <anchor x="469" y="720" name="topright"/>
  <outline>
    <contour>
      <point x="632" y="-158" type="line"/>
      <point x="764" y="-158" type="line"/>
      <point x="764" y="-150" type="line"/>
      <point x="520" y="48" type="line"/>
      <point x="424" y="20" type="line"/>
    </contour>
    <component base="O"/>
  </outline>
</glyph>
<glyph name="R" format="2">
  <advance width="660"/>
  <unicode hex="0052"/>
  <note>
R
</note>
  <anchor x="330" y="0" name="bottom"/>
  <anchor x="330" y="720" name="top"/>
  <outline>
    <contour>
      <point x="152" y="216" type="line"/>
      <point x="320" y="216" type="line" smooth="yes"/>
      <point x="460" y="216"/>
      <point x="592" y="316"/>
      <point x="592" y="496" type="curve" smooth="yes"/>
      <point x="592" y="640"/>
      <point x="500" y="720"/>
      <point x="356" y="720" type="curve" smooth="yes"/>
      <point x="152" y="720" type="line"/>
      <point x="152" y="636" type="line"/>
      <point x="352" y="636" type="line" smooth="yes"/>
      <point x="436" y="636"/>
      <point x="492" y="592"/>
      <point x="492" y="496" type="curve" smooth="yes"/>
      <point x="492" y="396"/>
      <point x="436" y="304"/>
      <point x="324" y="304" type="curve" smooth="yes"/>
      <point x="152" y="304" type="line"/>
    </contour>
    <contour>
      <point x="96" y="0" type="line"/>
      <point x="192" y="0" type="line"/>
      <point x="192" y="720" type="line"/>
      <point x="96" y="720" type="line"/>
    </contour>
    <contour>
      <point x="524" y="0" type="line"/>
      <point x="636" y="0" type="line"/>
      <point x="636" y="4" type="line"/>
      <point x="436" y="256" type="line"/>
      <point x="336" y="244" type="line"/>
    </contour>
  </outline>
</glyph>
<glyph name="T" format="2">
  <advance width="584"/>
  <unicode hex="0054"/>
  <note>
T
</note>
  <anchor x="292" y="0" name="bottom"/>
  <anchor x="292" y="360" name="center"/>
  <anchor x="292" y="720" name="top"/>
  <outline>
    <contour>
      <point x="12" y="720" type="line"/>
      <point x="12" y="636" type="line"/>
      <point x="244" y="636" type="line"/>
      <point x="244" y="0" type="line"/>
      <point x="340" y="0" type="line"/>
      <point x="340" y="636" type="line"/>
      <point x="572" y="636" type="line"/>
      <point x="572" y="720" type="line"/>
    </contour>
  </outline>
</glyph>
<glyph name="U" format="2">
  <advance width="704"/>
  <unicode hex="0055"/>
  <note>
U
</note>
  <anchor x="352" y="0" name="bottom"/>
  <anchor x="418" y="10" name="ogonek"/>
  <anchor x="352" y="720" name="top"/>
  <anchor x="604" y="720" name="topright"/>
  <outline>
    <contour>
      <point x="88" y="720" type="line"/>
      <point x="88" y="268" type="line" smooth="yes"/>
      <point x="88" y="84"/>
      <point x="176" y="-12"/>
      <point x="352" y="-12" type="curve" smooth="yes"/>
      <point x="524" y="-12"/>
      <point x="616" y="84"/>
      <point x="616" y="268" type="curve" smooth="yes"/>
      <point x="616" y="720" type="line"/>
      <point x="520" y="720" type="line"/>
      <point x="520" y="268" type="line" smooth="yes"/>
      <point x="520" y="128"/>
      <point x="464" y="76"/>
      <point x="352" y="76" type="curve" smooth="yes"/>
      <point x="240" y="76"/>
      <point x="184" y="128"/>
      <point x="184" y="268" type="curve" smooth="yes"/>
      <point x="184" y="720" type="line"/>
    </contour>
  </outline>
</glyph>
<glyph name="V" format="2">
  <advance width="646"/>
  <unicode hex="0056"/>
  <note>
V
</note>
  <anchor x="323" y="0" name="bottom"/>
  <anchor x="323" y="720" name="top"/>
  <outline>
    <contour>
      <point x="90" y="16" type="curve"/>
      <point x="92" y="4" type="line"/>
      <point x="144" y="-8"/>
      <point x="188" y="-12"/>
      <point x="236" y="-12" type="curve" smooth="yes"/>
      <point x="436" y="-12"/>
      <point x="502" y="76"/>
      <point x="526" y="236" type="curve" smooth="yes"/>
      <point x="598" y="720" type="line"/>
      <point x="500" y="720" type="line"/>
      <point x="428" y="232" type="line" smooth="yes"/>
      <point x="413" y="133"/>
      <point x="372" y="72"/>
      <point x="240" y="72" type="curve" smooth="yes"/>
      <point x="210" y="72"/>
      <point x="189" y="74"/>
      <point x="170" y="79" type="curve"/>
      <point x="189" y="54" type="line"/>
      <point x="190" y="73"/>
      <point x="192" y="98"/>
      <point x="192" y="124" type="curve" smooth="yes"/>
      <point x="192" y="720" type="line"/>
      <point x="96" y="720" type="line"/>
      <point x="96" y="176" type="line" smooth="yes"/>
      <point x="96" y="136"/>
      <point x="96" y="56"/>
    </contour>
  </outline>
</glyph>
<glyph name="W" format="2">
  <advance width="1044"/>
  <unicode hex="0057"/>
  <note>
W
</note>
  <anchor x="522" y="0" name="bottom"/>
  <anchor x="522" y="720" name="top"/>
  <outline>
    <contour>
      <point x="662" y="-12" type="curve" smooth="yes"/>
      <point x="826" y="-12"/>
      <point x="880" y="77"/>
      <point x="912" y="236" type="curve" smooth="yes"/>
      <point x="1008" y="720" type="line"/>
      <point x="910" y="720" type="line"/>
      <point x="814" y="232" type="line" smooth="yes"/>
      <point x="795" y="134"/>
      <point x="762" y="72"/>
      <point x="666" y="72" type="curve" smooth="yes"/>
      <point x="630" y="72"/>
      <point x="619" y="75"/>
      <point x="595" y="82" type="curve"/>
      <point x="616" y="53" type="line"/>
      <point x="616" y="90"/>
      <point x="615" y="145"/>
      <point x="612" y="176" type="curve" smooth="yes"/>
      <point x="554" y="720" type="line"/>
      <point x="456" y="720" type="line"/>
      <point x="518" y="176" type="line" smooth="yes"/>
      <point x="522" y="136"/>
      <point x="526" y="56"/>
      <point x="524" y="16" type="curve"/>
      <point x="526" y="4" type="line"/>
      <point x="578" y="-8"/>
      <point x="614" y="-12"/>
    </contour>
    <contour>
      <point x="262" y="-12" type="curve" smooth="yes"/>
      <point x="418" y="-12"/>
      <point x="462" y="77"/>
      <point x="496" y="236" type="curve" smooth="yes"/>
      <point x="514" y="320" type="line"/>
      <point x="488" y="584" type="line"/>
      <point x="414" y="232" type="line" smooth="yes"/>
      <point x="394" y="135"/>
      <point x="362" y="72"/>
      <point x="266" y="72" type="curve" smooth="yes"/>
      <point x="230" y="72"/>
      <point x="219" y="77"/>
      <point x="195" y="82" type="curve"/>
      <point x="216" y="53" type="line"/>
      <point x="216" y="90"/>
      <point x="216" y="145"/>
      <point x="212" y="176" type="curve" smooth="yes"/>
      <point x="154" y="720" type="line"/>
      <point x="56" y="720" type="line"/>
      <point x="118" y="176" type="line" smooth="yes"/>
      <point x="123" y="136"/>
      <point x="126" y="56"/>
      <point x="124" y="16" type="curve"/>
      <point x="126" y="4" type="line"/>
      <point x="178" y="-8"/>
      <point x="214" y="-12"/>
    </contour>
  </outline>
</glyph>
<glyph name="Z" format="2">
  <advance width="586"/>
  <unicode hex="005A"/>
  <note>
Z
</note>
  <anchor x="293" y="0" name="bottom"/>
  <anchor x="293" y="720" name="top"/>
  <outline>
    <contour>
      <point x="54" y="0" type="line"/>
      <point x="546" y="0" type="line"/>
      <point x="546" y="84" type="line"/>
      <point x="135" y="84" type="line"/>
      <point x="153" y="48" type="line"/>
      <point x="510" y="632" type="line" smooth="yes"/>
      <point x="524" y="655"/>
      <point x="536" y="678"/>
      <point x="536" y="699" type="curve" smooth="yes"/>
      <point x="536" y="703"/>
      <point x="535" y="708"/>
      <point x="534" y="712" type="curve"/>
      <point x="526" y="720" type="line"/>
      <point x="50" y="720" type="line"/>
      <point x="50" y="636" type="line"/>
      <point x="444" y="636" type="line"/>
      <point x="426" y="672" type="line"/>
      <point x="70" y="88" type="line" smooth="yes"/>
      <point x="54" y="62"/>
      <point x="45" y="44"/>
      <point x="45" y="21" type="curve" smooth="yes"/>
      <point x="45" y="17"/>
      <point x="45" y="13"/>
      <point x="46" y="8" type="curve"/>
    </contour>
  </outline>
</glyph>
<glyph name="backslash" format="2">
  <advance width="516"/>
  <unicode hex="005C"/>
  <note>
backslash
</note>
  <outline>
    <contour>
      <point x="412" y="0" type="line"/>
      <point x="496" y="0" type="line"/>
      <point x="104" y="720" type="line"/>
      <point x="20" y="720" type="line"/>
    </contour>
  </outline>
</glyph>
<glyph name="b" format="2">
  <advance width="618"/>
  <unicode hex="0062"/>
  <note>
b
</note>
  <anchor x="309" y="0" name="bottom"/>
  <anchor x="309" y="760" name="top"/>
  <outline>
    <contour>
      <point x="284" y="-12" type="curve" smooth="yes"/>
      <point x="460" y="-12"/>
      <point x="566" y="96"/>
      <point x="566" y="276" type="curve" smooth="yes"/>
      <point x="566" y="448"/>
      <point x="464" y="556"/>
      <point x="292" y="556" type="curve" smooth="yes"/>
      <point x="252" y="556"/>
      <point x="202" y="548"/>
      <point x="156" y="528" type="curve"/>
      <point x="156" y="452" type="line"/>
      <point x="208" y="469"/>
      <point x="232" y="476"/>
      <point x="284" y="476" type="curve" smooth="yes"/>
      <point x="408" y="476"/>
      <point x="472" y="400"/>
      <point x="472" y="276" type="curve" smooth="yes"/>
      <point x="472" y="140"/>
      <point x="412" y="68"/>
      <point x="284" y="68" type="curve" smooth="yes"/>
      <point x="239" y="68"/>
      <point x="196" y="77"/>
      <point x="164" y="88" type="curve"/>
      <point x="180" y="60" type="line"/>
      <point x="184" y="80"/>
      <point x="188" y="108"/>
      <point x="188" y="148" type="curve" smooth="yes"/>
      <point x="188" y="760" type="line"/>
      <point x="90" y="760" type="line"/>
      <point x="88" y="752" type="line"/>
      <point x="96" y="716"/>
      <point x="96" y="628"/>
      <point x="96" y="588" type="curve" smooth="yes"/>
      <point x="96" y="196" type="line" smooth="yes"/>
      <point x="96" y="156"/>
      <point x="96" y="68"/>
      <point x="88" y="32" type="curve"/>
      <point x="90" y="24" type="line"/>
      <point x="142" y="4"/>
      <point x="216" y="-12"/>
    </contour>
  </outline>
</glyph>
<glyph name="d" format="2">
  <advance width="618"/>
  <unicode hex="0064"/>
  <note>
d
</note>
  <anchor x="309" y="0" name="bottom"/>
  <anchor x="448" y="656" name="center"/>
  <anchor x="309" y="760" name="top"/>
  <anchor x="642" y="544" name="topright"/>
  <outline>
    <contour>
      <point x="332" y="-12" type="curve" smooth="yes"/>
      <point x="408" y="-12"/>
      <point x="472" y="6"/>
      <point x="528" y="28" type="curve"/>
      <point x="530" y="36" type="line"/>
      <point x="522" y="72"/>
      <point x="522" y="160"/>
      <point x="522" y="200" type="curve" smooth="yes"/>
      <point x="522" y="760" type="line"/>
      <point x="424" y="760" type="line"/>
      <point x="422" y="752" type="line"/>
      <point x="430" y="716"/>
      <point x="430" y="628"/>
      <point x="430" y="588" type="curve" smooth="yes"/>
      <point x="430" y="152" type="line" smooth="yes"/>
      <point x="430" y="118"/>
      <point x="432" y="86"/>
      <point x="438" y="63" type="curve"/>
      <point x="454" y="91" type="line"/>
      <point x="424" y="78"/>
      <point x="387" y="68"/>
      <point x="340" y="68" type="curve" smooth="yes"/>
      <point x="214" y="68"/>
      <point x="146" y="132"/>
      <point x="146" y="274" type="curve" smooth="yes"/>
      <point x="146" y="404"/>
      <point x="216" y="476"/>
      <point x="346" y="476" type="curve" smooth="yes"/>
      <point x="395" y="476"/>
      <point x="428" y="464"/>
      <point x="443" y="458" type="curve"/>
      <point x="447" y="538" type="line"/>
      <point x="424" y="548"/>
      <point x="386" y="556"/>
      <point x="340" y="556" type="curve" smooth="yes"/>
      <point x="168" y="556"/>
      <point x="52" y="452"/>
      <point x="52" y="274" type="curve" smooth="yes"/>
      <point x="52" y="96"/>
      <point x="152" y="-12"/>
    </contour>
  </outline>
</glyph>
<glyph name="e" format="2">
  <advance width="597"/>
  <unicode hex="0065"/>
  <note>
e
</note>
  <anchor x="299" y="0" name="bottom"/>
  <anchor x="508" y="22" name="ogonek"/>
  <anchor x="299" y="544" name="top"/>
  <outline>
    <contour>
      <point x="352" y="-8" type="curve" smooth="yes"/>
      <point x="424" y="-8"/>
      <point x="476" y="6"/>
      <point x="508" y="22" type="curve"/>
      <point x="508" y="104" type="line"/>
      <point x="500" y="104" type="line"/>
      <point x="472" y="88"/>
      <point x="424" y="72"/>
      <point x="356" y="72" type="curve" smooth="yes"/>
      <point x="233" y="72"/>
      <point x="146" y="120"/>
      <point x="146" y="274" type="curve" smooth="yes"/>
      <point x="146" y="280" type="line" smooth="yes"/>
      <point x="146" y="428"/>
      <point x="220" y="476"/>
      <point x="304" y="476" type="curve" smooth="yes"/>
      <point x="400" y="476"/>
      <point x="448" y="424"/>
      <point x="448" y="324" type="curve" smooth="yes"/>
      <point x="448" y="316" type="line"/>
      <point x="116" y="316" type="line"/>
      <point x="116" y="240" type="line"/>
      <point x="543" y="240" type="line"/>
      <point x="544" y="268" type="line" smooth="yes"/>
      <point x="550" y="440"/>
      <point x="480" y="556"/>
      <point x="304" y="556" type="curve" smooth="yes"/>
      <point x="152" y="556"/>
      <point x="52" y="444"/>
      <point x="52" y="274" type="curve" smooth="yes"/>
      <point x="52" y="92"/>
      <point x="148" y="-8"/>
    </contour>
  </outline>
</glyph>
<glyph name="f" format="2">
  <advance width="336"/>
  <unicode hex="0066"/>
  <note>
f
</note>
  <anchor x="168" y="0" name="bottom"/>
  <anchor x="168" y="760" name="top"/>
  <outline>
    <contour>
      <point x="100" y="0" type="line"/>
      <point x="192" y="0" type="line"/>
      <point x="192" y="544" type="line" smooth="yes"/>
      <point x="192" y="639"/>
      <point x="215" y="680"/>
      <point x="296" y="680" type="curve" smooth="yes"/>
      <point x="328" y="680"/>
      <point x="344" y="676"/>
      <point x="364" y="668" type="curve"/>
      <point x="372" y="668" type="line"/>
      <point x="372" y="748" type="line"/>
      <point x="352" y="756"/>
      <point x="328" y="760"/>
      <point x="296" y="760" type="curve" smooth="yes"/>
      <point x="163" y="760"/>
      <point x="100" y="687"/>
      <point x="100" y="544" type="curve" smooth="yes"/>
    </contour>
    <contour>
      <point x="16" y="464" type="line"/>
      <point x="344" y="464" type="line"/>
      <point x="344" y="544" type="line"/>
      <point x="16" y="544" type="line"/>
    </contour>
  </outline>
</glyph>
<glyph name="g" format="2">
  <advance width="618"/>
  <unicode hex="0067"/>
  <note>
g
</note>
  <anchor x="309" y="-240" name="bottom"/>
  <anchor x="309" y="544" name="top"/>
  <outline>
    <contour>
      <point x="252" y="-240" type="curve" smooth="yes"/>
      <point x="424" y="-240"/>
      <point x="522" y="-144"/>
      <point x="522" y="16" type="curve" smooth="yes"/>
      <point x="522" y="348" type="line" smooth="yes"/>
      <point x="522" y="388"/>
      <point x="522" y="476"/>
      <point x="530" y="512" type="curve"/>
      <point x="528" y="520" type="line"/>
      <point x="476" y="540"/>
      <point x="404" y="556"/>
      <point x="344" y="556" type="curve" smooth="yes"/>
      <point x="160" y="556"/>
      <point x="52" y="448"/>
      <point x="52" y="276" type="curve" smooth="yes"/>
      <point x="52" y="96"/>
      <point x="168" y="4"/>
      <point x="340" y="4" type="curve" smooth="yes"/>
      <point x="372" y="4"/>
      <point x="405" y="9"/>
      <point x="450" y="20" type="curve"/>
      <point x="452" y="104" type="line"/>
      <point x="412" y="88"/>
      <point x="381" y="84"/>
      <point x="344" y="84" type="curve" smooth="yes"/>
      <point x="212" y="84"/>
      <point x="146" y="148"/>
      <point x="146" y="276" type="curve" smooth="yes"/>
      <point x="146" y="408"/>
      <point x="212" y="476"/>
      <point x="344" y="476" type="curve" smooth="yes"/>
      <point x="387" y="476"/>
      <point x="424" y="466"/>
      <point x="453" y="457" type="curve"/>
      <point x="436" y="485" type="line"/>
      <point x="432" y="460"/>
      <point x="430" y="432"/>
      <point x="430" y="400" type="curve" smooth="yes"/>
      <point x="430" y="16" type="line" smooth="yes"/>
      <point x="430" y="-104"/>
      <point x="382" y="-160"/>
      <point x="252" y="-160" type="curve" smooth="yes"/>
      <point x="209" y="-160"/>
      <point x="152" y="-152"/>
      <point x="108" y="-132" type="curve"/>
      <point x="100" y="-132" type="line"/>
      <point x="100" y="-214" type="line"/>
      <point x="140" y="-232"/>
      <point x="204" y="-240"/>
    </contour>
  </outline>
</glyph>
<glyph name="r" format="2">
  <advance width="384"/>
  <unicode hex="0072"/>
  <note>
r
</note>
  <anchor x="142" y="0" name="bottom"/>
  <anchor x="192" y="544" name="top"/>
  <outline>
    <contour>
      <point x="96" y="0" type="line"/>
      <point x="188" y="0" type="line"/>
      <point x="188" y="396" type="line" smooth="yes"/>
      <point x="188" y="427"/>
      <point x="186" y="456"/>
      <point x="182" y="478" type="curve"/>
      <point x="164" y="453" type="line"/>
      <point x="197" y="460"/>
      <point x="246" y="468"/>
      <point x="288" y="468" type="curve" smooth="yes"/>
      <point x="308" y="468"/>
      <point x="335" y="467"/>
      <point x="352" y="464" type="curve"/>
      <point x="360" y="464" type="line"/>
      <point x="360" y="544" type="line"/>
      <point x="346" y="546"/>
      <point x="328" y="548"/>
      <point x="296" y="548" type="curve" smooth="yes"/>
      <point x="244" y="548"/>
      <point x="142" y="536"/>
      <point x="90" y="516" type="curve"/>
      <point x="88" y="508" type="line"/>
      <point x="96" y="472"/>
      <point x="96" y="384"/>
      <point x="96" y="344" type="curve" smooth="yes"/>
    </contour>
  </outline>
</glyph>
<glyph name="v" format="2">
  <advance width="536"/>
  <unicode hex="0076"/>
  <note>
v
</note>
  <anchor x="268" y="0" name="bottom"/>
  <anchor x="268" y="544" name="top"/>
  <outline>
    <contour>
      <point x="204" y="0" type="line"/>
      <point x="324" y="0" type="line"/>
      <point x="524" y="532" type="line"/>
      <point x="524" y="544" type="line"/>
      <point x="432" y="544" type="line"/>
      <point x="255" y="46" type="line"/>
      <point x="280" y="46" type="line"/>
      <point x="108" y="544" type="line"/>
      <point x="12" y="544" type="line"/>
      <point x="12" y="532" type="line"/>
    </contour>
  </outline>
</glyph>
<glyph name="z" format="2">
  <advance width="520"/>
  <unicode hex="007A"/>
  <note>
z
</note>
  <anchor x="260" y="0" name="bottom"/>
  <anchor x="260" y="544" name="top"/>
  <outline>
    <contour>
      <point x="53" y="0" type="line"/>
      <point x="480" y="0" type="line"/>
      <point x="480" y="78" type="line"/>
      <point x="97" y="78" type="line"/>
      <point x="131" y="62" type="line"/>
      <point x="130" y="82"/>
      <point x="165" y="118"/>
      <point x="188" y="144" type="curve" smooth="yes"/>
      <point x="388" y="356" type="line" smooth="yes"/>
      <point x="414" y="384"/>
      <point x="464" y="432"/>
      <point x="464" y="496" type="curve" smooth="yes"/>
      <point x="464" y="504"/>
      <point x="462" y="520"/>
      <point x="459" y="534" type="curve"/>
      <point x="451" y="544" type="line"/>
      <point x="52" y="544" type="line"/>
      <point x="52" y="466" type="line"/>
      <point x="406" y="466" type="line"/>
      <point x="371" y="482" type="line"/>
      <point x="375" y="463"/>
      <point x="339" y="425"/>
      <point x="316" y="400" type="curve" smooth="yes"/>
      <point x="116" y="188" type="line" smooth="yes"/>
      <point x="90" y="160"/>
      <point x="40" y="112"/>
      <point x="40" y="48" type="curve" smooth="yes"/>
      <point x="40" y="40"/>
      <point x="42" y="24"/>
      <point x="45" y="10" type="curve"/>
    </contour>
  </outline>
</glyph>
<glyph name="braceright" format="2">
  <advance width="372"/>
  <unicode hex="007D"/>
  <note>
braceright
</note>
  <outline>
    <contour>
      <point x="100" y="-12" type="curve" smooth="yes"/>
      <point x="24" y="-12" type="line"/>
      <point x="24" y="-88" type="line"/>
      <point x="96" y="-88" type="line" smooth="yes"/>
      <point x="196" y="-88"/>
      <point x="244" y="-32"/>
      <point x="244" y="60" type="curve" smooth="yes"/>
      <point x="244" y="220" type="line" smooth="yes"/>
      <point x="244" y="260"/>
      <point x="264" y="292"/>
      <point x="312" y="292" type="curve" smooth="yes"/>
      <point x="360" y="292" type="line"/>
      <point x="360" y="380" type="line"/>
      <point x="312" y="380" type="line" smooth="yes"/>
      <point x="264" y="380"/>
      <point x="244" y="412"/>
      <point x="244" y="452" type="curve" smooth="yes"/>
      <point x="244" y="612" type="line" smooth="yes"/>
      <point x="244" y="704"/>
      <point x="196" y="760"/>
      <point x="96" y="760" type="curve" smooth="yes"/>
      <point x="24" y="760" type="line"/>
      <point x="24" y="684" type="line"/>
      <point x="100" y="684" type="line" smooth="yes"/>
      <point x="140" y="684"/>
      <point x="160" y="664"/>
      <point x="160" y="620" type="curve" smooth="yes"/>
      <point x="160" y="456" type="line" smooth="yes"/>
      <point x="160" y="384"/>
      <point x="200" y="347"/>
      <point x="252" y="337" type="curve"/>
      <point x="252" y="335" type="line"/>
      <point x="200" y="325"/>
      <point x="160" y="288"/>
      <point x="160" y="216" type="curve" smooth="yes"/>
      <point x="160" y="52" type="line" smooth="yes"/>
      <point x="160" y="8"/>
      <point x="140" y="-12"/>
    </contour>
  </outline>
</glyph>
<glyph name="currency" format="2">
  <advance width="616"/>
  <unicode hex="00A4"/>
  <note>
currency
</note>
  <outline>
    <contour>
      <point x="99" y="201" type="line"/>
      <point x="149" y="152" type="line"/>
      <point x="196" y="199" type="line"/>
      <point x="225" y="181"/>
      <point x="261" y="170"/>
      <point x="304" y="170" type="curve" smooth="yes"/>
      <point x="349" y="170"/>
      <point x="386" y="182"/>
      <point x="415" y="202" type="curve"/>
      <point x="466" y="152" type="line"/>
      <point x="516" y="201" type="line"/>
      <point x="462" y="254" type="line"/>
      <point x="479" y="283"/>
      <point x="488" y="320"/>
      <point x="488" y="360" type="curve" smooth="yes"/>
      <point x="488" y="400"/>
      <point x="479" y="436"/>
      <point x="462" y="465" type="curve"/>
      <point x="516" y="519" type="line"/>
      <point x="466" y="569" type="line"/>
      <point x="415" y="518" type="line"/>
      <point x="386" y="538"/>
      <point x="348" y="550"/>
      <point x="304" y="550" type="curve" smooth="yes"/>
      <point x="261" y="550"/>
      <point x="225" y="538"/>
      <point x="196" y="520" type="curve"/>
      <point x="149" y="569" type="line"/>
      <point x="99" y="519" type="line"/>
      <point x="148" y="469" type="line"/>
      <point x="129" y="439"/>
      <point x="119" y="402"/>
      <point x="119" y="360" type="curve" smooth="yes"/>
      <point x="119" y="318"/>
      <point x="129" y="281"/>
      <point x="148" y="250" type="curve"/>
    </contour>
    <contour>
      <point x="304" y="241" type="curve" smooth="yes"/>
      <point x="237" y="241"/>
      <point x="196" y="289"/>
      <point x="196" y="360" type="curve" smooth="yes"/>
      <point x="196" y="430"/>
      <point x="237" y="478"/>
      <point x="304" y="478" type="curve" smooth="yes"/>
      <point x="370" y="478"/>
      <point x="412" y="430"/>
      <point x="412" y="360" type="curve" smooth="yes"/>
      <point x="412" y="289"/>
      <point x="370" y="241"/>
    </contour>
  </outline>
</glyph>
<glyph name="yen" format="2">
  <advance width="616"/>
  <unicode hex="00A5"/>
  <note>
yen
</note>
  <outline>
    <contour>
      <point x="114" y="190" type="line"/>
      <point x="506" y="190" type="line"/>
      <point x="506" y="268" type="line"/>
      <point x="114" y="268" type="line"/>
    </contour>
    <contour>
      <point x="114" y="342" type="line"/>
      <point x="506" y="342" type="line"/>
      <point x="506" y="420" type="line"/>
      <point x="114" y="420" type="line"/>
    </contour>
    <contour>
      <point x="582" y="720" type="line"/>
      <point x="482" y="720" type="line"/>
      <point x="293" y="394" type="line"/>
      <point x="331" y="394" type="line"/>
      <point x="138" y="720" type="line"/>
      <point x="34" y="720" type="line"/>
      <point x="34" y="712" type="line"/>
      <point x="282" y="309" type="line"/>
      <point x="262" y="379" type="line"/>
      <point x="262" y="0" type="line"/>
      <point x="358" y="0" type="line"/>
      <point x="358" y="384" type="line"/>
      <point x="338" y="314" type="line"/>
      <point x="582" y="712" type="line"/>
    </contour>
  </outline>
</glyph>
<glyph name="copyright" format="2">
  <advance width="792"/>
  <unicode hex="00A9"/>
  <note>
copyright
</note>
  <outline>
    <contour>
      <point x="48" y="360" type="curve" smooth="yes"/>
      <point x="48" y="128"/>
      <point x="188" y="-12"/>
      <point x="396" y="-12" type="curve" smooth="yes"/>
      <point x="604" y="-12"/>
      <point x="744" y="128"/>
      <point x="744" y="360" type="curve" smooth="yes"/>
      <point x="744" y="592"/>
      <point x="604" y="732"/>
      <point x="396" y="732" type="curve" smooth="yes"/>
      <point x="188" y="732"/>
      <point x="48" y="592"/>
    </contour>
    <contour>
      <point x="120" y="360" type="curve" smooth="yes"/>
      <point x="120" y="568"/>
      <point x="232" y="668"/>
      <point x="396" y="668" type="curve" smooth="yes"/>
      <point x="560" y="668"/>
      <point x="672" y="564"/>
      <point x="672" y="360" type="curve" smooth="yes"/>
      <point x="672" y="156"/>
      <point x="560" y="52"/>
      <point x="396" y="52" type="curve" smooth="yes"/>
      <point x="232" y="52"/>
      <point x="120" y="152"/>
    </contour>
    <contour>
      <point x="216" y="360" type="curve" smooth="yes"/>
      <point x="216" y="240"/>
      <point x="292" y="156"/>
      <point x="428" y="156" type="curve" smooth="yes"/>
      <point x="462" y="156"/>
      <point x="498" y="162"/>
      <point x="520" y="171" type="curve"/>
      <point x="520" y="232" type="line"/>
      <point x="516" y="232" type="line"/>
      <point x="494" y="222"/>
      <point x="462" y="216"/>
      <point x="428" y="216" type="curve" smooth="yes"/>
      <point x="340" y="216"/>
      <point x="284" y="260"/>
      <point x="284" y="360" type="curve" smooth="yes"/>
      <point x="284" y="460"/>
      <point x="340" y="504"/>
      <point x="428" y="504" type="curve" smooth="yes"/>
      <point x="462" y="504"/>
      <point x="494" y="498"/>
      <point x="516" y="488" type="curve"/>
      <point x="520" y="488" type="line"/>
      <point x="520" y="549" type="line"/>
      <point x="498" y="558"/>
      <point x="462" y="564"/>
      <point x="428" y="564" type="curve" smooth="yes"/>
      <point x="292" y="564"/>
      <point x="216" y="480"/>
    </contour>
  </outline>
</glyph>
<glyph name="ordfeminine" format="2">
  <advance width="451"/>
  <unicode hex="00AA"/>
  <note>
ordfeminine
</note>
  <outline>
    <contour>
      <point x="227" y="312" type="curve" smooth="yes"/>
      <point x="275" y="312"/>
      <point x="345" y="323"/>
      <point x="393" y="340" type="curve"/>
      <point x="394" y="346" type="line"/>
      <point x="388" y="372"/>
      <point x="388" y="435"/>
      <point x="388" y="464" type="curve" smooth="yes"/>
      <point x="388" y="560" type="line" smooth="yes"/>
      <point x="388" y="699"/>
      <point x="310" y="727"/>
      <point x="207" y="727" type="curve" smooth="yes"/>
      <point x="166" y="727"/>
      <point x="120" y="720"/>
      <point x="85" y="707" type="curve"/>
      <point x="85" y="637" type="line"/>
      <point x="92" y="637" type="line"/>
      <point x="115" y="648"/>
      <point x="157" y="659"/>
      <point x="197" y="659" type="curve" smooth="yes"/>
      <point x="281" y="659"/>
      <point x="305" y="635"/>
      <point x="305" y="552" type="curve"/>
      <point x="289" y="557"/>
      <point x="257" y="563"/>
      <point x="221" y="563" type="curve" smooth="yes"/>
      <point x="118" y="563"/>
      <point x="50" y="524"/>
      <point x="50" y="437" type="curve" smooth="yes"/>
      <point x="50" y="351"/>
      <point x="109" y="312"/>
    </contour>
    <contour>
      <point x="228" y="375" type="curve" smooth="yes"/>
      <point x="164" y="375"/>
      <point x="130" y="393"/>
      <point x="130" y="438" type="curve" smooth="yes"/>
      <point x="130" y="486"/>
      <point x="163" y="502"/>
      <point x="235" y="502" type="curve" smooth="yes"/>
      <point x="262" y="502"/>
      <point x="287" y="497"/>
      <point x="305" y="493" type="curve"/>
      <point x="305" y="425"/>
      <point x="305" y="404"/>
      <point x="309" y="386" type="curve"/>
      <point x="284" y="379"/>
      <point x="256" y="375"/>
    </contour>
    <contour>
      <point x="60" y="258" type="line"/>
      <point x="60" y="184" type="line"/>
      <point x="396" y="184" type="line"/>
      <point x="396" y="258" type="line"/>
    </contour>
  </outline>
</glyph>
<glyph name="degree" format="2">
  <advance width="392"/>
  <unicode hex="00B0"/>
  <note>
degree
</note>
  <outline>
    <contour>
      <point x="196" y="480" type="curve" smooth="yes"/>
      <point x="272" y="480"/>
      <point x="332" y="528"/>
      <point x="332" y="608" type="curve" smooth="yes"/>
      <point x="332" y="688"/>
      <point x="272" y="736"/>
      <point x="196" y="736" type="curve" smooth="yes"/>
      <point x="120" y="736"/>
      <point x="60" y="688"/>
      <point x="60" y="608" type="curve" smooth="yes"/>
      <point x="60" y="528"/>
      <point x="120" y="480"/>
    </contour>
    <contour>
      <point x="196" y="532" type="curve" smooth="yes"/>
      <point x="150" y="532"/>
      <point x="120" y="560"/>
      <point x="120" y="608" type="curve" smooth="yes"/>
      <point x="120" y="656"/>
      <point x="150" y="684"/>
      <point x="196" y="684" type="curve" smooth="yes"/>
      <point x="242" y="684"/>
      <point x="272" y="656"/>
      <point x="272" y="608" type="curve" smooth="yes"/>
      <point x="272" y="560"/>
      <point x="242" y="532"/>
    </contour>
  </outline>
</glyph>
<glyph name="paragraph" format="2">
  <advance width="692"/>
  <unicode hex="00B6"/>
  <note>
paragraph
</note>
  <outline>
    <contour>
      <point x="296" y="248" type="curve" smooth="yes"/>
      <point x="312" y="248" type="line"/>
      <point x="312" y="-250" type="line"/>
      <point x="396" y="-250" type="line"/>
      <point x="396" y="644" type="line"/>
      <point x="512" y="644" type="line"/>
      <point x="512" y="-250" type="line"/>
      <point x="596" y="-250" type="line"/>
      <point x="596" y="720" type="line"/>
      <point x="296" y="720" type="line" smooth="yes"/>
      <point x="169" y="720"/>
      <point x="60" y="636"/>
      <point x="60" y="484" type="curve" smooth="yes"/>
      <point x="60" y="332"/>
      <point x="169" y="248"/>
    </contour>
  </outline>
</glyph>
<glyph name="ordmasculine" format="2">
  <advance width="455"/>
  <unicode hex="00BA"/>
  <note>
ordmasculine
</note>
  <outline>
    <contour>
      <point x="38" y="520" type="curve" smooth="yes"/>
      <point x="38" y="387"/>
      <point x="113" y="313"/>
      <point x="227" y="313" type="curve" smooth="yes"/>
      <point x="339" y="313"/>
      <point x="416" y="387"/>
      <point x="416" y="520" type="curve" smooth="yes"/>
      <point x="416" y="653"/>
      <point x="339" y="727"/>
      <point x="227" y="727" type="curve" smooth="yes"/>
      <point x="116" y="727"/>
      <point x="38" y="653"/>
    </contour>
    <contour>
      <point x="124" y="520" type="curve" smooth="yes"/>
      <point x="124" y="612"/>
      <point x="161" y="658"/>
      <point x="227" y="658" type="curve" smooth="yes"/>
      <point x="294" y="658"/>
      <point x="330" y="612"/>
      <point x="330" y="520" type="curve" smooth="yes"/>
      <point x="330" y="428"/>
      <point x="294" y="382"/>
      <point x="227" y="382" type="curve" smooth="yes"/>
      <point x="161" y="382"/>
      <point x="124" y="428"/>
    </contour>
    <contour>
      <point x="59" y="266" type="line"/>
      <point x="59" y="192" type="line"/>
      <point x="395" y="192" type="line"/>
      <point x="395" y="266" type="line"/>
    </contour>
  </outline>
</glyph>
<glyph name="AE" format="2">
  <advance width="990"/>
  <unicode hex="00C6"/>
  <note>
AE
</note>
  <anchor x="495" y="0" name="bottom"/>
  <anchor x="495" y="720" name="top"/>
  <outline>
    <contour>
      <point x="46" y="0" type="line"/>
      <point x="144" y="0" type="line"/>
      <point x="224" y="480" type="line" smooth="yes"/>
      <point x="243" y="591"/>
      <point x="284" y="644"/>
      <point x="416" y="644" type="curve" smooth="yes"/>
      <point x="445" y="644"/>
      <point x="471" y="642"/>
      <point x="488" y="634" type="curve"/>
      <point x="472" y="663" type="line"/>
      <point x="468" y="642"/>
      <point x="468" y="618"/>
      <point x="468" y="592" type="curve" smooth="yes"/>
      <point x="468" y="0" type="line"/>
      <point x="564" y="0" type="line"/>
      <point x="564" y="540" type="line" smooth="yes"/>
      <point x="564" y="580"/>
      <point x="564" y="660"/>
      <point x="570" y="700" type="curve"/>
      <point x="568" y="712" type="line"/>
      <point x="516" y="724"/>
      <point x="468" y="728"/>
      <point x="420" y="728" type="curve" smooth="yes"/>
      <point x="220" y="728"/>
      <point x="153" y="640"/>
      <point x="126" y="480" type="curve" smooth="yes"/>
    </contour>
    <contour>
      <point x="146" y="220" type="line"/>
      <point x="508" y="220" type="line"/>
      <point x="508" y="304" type="line"/>
      <point x="146" y="304" type="line"/>
    </contour>
    <contour>
      <point x="524" y="0" type="line"/>
      <point x="936" y="0" type="line"/>
      <point x="936" y="84" type="line"/>
      <point x="524" y="84" type="line"/>
    </contour>
    <contour>
      <point x="524" y="336" type="line"/>
      <point x="868" y="336" type="line"/>
      <point x="868" y="420" type="line"/>
      <point x="524" y="420" type="line"/>
    </contour>
    <contour>
      <point x="524" y="636" type="line"/>
      <point x="924" y="636" type="line"/>
      <point x="924" y="720" type="line"/>
      <point x="524" y="720" type="line"/>
    </contour>
  </outline>
</glyph>
<glyph name="multiply" format="2">
  <advance width="616"/>
  <unicode hex="00D7"/>
  <note>
multiply
</note>
  <outline>
    <contour>
      <point x="461" y="107" type="line"/>
      <point x="517" y="163" type="line"/>
      <point x="155" y="525" type="line"/>
      <point x="99" y="469" type="line"/>
    </contour>
    <contour>
      <point x="155" y="107" type="line"/>
      <point x="517" y="469" type="line"/>
      <point x="461" y="525" type="line"/>
      <point x="99" y="163" type="line"/>
    </contour>
  </outline>
</glyph>
<glyph name="ae" format="2">
  <advance width="953"/>
  <unicode hex="00E6"/>
  <note>
ae
</note>
  <anchor x="477" y="0" name="bottom"/>
  <anchor x="477" y="544" name="top"/>
  <outline>
    <contour>
      <point x="708" y="-8" type="curve" smooth="yes"/>
      <point x="780" y="-8"/>
      <point x="832" y="6"/>
      <point x="864" y="22" type="curve"/>
      <point x="864" y="104" type="line"/>
      <point x="856" y="104" type="line"/>
      <point x="828" y="88"/>
      <point x="780" y="72"/>
      <point x="712" y="72" type="curve" smooth="yes"/>
      <point x="589" y="72"/>
      <point x="502" y="120"/>
      <point x="502" y="274" type="curve" smooth="yes"/>
      <point x="502" y="280" type="line" smooth="yes"/>
      <point x="502" y="428"/>
      <point x="576" y="476"/>
      <point x="660" y="476" type="curve" smooth="yes"/>
      <point x="756" y="476"/>
      <point x="804" y="424"/>
      <point x="804" y="324" type="curve" smooth="yes"/>
      <point x="804" y="316" type="line"/>
      <point x="472" y="316" type="line"/>
      <point x="472" y="240" type="line"/>
      <point x="899" y="240" type="line"/>
      <point x="900" y="268" type="line" smooth="yes"/>
      <point x="906" y="440"/>
      <point x="836" y="556"/>
      <point x="660" y="556" type="curve" smooth="yes"/>
      <point x="508" y="556"/>
      <point x="408" y="444"/>
      <point x="408" y="274" type="curve" smooth="yes"/>
      <point x="408" y="92"/>
      <point x="504" y="-8"/>
    </contour>
    <contour>
      <point x="282" y="-12" type="curve" smooth="yes"/>
      <point x="382" y="-12"/>
      <point x="462" y="22"/>
      <point x="518" y="62" type="curve"/>
      <point x="482" y="128" type="line"/>
      <point x="474" y="128" type="line"/>
      <point x="430" y="92"/>
      <point x="370" y="66"/>
      <point x="282" y="66" type="curve" smooth="yes"/>
      <point x="194" y="66"/>
      <point x="142" y="92"/>
      <point x="142" y="160" type="curve" smooth="yes"/>
      <point x="142" y="232"/>
      <point x="194" y="256"/>
      <point x="302" y="256" type="curve" smooth="yes"/>
      <point x="346" y="256"/>
      <point x="386" y="248"/>
      <point x="414" y="240" type="curve"/>
      <point x="458" y="240" type="line"/>
      <point x="458" y="312" type="line"/>
      <point x="414" y="312" type="line"/>
      <point x="390" y="320"/>
      <point x="342" y="332"/>
      <point x="286" y="332" type="curve" smooth="yes"/>
      <point x="142" y="332"/>
      <point x="52" y="276"/>
      <point x="52" y="160" type="curve" smooth="yes"/>
      <point x="52" y="44"/>
      <point x="130" y="-12"/>
    </contour>
    <contour>
      <point x="410" y="248" type="line"/>
      <point x="502" y="248" type="line"/>
      <point x="502" y="332" type="line" smooth="yes"/>
      <point x="502" y="520"/>
      <point x="398" y="556"/>
      <point x="266" y="556" type="curve" smooth="yes"/>
      <point x="214" y="556"/>
      <point x="150" y="546"/>
      <point x="102" y="526" type="curve"/>
      <point x="102" y="444" type="line"/>
      <point x="110" y="444" type="line"/>
      <point x="142" y="460"/>
      <point x="202" y="476"/>
      <point x="254" y="476" type="curve" smooth="yes"/>
      <point x="358" y="476"/>
      <point x="410" y="456"/>
      <point x="410" y="328" type="curve" smooth="yes"/>
    </contour>
  </outline>
</glyph>
<glyph name="eth" format="2">
  <advance width="612"/>
  <unicode hex="00F0"/>
  <note>
eth
</note>
  <outline>
    <contour>
      <point x="472" y="295" type="curve"/>
      <point x="469" y="393" type="line"/>
      <point x="441" y="431"/>
      <point x="385" y="468"/>
      <point x="284" y="468" type="curve" smooth="yes"/>
      <point x="152" y="468"/>
      <point x="48" y="388"/>
      <point x="48" y="228" type="curve" smooth="yes"/>
      <point x="48" y="96"/>
      <point x="128" y="-12"/>
      <point x="288" y="-12" type="curve" smooth="yes"/>
      <point x="476" y="-12"/>
      <point x="556" y="132"/>
      <point x="556" y="348" type="curve" smooth="yes"/>
      <point x="556" y="612"/>
      <point x="416" y="732"/>
      <point x="228" y="732" type="curve" smooth="yes"/>
      <point x="172" y="732"/>
      <point x="132" y="724"/>
      <point x="100" y="712" type="curve"/>
      <point x="100" y="624" type="line"/>
      <point x="108" y="624" type="line"/>
      <point x="136" y="636"/>
      <point x="172" y="648"/>
      <point x="228" y="648" type="curve" smooth="yes"/>
      <point x="352" y="648"/>
      <point x="460" y="584"/>
      <point x="460" y="352" type="curve" smooth="yes"/>
      <point x="460" y="165"/>
      <point x="419" y="68"/>
      <point x="292" y="68" type="curve" smooth="yes"/>
      <point x="184" y="68"/>
      <point x="140" y="144"/>
      <point x="140" y="232" type="curve" smooth="yes"/>
      <point x="140" y="328"/>
      <point x="192" y="388"/>
      <point x="300" y="388" type="curve" smooth="yes"/>
      <point x="380" y="388"/>
      <point x="440" y="343"/>
    </contour>
    <contour>
      <point x="292" y="536" type="line"/>
      <point x="492" y="736" type="line"/>
      <point x="448" y="780" type="line"/>
      <point x="248" y="580" type="line"/>
    </contour>
  </outline>
</glyph>
<glyph name="ij" format="2">
  <advance width="568"/>
  <unicode hex="0133"/>
  <note>
ij
</note>
  <anchor x="142" y="544" name="_top"/>
  <anchor x="142" y="0" name="bottom"/>
  <anchor x="188" y="0" name="ogonek"/>
  <anchor x="142" y="544" name="top"/>
  <outline>
    <contour>
      <point x="96" y="0" type="line"/>
      <point x="188" y="0" type="line"/>
      <point x="188" y="544" type="line"/>
      <point x="90" y="544" type="line"/>
      <point x="88" y="536" type="line"/>
      <point x="96" y="500"/>
      <point x="96" y="412"/>
      <point x="96" y="372" type="curve" smooth="yes"/>
    </contour>
    <contour>
      <point x="142" y="640" type="curve" smooth="yes"/>
      <point x="176" y="640"/>
      <point x="202" y="664"/>
      <point x="202" y="700" type="curve" smooth="yes"/>
      <point x="202" y="736"/>
      <point x="176" y="760"/>
      <point x="142" y="760" type="curve" smooth="yes"/>
      <point x="108" y="760"/>
      <point x="82" y="736"/>
      <point x="82" y="700" type="curve" smooth="yes"/>
      <point x="82" y="664"/>
      <point x="108" y="640"/>
    </contour>
    <contour>
      <point x="280" y="-240" type="curve" smooth="yes"/>
      <point x="416" y="-240"/>
      <point x="472" y="-148"/>
      <point x="472" y="-48" type="curve" smooth="yes"/>
      <point x="472" y="544" type="line"/>
      <point x="374" y="544" type="line"/>
      <point x="372" y="536" type="line"/>
      <point x="380" y="500"/>
      <point x="380" y="412"/>
      <point x="380" y="372" type="curve" smooth="yes"/>
      <point x="380" y="-52" type="line" smooth="yes"/>
      <point x="380" y="-124"/>
      <point x="340" y="-160"/>
      <point x="276" y="-160" type="curve" smooth="yes"/>
      <point x="248" y="-160"/>
      <point x="228" y="-154"/>
      <point x="212" y="-148" type="curve"/>
      <point x="204" y="-148" type="line"/>
      <point x="204" y="-228" type="line"/>
      <point x="220" y="-234"/>
      <point x="244" y="-240"/>
    </contour>
    <contour>
      <point x="426" y="640" type="curve" smooth="yes"/>
      <point x="460" y="640"/>
      <point x="486" y="664"/>
      <point x="486" y="700" type="curve" smooth="yes"/>
      <point x="486" y="736"/>
      <point x="460" y="760"/>
      <point x="426" y="760" type="curve" smooth="yes"/>
      <point x="392" y="760"/>
      <point x="366" y="736"/>
      <point x="366" y="700" type="curve" smooth="yes"/>
      <point x="366" y="664"/>
      <point x="392" y="640"/>
    </contour>
  </outline>
</glyph>
<glyph name="Eng" format="2">
  <advance width="735"/>
  <unicode hex="014A"/>
  <note>
Eng
</note>
  <outline>
    <contour>
      <point x="96" y="0" type="line"/>
      <point x="192" y="0" type="line"/>
      <point x="192" y="606" type="line"/>
      <point x="166" y="595" type="line"/>
      <point x="590" y="148" type="line"/>
      <point x="590" y="283" type="line"/>
      <point x="176" y="720" type="line"/>
      <point x="96" y="720" type="line"/>
    </contour>
    <contour>
      <point x="419" y="-240" type="curve" smooth="yes"/>
      <point x="563" y="-240"/>
      <point x="639" y="-156"/>
      <point x="639" y="-24" type="curve" smooth="yes"/>
      <point x="639" y="722" type="line"/>
      <point x="543" y="722" type="line"/>
      <point x="543" y="-36" type="line" smooth="yes"/>
      <point x="543" y="-112"/>
      <point x="499" y="-156"/>
      <point x="419" y="-156" type="curve" smooth="yes"/>
      <point x="391" y="-156"/>
      <point x="343" y="-150"/>
      <point x="327" y="-144" type="curve"/>
      <point x="319" y="-144" type="line"/>
      <point x="319" y="-228" type="line"/>
      <point x="343" y="-234"/>
      <point x="383" y="-240"/>
    </contour>
  </outline>
</glyph>
<glyph name="OE" format="2">
  <advance width="1060"/>
  <unicode hex="0152"/>
  <note>
OE
</note>
  <outline>
    <contour>
      <point x="392" y="-12" type="curve" smooth="yes"/>
      <point x="600" y="-12"/>
      <point x="728" y="140"/>
      <point x="728" y="360" type="curve" smooth="yes"/>
      <point x="728" y="580"/>
      <point x="600" y="732"/>
      <point x="392" y="732" type="curve" smooth="yes"/>
      <point x="184" y="732"/>
      <point x="56" y="580"/>
      <point x="56" y="360" type="curve" smooth="yes"/>
      <point x="56" y="140"/>
      <point x="182" y="-12"/>
    </contour>
    <contour>
      <point x="392" y="76" type="curve" smooth="yes"/>
      <point x="248" y="76"/>
      <point x="156" y="176"/>
      <point x="156" y="360" type="curve" smooth="yes"/>
      <point x="156" y="544"/>
      <point x="248" y="644"/>
      <point x="392" y="644" type="curve" smooth="yes"/>
      <point x="536" y="644"/>
      <point x="628" y="544"/>
      <point x="628" y="360" type="curve" smooth="yes"/>
      <point x="628" y="176"/>
      <point x="536" y="76"/>
    </contour>
    <contour>
      <point x="484" y="0" type="line"/>
      <point x="1008" y="0" type="line"/>
      <point x="1008" y="84" type="line"/>
      <point x="484" y="84" type="line"/>
    </contour>
    <contour>
      <point x="676" y="336" type="line"/>
      <point x="940" y="336" type="line"/>
      <point x="940" y="420" type="line"/>
      <point x="676" y="420" type="line"/>
    </contour>
    <contour>
      <point x="476" y="636" type="line"/>
      <point x="996" y="636" type="line"/>
      <point x="996" y="720" type="line"/>
      <point x="476" y="720" type="line"/>
    </contour>
  </outline>
</glyph>
<glyph name="oe" format="2">
  <advance width="1003"/>
  <unicode hex="0153"/>
  <note>
oe
</note>
  <outline>
    <contour>
      <point x="52" y="274" type="curve" smooth="yes"/>
      <point x="52" y="96"/>
      <point x="150" y="-8"/>
      <point x="302" y="-8" type="curve" smooth="yes"/>
      <point x="450" y="-8"/>
      <point x="552" y="96"/>
      <point x="552" y="274" type="curve" smooth="yes"/>
      <point x="552" y="452"/>
      <point x="450" y="556"/>
      <point x="302" y="556" type="curve" smooth="yes"/>
      <point x="154" y="556"/>
      <point x="52" y="452"/>
    </contour>
    <contour>
      <point x="146" y="274" type="curve" smooth="yes"/>
      <point x="146" y="408"/>
      <point x="202" y="476"/>
      <point x="302" y="476" type="curve" smooth="yes"/>
      <point x="402" y="476"/>
      <point x="458" y="408"/>
      <point x="458" y="274" type="curve" smooth="yes"/>
      <point x="458" y="140"/>
      <point x="402" y="72"/>
      <point x="302" y="72" type="curve" smooth="yes"/>
      <point x="202" y="72"/>
      <point x="146" y="140"/>
    </contour>
    <contour>
      <point x="758" y="-8" type="curve" smooth="yes"/>
      <point x="830" y="-8"/>
      <point x="882" y="6"/>
      <point x="914" y="22" type="curve"/>
      <point x="914" y="104" type="line"/>
      <point x="906" y="104" type="line"/>
      <point x="878" y="88"/>
      <point x="830" y="72"/>
      <point x="762" y="72" type="curve" smooth="yes"/>
      <point x="639" y="72"/>
      <point x="552" y="120"/>
      <point x="552" y="274" type="curve" smooth="yes"/>
      <point x="552" y="280" type="line" smooth="yes"/>
      <point x="552" y="428"/>
      <point x="626" y="476"/>
      <point x="710" y="476" type="curve" smooth="yes"/>
      <point x="806" y="476"/>
      <point x="854" y="424"/>
      <point x="854" y="324" type="curve" smooth="yes"/>
      <point x="854" y="316" type="line"/>
      <point x="522" y="316" type="line"/>
      <point x="522" y="240" type="line"/>
      <point x="949" y="240" type="line"/>
      <point x="950" y="268" type="line" smooth="yes"/>
      <point x="956" y="440"/>
      <point x="886" y="556"/>
      <point x="710" y="556" type="curve" smooth="yes"/>
      <point x="558" y="556"/>
      <point x="458" y="444"/>
      <point x="458" y="274" type="curve" smooth="yes"/>
      <point x="458" y="92"/>
      <point x="554" y="-8"/>
    </contour>
  </outline>
</glyph>
<glyph name="longs" format="2">
  <advance width="308"/>
  <unicode hex="017F"/>
  <note>
longs
</note>
  <outline>
    <contour>
      <point x="24" y="544" type="line"/>
      <point x="24" y="464" type="line"/>
      <point x="108" y="464" type="line"/>
      <point x="108" y="0" type="line"/>
      <point x="200" y="0" type="line"/>
      <point x="200" y="560" type="line" smooth="yes"/>
      <point x="200" y="644"/>
      <point x="232" y="680"/>
      <point x="304" y="680" type="curve" smooth="yes"/>
      <point x="336" y="680"/>
      <point x="352" y="676"/>
      <point x="372" y="668" type="curve"/>
      <point x="380" y="668" type="line"/>
      <point x="380" y="748" type="line"/>
      <point x="360" y="756"/>
      <point x="336" y="760"/>
      <point x="304" y="760" type="curve" smooth="yes"/>
      <point x="171" y="760"/>
      <point x="108" y="687"/>
      <point x="108" y="544" type="curve"/>
    </contour>
  </outline>
</glyph>
<glyph name="florin" format="2">
  <advance width="616"/>
  <unicode hex="0192"/>
  <note>
florin
</note>
  <outline>
    <contour>
      <point x="104" y="-248" type="curve" smooth="yes"/>
      <point x="268" y="-248"/>
      <point x="332" y="-128"/>
      <point x="332" y="-4" type="curve" smooth="yes"/>
      <point x="332" y="488" type="line" smooth="yes"/>
      <point x="332" y="584"/>
      <point x="368" y="652"/>
      <point x="476" y="652" type="curve" smooth="yes"/>
      <point x="508" y="652"/>
      <point x="532" y="648"/>
      <point x="556" y="638" type="curve"/>
      <point x="560" y="638" type="line"/>
      <point x="560" y="720" type="line"/>
      <point x="536" y="728"/>
      <point x="512" y="732"/>
      <point x="468" y="732" type="curve" smooth="yes"/>
      <point x="304" y="732"/>
      <point x="240" y="612"/>
      <point x="240" y="488" type="curve" smooth="yes"/>
      <point x="240" y="-4" type="line" smooth="yes"/>
      <point x="240" y="-100"/>
      <point x="204" y="-168"/>
      <point x="96" y="-168" type="curve" smooth="yes"/>
      <point x="64" y="-168"/>
      <point x="40" y="-164"/>
      <point x="16" y="-154" type="curve"/>
      <point x="12" y="-154" type="line"/>
      <point x="12" y="-236" type="line"/>
      <point x="36" y="-244"/>
      <point x="60" y="-248"/>
    </contour>
    <contour>
      <point x="108" y="306" type="line"/>
      <point x="488" y="306" type="line"/>
      <point x="488" y="384" type="line"/>
      <point x="108" y="384" type="line"/>
    </contour>
  </outline>
</glyph>
<glyph name="Nj" format="2">
  <advance width="1020"/>
  <unicode hex="01CB"/>
  <anchor x="878" y="544" name="_top"/>
  <anchor x="368" y="0" name="bottom"/>
  <anchor x="368" y="720" name="top"/>
  <outline>
    <contour>
      <point x="96" y="0" type="line"/>
      <point x="192" y="0" type="line"/>
      <point x="192" y="568" type="line"/>
      <point x="544" y="196" type="line"/>
      <point x="544" y="0" type="line"/>
      <point x="640" y="0" type="line"/>
      <point x="640" y="720" type="line"/>
      <point x="544" y="720" type="line"/>
      <point x="544" y="332" type="line"/>
      <point x="176" y="720" type="line"/>
      <point x="96" y="720" type="line"/>
    </contour>
    <contour>
      <point x="732" y="-240" type="curve" smooth="yes"/>
      <point x="868" y="-240"/>
      <point x="924" y="-148"/>
      <point x="924" y="-48" type="curve" smooth="yes"/>
      <point x="924" y="544" type="line"/>
      <point x="826" y="544" type="line"/>
      <point x="824" y="536" type="line"/>
      <point x="832" y="500"/>
      <point x="832" y="412"/>
      <point x="832" y="372" type="curve" smooth="yes"/>
      <point x="832" y="-52" type="line" smooth="yes"/>
      <point x="832" y="-124"/>
      <point x="792" y="-160"/>
      <point x="728" y="-160" type="curve" smooth="yes"/>
      <point x="700" y="-160"/>
      <point x="680" y="-154"/>
      <point x="664" y="-148" type="curve"/>
      <point x="656" y="-148" type="line"/>
      <point x="656" y="-228" type="line"/>
      <point x="672" y="-234"/>
      <point x="696" y="-240"/>
    </contour>
    <contour>
      <point x="878" y="640" type="curve" smooth="yes"/>
      <point x="912" y="640"/>
      <point x="938" y="664"/>
      <point x="938" y="700" type="curve" smooth="yes"/>
      <point x="938" y="736"/>
      <point x="912" y="760"/>
      <point x="878" y="760" type="curve" smooth="yes"/>
      <point x="844" y="760"/>
      <point x="818" y="736"/>
      <point x="818" y="700" type="curve" smooth="yes"/>
      <point x="818" y="664"/>
      <point x="844" y="640"/>
    </contour>
  </outline>
</glyph>
<glyph name="nj" format="2">
  <advance width="924"/>
  <unicode hex="01CC"/>
  <anchor x="783" y="544" name="_top"/>
  <anchor x="320" y="0" name="bottom"/>
  <anchor x="320" y="544" name="top"/>
  <outline>
    <contour>
      <point x="96" y="0" type="line"/>
      <point x="188" y="0" type="line"/>
      <point x="188" y="396" type="line" smooth="yes"/>
      <point x="188" y="428"/>
      <point x="185" y="460"/>
      <point x="180" y="480" type="curve"/>
      <point x="164" y="452" type="line"/>
      <point x="200" y="465"/>
      <point x="253" y="476"/>
      <point x="296" y="476" type="curve" smooth="yes"/>
      <point x="396" y="476"/>
      <point x="456" y="444"/>
      <point x="456" y="312" type="curve" smooth="yes"/>
      <point x="456" y="0" type="line"/>
      <point x="548" y="0" type="line"/>
      <point x="548" y="320" type="line" smooth="yes"/>
      <point x="548" y="508"/>
      <point x="440" y="556"/>
      <point x="308" y="556" type="curve" smooth="yes"/>
      <point x="248" y="556"/>
      <point x="142" y="536"/>
      <point x="90" y="516" type="curve"/>
      <point x="88" y="508" type="line"/>
      <point x="96" y="472"/>
      <point x="96" y="384"/>
      <point x="96" y="344" type="curve" smooth="yes"/>
    </contour>
    <contour>
      <point x="636" y="-240" type="curve" smooth="yes"/>
      <point x="772" y="-240"/>
      <point x="828" y="-148"/>
      <point x="828" y="-48" type="curve" smooth="yes"/>
      <point x="828" y="544" type="line"/>
      <point x="730" y="544" type="line"/>
      <point x="728" y="536" type="line"/>
      <point x="736" y="500"/>
      <point x="736" y="412"/>
      <point x="736" y="372" type="curve" smooth="yes"/>
      <point x="736" y="-52" type="line" smooth="yes"/>
      <point x="736" y="-124"/>
      <point x="696" y="-160"/>
      <point x="632" y="-160" type="curve" smooth="yes"/>
      <point x="604" y="-160"/>
      <point x="584" y="-154"/>
      <point x="568" y="-148" type="curve"/>
      <point x="560" y="-148" type="line"/>
      <point x="560" y="-228" type="line"/>
      <point x="576" y="-234"/>
      <point x="600" y="-240"/>
    </contour>
    <contour>
      <point x="783" y="640" type="curve" smooth="yes"/>
      <point x="817" y="640"/>
      <point x="843" y="664"/>
      <point x="843" y="700" type="curve" smooth="yes"/>
      <point x="843" y="736"/>
      <point x="817" y="760"/>
      <point x="783" y="760" type="curve" smooth="yes"/>
      <point x="749" y="760"/>
      <point x="723" y="736"/>
      <point x="723" y="700" type="curve" smooth="yes"/>
      <point x="723" y="664"/>
      <point x="749" y="640"/>
    </contour>
  </outline>
</glyph>
<glyph name="primemod" format="2">
  <advance width="180"/>
  <unicode hex="02B9"/>
  <outline>
    <contour>
      <point x="68" y="720" type="line"/>
      <point x="22" y="484" type="line"/>
      <point x="98" y="484" type="line"/>
      <point x="152" y="720" type="line"/>
    </contour>
  </outline>
</glyph>
<glyph name="verticallinemod" format="2">
  <advance width="180"/>
  <unicode hex="02C8"/>
  <outline>
    <contour>
      <point x="52" y="484" type="line"/>
      <point x="128" y="484" type="line"/>
      <point x="132" y="760" type="line"/>
      <point x="48" y="760" type="line"/>
    </contour>
  </outline>
</glyph>
<glyph name="gravecomb" format="2">
  <unicode hex="0300"/>
  <note>
grave
</note>
  <anchor x="253" y="544" name="_top"/>
  <anchor x="253" y="760" name="top"/>
  <outline>
    <contour>
      <point x="280" y="604" type="line"/>
      <point x="356" y="604" type="line"/>
      <point x="356" y="608" type="line"/>
      <point x="265" y="760" type="line"/>
      <point x="149" y="760" type="line"/>
      <point x="149" y="756" type="line"/>
    </contour>
  </outline>
</glyph>
<glyph name="circumflexcomb" format="2">
  <unicode hex="0302"/>
  <note>
circumflex
</note>
  <anchor x="306" y="544" name="_top"/>
  <anchor x="306" y="760" name="top"/>
  <outline>
    <contour>
      <point x="140" y="604" type="line"/>
      <point x="216" y="604" type="line"/>
      <point x="306" y="700" type="line"/>
      <point x="396" y="604" type="line"/>
      <point x="472" y="604" type="line"/>
      <point x="472" y="608" type="line"/>
      <point x="360" y="760" type="line"/>
      <point x="252" y="760" type="line"/>
      <point x="140" y="608" type="line"/>
    </contour>
  </outline>
</glyph>
<glyph name="tildecomb" format="2">
  <unicode hex="0303"/>
  <note>
tilde
</note>
  <anchor x="306" y="544" name="_top"/>
  <anchor x="306" y="760" name="top"/>
  <outline>
    <contour>
      <point x="136" y="632" type="curve"/>
      <point x="196" y="632" type="line"/>
      <point x="196" y="668"/>
      <point x="204" y="700"/>
      <point x="236" y="700" type="curve" smooth="yes"/>
      <point x="258" y="700"/>
      <point x="272" y="688"/>
      <point x="288" y="672" type="curve" smooth="yes"/>
      <point x="309" y="651"/>
      <point x="336" y="632"/>
      <point x="376" y="632" type="curve" smooth="yes"/>
      <point x="440" y="632"/>
      <point x="476" y="688"/>
      <point x="476" y="760" type="curve"/>
      <point x="416" y="760" type="line"/>
      <point x="416" y="724"/>
      <point x="408" y="692"/>
      <point x="376" y="692" type="curve" smooth="yes"/>
      <point x="354" y="692"/>
      <point x="340" y="704"/>
      <point x="324" y="720" type="curve" smooth="yes"/>
      <point x="303" y="741"/>
      <point x="276" y="760"/>
      <point x="236" y="760" type="curve" smooth="yes"/>
      <point x="172" y="760"/>
      <point x="136" y="704"/>
    </contour>
  </outline>
</glyph>
<glyph name="dieresiscomb" format="2">
  <unicode hex="0308"/>
  <note>
dieresis
</note>
  <anchor x="306" y="544" name="_top"/>
  <anchor x="306" y="744" name="top"/>
  <outline>
    <contour>
      <point x="404" y="624" type="curve" smooth="yes"/>
      <point x="438" y="624"/>
      <point x="464" y="646"/>
      <point x="464" y="684" type="curve" smooth="yes"/>
      <point x="464" y="721"/>
      <point x="438" y="744"/>
      <point x="404" y="744" type="curve" smooth="yes"/>
      <point x="370" y="744"/>
      <point x="344" y="721"/>
      <point x="344" y="684" type="curve" smooth="yes"/>
      <point x="344" y="646"/>
      <point x="370" y="624"/>
    </contour>
    <contour>
      <point x="208" y="624" type="curve" smooth="yes"/>
      <point x="242" y="624"/>
      <point x="268" y="646"/>
      <point x="268" y="684" type="curve" smooth="yes"/>
      <point x="268" y="721"/>
      <point x="242" y="744"/>
      <point x="208" y="744" type="curve" smooth="yes"/>
      <point x="174" y="744"/>
      <point x="148" y="721"/>
      <point x="148" y="684" type="curve" smooth="yes"/>
      <point x="148" y="646"/>
      <point x="174" y="624"/>
    </contour>
  </outline>
</glyph>
<glyph name="hookabovecomb" format="2">
  <unicode hex="0309"/>
  <anchor x="306" y="544" name="_top"/>
  <anchor x="306" y="815" name="top"/>
  <outline>
    <contour>
      <point x="273" y="637" type="curve"/>
      <point x="321" y="623" type="line"/>
      <point x="344" y="669"/>
      <point x="403" y="686"/>
      <point x="396" y="748" type="curve" smooth="yes"/>
      <point x="392" y="785"/>
      <point x="360" y="815"/>
      <point x="315" y="815" type="curve" smooth="yes"/>
      <point x="264" y="815"/>
      <point x="234" y="785"/>
      <point x="215" y="749" type="curve"/>
      <point x="249" y="728" type="line"/>
      <point x="260" y="746"/>
      <point x="276" y="765"/>
      <point x="300" y="765" type="curve" smooth="yes"/>
      <point x="316" y="765"/>
      <point x="330" y="752"/>
      <point x="333" y="734" type="curve" smooth="yes"/>
      <point x="340" y="694"/>
      <point x="286" y="680"/>
    </contour>
  </outline>
</glyph>
<glyph name="horncomb" format="2">
  <unicode hex="031B"/>
  <anchor x="240" y="544" name="_topright"/>
  <anchor x="307" y="544" name="topright"/>
  <outline>
    <contour>
      <point x="242" y="476" type="line"/>
      <point x="354" y="476"/>
      <point x="374" y="536"/>
      <point x="373" y="616" type="curve"/>
      <point x="313" y="616" type="line"/>
      <point x="313" y="568"/>
      <point x="292" y="544"/>
      <point x="240" y="544" type="curve"/>
    </contour>
  </outline>
</glyph>
<glyph name="dieresisbelowcomb" format="2">
  <unicode hex="0324"/>
  <anchor x="306" y="0" name="_bottom"/>
  <anchor x="306" y="-204" name="bottom"/>
  <outline>
    <contour>
      <point x="404" y="-204" type="curve" smooth="yes"/>
      <point x="438" y="-204"/>
      <point x="464" y="-182"/>
      <point x="464" y="-144" type="curve" smooth="yes"/>
      <point x="464" y="-107"/>
      <point x="438" y="-84"/>
      <point x="404" y="-84" type="curve" smooth="yes"/>
      <point x="370" y="-84"/>
      <point x="344" y="-107"/>
      <point x="344" y="-144" type="curve" smooth="yes"/>
      <point x="344" y="-182"/>
      <point x="370" y="-204"/>
    </contour>
    <contour>
      <point x="208" y="-204" type="curve" smooth="yes"/>
      <point x="242" y="-204"/>
      <point x="268" y="-182"/>
      <point x="268" y="-144" type="curve" smooth="yes"/>
      <point x="268" y="-107"/>
      <point x="242" y="-84"/>
      <point x="208" y="-84" type="curve" smooth="yes"/>
      <point x="174" y="-84"/>
      <point x="148" y="-107"/>
      <point x="148" y="-144" type="curve" smooth="yes"/>
      <point x="148" y="-182"/>
      <point x="174" y="-204"/>
    </contour>
  </outline>
</glyph>
<glyph name="cedillacomb" format="2">
  <unicode hex="0327"/>
  <note>
cedilla
</note>
  <anchor x="306" y="0" name="_bottom"/>
  <anchor x="306" y="-248" name="bottom"/>
  <outline>
    <contour>
      <point x="352" y="24" type="line"/>
      <point x="288" y="24" type="line"/>
      <point x="288" y="-92" type="line"/>
      <point x="344" y="-92"/>
      <point x="380" y="-108"/>
      <point x="380" y="-140" type="curve" smooth="yes"/>
      <point x="380" y="-168"/>
      <point x="360" y="-180"/>
      <point x="320" y="-180" type="curve" smooth="yes"/>
      <point x="288" y="-180"/>
      <point x="280" y="-176"/>
      <point x="256" y="-168" type="curve"/>
      <point x="252" y="-168" type="line"/>
      <point x="252" y="-236" type="line"/>
      <point x="276" y="-244"/>
      <point x="292" y="-248"/>
      <point x="320" y="-248" type="curve" smooth="yes"/>
      <point x="404" y="-248"/>
      <point x="460" y="-212"/>
      <point x="460" y="-140" type="curve" smooth="yes"/>
      <point x="460" y="-84"/>
      <point x="424" y="-48"/>
      <point x="352" y="-40" type="curve"/>
    </contour>
  </outline>
</glyph>
<glyph name="ogonekcomb" format="2">
  <unicode hex="0328"/>
  <note>
ogonek
</note>
  <anchor x="352" y="0" name="_ogonek"/>
  <outline>
    <contour>
      <point x="209" y="-156" type="curve" smooth="yes"/>
      <point x="209" y="-212"/>
      <point x="243" y="-248"/>
      <point x="306" y="-248" type="curve" smooth="yes"/>
      <point x="324" y="-248"/>
      <point x="340" y="-246"/>
      <point x="353" y="-240" type="curve"/>
      <point x="353" y="-176" type="line"/>
      <point x="351" y="-176" type="line"/>
      <point x="340" y="-182"/>
      <point x="328" y="-184"/>
      <point x="316" y="-184" type="curve" smooth="yes"/>
      <point x="291" y="-184"/>
      <point x="279" y="-164"/>
      <point x="279" y="-140" type="curve" smooth="yes"/>
      <point x="279" y="-104"/>
      <point x="301" y="-62"/>
      <point x="352" y="0" type="curve"/>
      <point x="289" y="8" type="line"/>
      <point x="252" y="-36"/>
      <point x="209" y="-84"/>
    </contour>
  </outline>
</glyph>
<glyph name="macronbelowcomb" format="2">
  <unicode hex="0331"/>
  <anchor x="306" y="0" name="_bottom"/>
  <anchor x="306" y="-178" name="bottom"/>
  <outline>
    <contour>
      <point x="156" y="-104" type="line"/>
      <point x="156" y="-176" type="line"/>
      <point x="456" y="-176" type="line"/>
      <point x="456" y="-104" type="line"/>
    </contour>
  </outline>
</glyph>
<glyph name="strokeshortcomb" format="2">
  <unicode hex="0335"/>
  <anchor x="306" y="280" name="_center"/>
  <outline>
    <contour>
      <point x="454" y="312" type="line"/>
      <point x="158" y="312" type="line"/>
      <point x="158" y="248" type="line"/>
      <point x="454" y="248" type="line"/>
    </contour>
  </outline>
</glyph>
<glyph name="Delta" format="2">
  <advance width="630"/>
  <unicode hex="0394"/>
  <unicode hex="03B4"/>
  <note>
uni0394
</note>
  <outline>
    <contour>
      <point x="261" y="720" type="line"/>
      <point x="24" y="0" type="line"/>
      <point x="606" y="0" type="line"/>
      <point x="369" y="720" type="line"/>
    </contour>
    <contour>
      <point x="141" y="82" type="line"/>
      <point x="315" y="620" type="line"/>
      <point x="488" y="82" type="line"/>
    </contour>
  </outline>
</glyph>
<glyph name="Omega" format="2">
  <advance width="794"/>
  <unicode hex="03A9"/>
  <unicode hex="03C9"/>
  <note>
uni03A9
</note>
  <outline>
    <contour>
      <point x="48" y="81" type="line"/>
      <point x="48" y="0" type="line"/>
      <point x="333" y="0" type="line"/>
      <point x="333" y="73" type="line"/>
      <point x="225" y="121"/>
      <point x="156" y="241"/>
      <point x="156" y="383" type="curve" smooth="yes"/>
      <point x="156" y="534"/>
      <point x="237" y="651"/>
      <point x="397" y="651" type="curve" smooth="yes"/>
      <point x="556" y="651"/>
      <point x="638" y="534"/>
      <point x="638" y="383" type="curve" smooth="yes"/>
      <point x="638" y="241"/>
      <point x="569" y="121"/>
      <point x="461" y="73" type="curve"/>
      <point x="461" y="0" type="line"/>
      <point x="746" y="0" type="line"/>
      <point x="746" y="81" type="line"/>
      <point x="599" y="81" type="line"/>
      <point x="655" y="121"/>
      <point x="733" y="232"/>
      <point x="733" y="377" type="curve" smooth="yes"/>
      <point x="733" y="575"/>
      <point x="616" y="732"/>
      <point x="397" y="732" type="curve" smooth="yes"/>
      <point x="177" y="732"/>
      <point x="61" y="575"/>
      <point x="61" y="377" type="curve" smooth="yes"/>
      <point x="61" y="232"/>
      <point x="138" y="121"/>
      <point x="195" y="81" type="curve"/>
    </contour>
  </outline>
</glyph>
<glyph name="mu" format="2">
  <advance width="644"/>
  <unicode hex="03BC"/>
  <note>
uni03BC
</note>
  <anchor x="328" y="0" name="bottom"/>
  <anchor x="554" y="24" name="ogonek"/>
  <anchor x="328" y="544" name="top"/>
  <anchor x="481" y="544" name="topright"/>
  <outline>
    <contour>
      <point x="96" y="-232" type="line"/>
      <point x="194" y="-232" type="line"/>
      <point x="196" y="-224" type="line"/>
      <point x="188" y="-188"/>
      <point x="188" y="-100"/>
      <point x="188" y="-60" type="curve" smooth="yes"/>
      <point x="188" y="358" type="line"/>
      <point x="96" y="358" type="line"/>
    </contour>
    <component base="u" xOffset="12"/>
  </outline>
</glyph>
<glyph name="pagenumber-ar" format="2">
  <advance width="1645"/>
  <unicode hex="0603"/>
  <outline>
    <contour>
      <point x="667" y="85" type="line"/>
      <point x="667" y="0" type="line"/>
      <point x="1383" y="0" type="line" smooth="yes"/>
      <point x="1521" y="0"/>
      <point x="1585" y="75"/>
      <point x="1585" y="179" type="curve" smooth="yes"/>
      <point x="1585" y="273"/>
      <point x="1522" y="359"/>
      <point x="1473" y="406" type="curve"/>
      <point x="1461" y="406" type="line"/>
      <point x="1421" y="395"/>
      <point x="1361" y="394"/>
      <point x="1309" y="394" type="curve" smooth="yes"/>
      <point x="729" y="394" type="line"/>
      <point x="695" y="309" type="line"/>
      <point x="1309" y="309" type="line" smooth="yes"/>
      <point x="1380" y="309"/>
      <point x="1400" y="310"/>
      <point x="1460" y="322" type="curve"/>
      <point x="1411" y="342" type="line"/>
      <point x="1464" y="292"/>
      <point x="1493" y="223"/>
      <point x="1493" y="173" type="curve" smooth="yes"/>
      <point x="1493" y="106"/>
      <point x="1454" y="85"/>
      <point x="1404" y="85" type="curve" smooth="yes"/>
    </contour>
    <contour>
      <point x="23" y="85" type="line"/>
      <point x="23" y="0" type="line"/>
      <point x="831" y="0" type="line"/>
      <point x="851" y="20" type="line"/>
      <point x="851" y="85" type="line"/>
      <point x="665" y="85" type="line"/>
      <point x="703" y="42" type="line"/>
      <point x="703" y="440" type="line"/>
      <point x="695" y="440" type="line"/>
      <point x="611" y="428" type="line"/>
      <point x="611" y="160" type="line" smooth="yes"/>
      <point x="611" y="118"/>
      <point x="618" y="83"/>
      <point x="623" y="64" type="curve"/>
      <point x="657" y="85" type="line"/>
    </contour>
  </outline>
</glyph>
<glyph name="hamza-ar" format="2">
  <advance width="428"/>
  <unicode hex="0621"/>
  <note>
uni0621
</note>
  <outline>
    <contour>
      <point x="40" y="188" type="curve" smooth="yes"/>
      <point x="40" y="96"/>
      <point x="115" y="0"/>
      <point x="262" y="0" type="curve" smooth="yes"/>
      <point x="360" y="0" type="line"/>
      <point x="380" y="68" type="line"/>
      <point x="380" y="80" type="line"/>
      <point x="292" y="80" type="line" smooth="yes"/>
      <point x="183" y="80"/>
      <point x="113" y="136"/>
      <point x="111" y="218" type="curve"/>
      <point x="82" y="196" type="line"/>
      <point x="104" y="179" type="line"/>
      <point x="122" y="261"/>
      <point x="193" y="324"/>
      <point x="298" y="324" type="curve" smooth="yes"/>
      <point x="368" y="324" type="line"/>
      <point x="384" y="392" type="line"/>
      <point x="384" y="404" type="line"/>
      <point x="312" y="404" type="line" smooth="yes"/>
      <point x="142" y="404"/>
      <point x="40" y="304"/>
    </contour>
  </outline>
</glyph>
<glyph name="alef-ar" format="2">
  <advance width="284"/>
  <unicode hex="0627"/>
  <note>
uni0627
</note>
  <anchor x="188" y="0" name="*entry"/>
  <anchor x="143" y="0" name="bottom"/>
  <anchor x="143" y="798" name="top"/>
  <outline>
    <contour>
      <point x="96" y="748" type="line"/>
      <point x="96" y="0" type="line"/>
      <point x="188" y="0" type="line"/>
      <point x="188" y="604" type="line" smooth="yes"/>
      <point x="188" y="644"/>
      <point x="188" y="716"/>
      <point x="196" y="752" type="curve"/>
      <point x="196" y="760" type="line"/>
    </contour>
  </outline>
</glyph>
<glyph name="kaf-ar" format="2">
  <advance width="1068"/>
  <unicode hex="0643"/>
  <note>
uni0643
</note>
  <anchor x="880" y="0" name="*entry"/>
  <anchor x="556" y="0" name="bottom"/>
  <anchor x="571" y="571" name="top"/>
  <outline>
    <contour>
      <point x="972" y="-1" type="line"/>
      <point x="972" y="604" type="line" smooth="yes"/>
      <point x="972" y="644"/>
      <point x="972" y="716"/>
      <point x="980" y="752" type="curve"/>
      <point x="980" y="760" type="line"/>
      <point x="880" y="748" type="line"/>
      <point x="880" y="69" type="line"/>
      <point x="908" y="85" type="line"/>
      <point x="556" y="85" type="line" smooth="yes"/>
      <point x="417" y="85"/>
      <point x="273" y="86"/>
      <point x="176" y="115" type="curve" smooth="yes"/>
      <point x="153" y="122"/>
      <point x="96" y="139"/>
      <point x="74" y="150" type="curve"/>
      <point x="66" y="150" type="line"/>
      <point x="48" y="69" type="line"/>
      <point x="73" y="58"/>
      <point x="108" y="46"/>
      <point x="147" y="35" type="curve" smooth="yes"/>
      <point x="259" y="3"/>
      <point x="386" y="0"/>
      <point x="508" y="0" type="curve" smooth="yes"/>
    </contour>
    <contour>
      <point x="636" y="450" type="curve" smooth="yes"/>
      <point x="596" y="468" type="line" smooth="yes"/>
      <point x="573" y="478"/>
      <point x="560" y="485"/>
      <point x="559" y="496" type="curve"/>
      <point x="551" y="481" type="line"/>
      <point x="563" y="493"/>
      <point x="578" y="498"/>
      <point x="601" y="506" type="curve" smooth="yes"/>
      <point x="655" y="524" type="line"/>
      <point x="659" y="582" type="line"/>
      <point x="655" y="589" type="line"/>
      <point x="601" y="571" type="line" smooth="yes"/>
      <point x="536" y="549"/>
      <point x="502" y="523"/>
      <point x="502" y="481" type="curve" smooth="yes"/>
      <point x="502" y="452"/>
      <point x="517" y="433"/>
      <point x="549" y="418" type="curve" smooth="yes"/>
      <point x="584" y="401" type="line" smooth="yes"/>
      <point x="598" y="394"/>
      <point x="605" y="391"/>
      <point x="605" y="383" type="curve" smooth="yes"/>
      <point x="605" y="374"/>
      <point x="599" y="368"/>
      <point x="583" y="368" type="curve" smooth="yes"/>
      <point x="480" y="368" type="line"/>
      <point x="461" y="309" type="line"/>
      <point x="461" y="297" type="line"/>
      <point x="556" y="297" type="line" smooth="yes"/>
      <point x="641" y="297"/>
      <point x="686" y="331"/>
      <point x="686" y="384" type="curve" smooth="yes"/>
      <point x="686" y="420"/>
      <point x="666" y="437"/>
    </contour>
  </outline>
</glyph>
<glyph name="zero-ar" format="2">
  <advance width="360"/>
  <unicode hex="0660"/>
  <note>
uni0660
</note>
  <outline>
    <contour>
      <point x="180" y="287" type="curve" smooth="yes"/>
      <point x="215" y="287"/>
      <point x="240" y="311"/>
      <point x="240" y="347" type="curve" smooth="yes"/>
      <point x="240" y="383"/>
      <point x="215" y="407"/>
      <point x="180" y="407" type="curve" smooth="yes"/>
      <point x="145" y="407"/>
      <point x="120" y="383"/>
      <point x="120" y="347" type="curve" smooth="yes"/>
      <point x="120" y="311"/>
      <point x="145" y="287"/>
    </contour>
  </outline>
</glyph>
<glyph name="four-ar" format="2">
  <advance width="502"/>
  <unicode hex="0664"/>
  <note>
uni0664
</note>
  <outline>
    <contour>
      <point x="56" y="185" type="curve" smooth="yes"/>
      <point x="56" y="72"/>
      <point x="149" y="0"/>
      <point x="274" y="0" type="curve" smooth="yes"/>
      <point x="459" y="0" type="line"/>
      <point x="486" y="77" type="line"/>
      <point x="486" y="85" type="line"/>
      <point x="319" y="85" type="line" smooth="yes"/>
      <point x="195" y="85"/>
      <point x="139" y="118"/>
      <point x="115" y="198" type="curve"/>
      <point x="98" y="173" type="line"/>
      <point x="119" y="154" type="line"/>
      <point x="129" y="237"/>
      <point x="186" y="309"/>
      <point x="317" y="309" type="curve" smooth="yes"/>
      <point x="372" y="309" type="line"/>
      <point x="400" y="387" type="line"/>
      <point x="400" y="394" type="line"/>
      <point x="270" y="394" type="line" smooth="yes"/>
      <point x="231" y="394"/>
      <point x="151" y="402"/>
      <point x="151" y="463" type="curve" smooth="yes"/>
      <point x="151" y="522"/>
      <point x="199" y="567"/>
      <point x="386" y="684" type="curve"/>
      <point x="361" y="763" type="line"/>
      <point x="353" y="763" type="line"/>
      <point x="154" y="640"/>
      <point x="59" y="561"/>
      <point x="59" y="460" type="curve" smooth="yes"/>
      <point x="59" y="391"/>
      <point x="118" y="345"/>
      <point x="179" y="335" type="curve"/>
      <point x="186" y="358" type="line"/>
      <point x="85" y="311"/>
      <point x="56" y="223"/>
    </contour>
  </outline>
</glyph>
<glyph name="seven-ar" format="2">
  <advance width="593"/>
  <unicode hex="0667"/>
  <note>
uni0667
</note>
  <outline>
    <contour>
      <point x="237" y="0" type="line"/>
      <point x="342" y="-1" type="line"/>
      <point x="569" y="741" type="line"/>
      <point x="569" y="749" type="line"/>
      <point x="474" y="749" type="line"/>
      <point x="286" y="73" type="line"/>
      <point x="312" y="74" type="line"/>
      <point x="129" y="750" type="line"/>
      <point x="24" y="750" type="line"/>
    </contour>
  </outline>
</glyph>
<glyph name="decimalseparator-ar" format="2">
  <advance width="276"/>
  <unicode hex="066B"/>
  <note>
uni066B
</note>
  <outline>
    <contour>
      <point x="49" y="73" type="curve" smooth="yes"/>
      <point x="49" y="41"/>
      <point x="72" y="20"/>
      <point x="108" y="19" type="curve"/>
      <point x="96" y="-21"/>
      <point x="58" y="-49"/>
      <point x="58" y="-49" type="curve"/>
      <point x="58" y="-57" type="line"/>
      <point x="104" y="-75" type="line"/>
      <point x="147" y="-50"/>
      <point x="182" y="0"/>
      <point x="182" y="48" type="curve" smooth="yes"/>
      <point x="182" y="100"/>
      <point x="152" y="132"/>
      <point x="111" y="132" type="curve" smooth="yes"/>
      <point x="73" y="132"/>
      <point x="49" y="106"/>
    </contour>
  </outline>
</glyph>
<glyph name="keheh-ar" format="2">
  <advance width="1396"/>
  <unicode hex="06A9"/>
  <note>
uni06A9
</note>
  <anchor x="1034" y="0" name="*entry"/>
  <anchor x="812" y="0" name="bottom"/>
  <anchor x="388" y="382" name="kafbar"/>
  <anchor x="717" y="600" name="ring"/>
  <anchor x="402" y="560" name="top"/>
  <outline>
    <contour>
      <point x="482" y="368" type="line"/>
      <point x="809" y="678" type="line"/>
      <point x="768" y="740" type="line"/>
      <point x="760" y="740" type="line"/>
      <point x="388" y="382" type="line"/>
      <point x="391" y="325"/>
      <point x="422" y="309"/>
      <point x="452" y="309" type="curve" smooth="yes"/>
      <point x="1060" y="309" type="line" smooth="yes"/>
      <point x="1131" y="309"/>
      <point x="1151" y="310"/>
      <point x="1211" y="322" type="curve"/>
      <point x="1162" y="342" type="line"/>
      <point x="1215" y="292"/>
      <point x="1244" y="223"/>
      <point x="1244" y="173" type="curve" smooth="yes"/>
      <point x="1244" y="106"/>
      <point x="1192" y="85"/>
      <point x="1125" y="85" type="curve" smooth="yes"/>
      <point x="552" y="85" type="line" smooth="yes"/>
      <point x="413" y="85"/>
      <point x="269" y="87"/>
      <point x="172" y="115" type="curve" smooth="yes"/>
      <point x="149" y="122"/>
      <point x="92" y="139"/>
      <point x="70" y="150" type="curve"/>
      <point x="62" y="150" type="line"/>
      <point x="44" y="69" type="line"/>
      <point x="69" y="58"/>
      <point x="104" y="46"/>
      <point x="143" y="35" type="curve" smooth="yes"/>
      <point x="255" y="4"/>
      <point x="382" y="0"/>
      <point x="504" y="0" type="curve" smooth="yes"/>
      <point x="1104" y="0" type="line" smooth="yes"/>
      <point x="1262" y="0"/>
      <point x="1336" y="75"/>
      <point x="1336" y="179" type="curve" smooth="yes"/>
      <point x="1336" y="273"/>
      <point x="1273" y="359"/>
      <point x="1224" y="406" type="curve"/>
      <point x="1212" y="406" type="line"/>
      <point x="1172" y="395"/>
      <point x="1112" y="394"/>
      <point x="1060" y="394" type="curve" smooth="yes"/>
      <point x="466" y="394" type="line"/>
    </contour>
  </outline>
</glyph>
<glyph name="zero-persian" format="2">
  <advance width="360"/>
  <unicode hex="06F0"/>
  <note>
uni06F0
</note>
  <outline>
    <contour>
      <point x="180" y="287" type="curve" smooth="yes"/>
      <point x="215" y="287"/>
      <point x="240" y="311"/>
      <point x="240" y="347" type="curve" smooth="yes"/>
      <point x="240" y="383"/>
      <point x="215" y="407"/>
      <point x="180" y="407" type="curve" smooth="yes"/>
      <point x="145" y="407"/>
      <point x="120" y="383"/>
      <point x="120" y="347" type="curve" smooth="yes"/>
      <point x="120" y="311"/>
      <point x="145" y="287"/>
    </contour>
  </outline>
</glyph>
<glyph name="five-persian" format="2">
  <advance width="698"/>
  <unicode hex="06F5"/>
  <note>
uni06F5
</note>
  <outline>
    <contour>
      <point x="646" y="214" type="curve"/>
      <point x="646" y="424"/>
      <point x="525" y="595"/>
      <point x="358" y="693" type="curve"/>
      <point x="350" y="693" type="line"/>
      <point x="141" y="572"/>
      <point x="52" y="387"/>
      <point x="52" y="234" type="curve" smooth="yes"/>
      <point x="52" y="100"/>
      <point x="137" y="15"/>
      <point x="216" y="15" type="curve" smooth="yes"/>
      <point x="261" y="15"/>
      <point x="313" y="38"/>
      <point x="349" y="106" type="curve"/>
      <point x="332" y="147" type="line"/>
      <point x="348" y="63"/>
      <point x="412" y="16"/>
      <point x="481" y="16" type="curve" smooth="yes"/>
      <point x="558" y="16"/>
      <point x="646" y="85"/>
    </contour>
    <contour>
      <point x="600" y="193" type="line"/>
      <point x="573" y="115"/>
      <point x="532" y="92"/>
      <point x="481" y="94" type="curve" smooth="yes"/>
      <point x="461" y="94"/>
      <point x="424" y="104"/>
      <point x="388" y="124" type="curve"/>
      <point x="424" y="71" type="line"/>
      <point x="403" y="105"/>
      <point x="392" y="136"/>
      <point x="392" y="203" type="curve" smooth="yes"/>
      <point x="392" y="254" type="line"/>
      <point x="385" y="254" type="line"/>
      <point x="313" y="241" type="line"/>
      <point x="313" y="187" type="line" smooth="yes"/>
      <point x="313" y="138"/>
      <point x="306" y="107"/>
      <point x="298" y="81" type="curve"/>
      <point x="314" y="118" type="line"/>
      <point x="288" y="103"/>
      <point x="265" y="98"/>
      <point x="245" y="98" type="curve" smooth="yes"/>
      <point x="168" y="101"/>
      <point x="144" y="183"/>
      <point x="144" y="258" type="curve" smooth="yes"/>
      <point x="144" y="431"/>
      <point x="277" y="546"/>
      <point x="373" y="606" type="curve"/>
      <point x="313" y="615" type="line"/>
      <point x="475" y="540"/>
      <point x="571" y="361"/>
      <point x="574" y="115" type="curve"/>
    </contour>
  </outline>
</glyph>
<glyph name="endash" format="2">
  <advance width="500"/>
  <unicode hex="2013"/>
  <note>
endash
</note>
  <outline>
    <contour>
      <point x="16" y="372" type="line"/>
      <point x="16" y="292" type="line"/>
      <point x="484" y="292" type="line"/>
      <point x="484" y="372" type="line"/>
    </contour>
  </outline>
</glyph>
<glyph name="emdash" format="2">
  <advance width="1000"/>
  <unicode hex="2014"/>
  <note>
emdash
</note>
  <outline>
    <contour>
      <point x="16" y="372" type="line"/>
      <point x="16" y="292" type="line"/>
      <point x="984" y="292" type="line"/>
      <point x="984" y="372" type="line"/>
    </contour>
  </outline>
</glyph>
<glyph name="ellipsis" format="2">
  <advance width="840"/>
  <unicode hex="2026"/>
  <note>
ellipsis
</note>
  <outline>
    <contour>
      <point x="140" y="-8" type="curve" smooth="yes"/>
      <point x="176" y="-8"/>
      <point x="204" y="16"/>
      <point x="204" y="56" type="curve" smooth="yes"/>
      <point x="204" y="96"/>
      <point x="176" y="120"/>
      <point x="140" y="120" type="curve" smooth="yes"/>
      <point x="104" y="120"/>
      <point x="76" y="96"/>
      <point x="76" y="56" type="curve" smooth="yes"/>
      <point x="76" y="16"/>
      <point x="104" y="-8"/>
    </contour>
    <contour>
      <point x="420" y="-8" type="curve" smooth="yes"/>
      <point x="456" y="-8"/>
      <point x="484" y="16"/>
      <point x="484" y="56" type="curve" smooth="yes"/>
      <point x="484" y="96"/>
      <point x="456" y="120"/>
      <point x="420" y="120" type="curve" smooth="yes"/>
      <point x="384" y="120"/>
      <point x="356" y="96"/>
      <point x="356" y="56" type="curve" smooth="yes"/>
      <point x="356" y="16"/>
      <point x="384" y="-8"/>
    </contour>
    <contour>
      <point x="700" y="-8" type="curve" smooth="yes"/>
      <point x="736" y="-8"/>
      <point x="764" y="16"/>
      <point x="764" y="56" type="curve" smooth="yes"/>
      <point x="764" y="96"/>
      <point x="736" y="120"/>
      <point x="700" y="120" type="curve" smooth="yes"/>
      <point x="664" y="120"/>
      <point x="636" y="96"/>
      <point x="636" y="56" type="curve" smooth="yes"/>
      <point x="636" y="16"/>
      <point x="664" y="-8"/>
    </contour>
  </outline>
</glyph>
<glyph name="zeroinferior" format="2">
  <advance width="398"/>
  <unicode hex="2080"/>
  <note>
uni2080
</note>
  <outline>
    <contour>
      <point x="199" y="-168" type="curve" smooth="yes"/>
      <point x="314" y="-168"/>
      <point x="361" y="-79"/>
      <point x="361" y="40" type="curve" smooth="yes"/>
      <point x="361" y="159"/>
      <point x="314" y="248"/>
      <point x="199" y="248" type="curve" smooth="yes"/>
      <point x="84" y="248"/>
      <point x="37" y="159"/>
      <point x="37" y="40" type="curve" smooth="yes"/>
      <point x="37" y="-79"/>
      <point x="84" y="-168"/>
    </contour>
    <contour>
      <point x="199" y="-101" type="curve" smooth="yes"/>
      <point x="142" y="-101"/>
      <point x="120" y="-48"/>
      <point x="120" y="40" type="curve" smooth="yes"/>
      <point x="120" y="127"/>
      <point x="142" y="181"/>
      <point x="199" y="181" type="curve" smooth="yes"/>
      <point x="256" y="181"/>
      <point x="278" y="127"/>
      <point x="278" y="40" type="curve" smooth="yes"/>
      <point x="278" y="-48"/>
      <point x="256" y="-101"/>
    </contour>
  </outline>
</glyph>
<glyph name="twoinferior" format="2">
  <advance width="397"/>
  <unicode hex="2082"/>
  <note>
uni2082
</note>
  <outline>
    <contour>
      <point x="51" y="-160" type="curve"/>
      <point x="346" y="-160" type="line"/>
      <point x="346" y="-94" type="line"/>
      <point x="120" y="-94" type="line"/>
      <point x="121" y="-61"/>
      <point x="139" y="-40"/>
      <point x="191" y="-25" type="curve"/>
      <point x="219" y="-18" type="line"/>
      <point x="297" y="6"/>
      <point x="337" y="44"/>
      <point x="337" y="116" type="curve" smooth="yes"/>
      <point x="337" y="189"/>
      <point x="289" y="248"/>
      <point x="171" y="248" type="curve" smooth="yes"/>
      <point x="127" y="248"/>
      <point x="83" y="240"/>
      <point x="58" y="230" type="curve"/>
      <point x="58" y="162" type="line"/>
      <point x="65" y="162" type="line"/>
      <point x="87" y="172"/>
      <point x="122" y="182"/>
      <point x="162" y="182" type="curve" smooth="yes"/>
      <point x="226" y="182"/>
      <point x="259" y="155"/>
      <point x="259" y="115" type="curve" smooth="yes"/>
      <point x="259" y="76"/>
      <point x="241" y="56"/>
      <point x="191" y="43" type="curve"/>
      <point x="162" y="34" type="line" smooth="yes"/>
      <point x="71" y="8"/>
      <point x="40" y="-40"/>
      <point x="40" y="-105" type="curve" smooth="yes"/>
      <point x="40" y="-122"/>
      <point x="44" y="-147"/>
    </contour>
  </outline>
</glyph>
<glyph name="threeinferior" format="2">
  <advance width="397"/>
  <unicode hex="2083"/>
  <note>
uni2083
</note>
  <outline>
    <contour>
      <point x="163" y="-168" type="curve" smooth="yes"/>
      <point x="278" y="-168"/>
      <point x="343" y="-115"/>
      <point x="343" y="-39" type="curve" smooth="yes"/>
      <point x="343" y="21"/>
      <point x="300" y="66"/>
      <point x="216" y="75" type="curve"/>
      <point x="303" y="163" type="line" smooth="yes"/>
      <point x="319" y="179"/>
      <point x="326" y="196"/>
      <point x="326" y="214" type="curve" smooth="yes"/>
      <point x="326" y="220"/>
      <point x="325" y="229"/>
      <point x="323" y="235" type="curve"/>
      <point x="315" y="240" type="line"/>
      <point x="57" y="240" type="line"/>
      <point x="57" y="173" type="line"/>
      <point x="220" y="173" type="line"/>
      <point x="109" y="51" type="line"/>
      <point x="125" y="21" type="line"/>
      <point x="174" y="21" type="line" smooth="yes"/>
      <point x="234" y="21"/>
      <point x="262" y="-4"/>
      <point x="262" y="-39" type="curve" smooth="yes"/>
      <point x="262" y="-73"/>
      <point x="237" y="-102"/>
      <point x="162" y="-102" type="curve" smooth="yes"/>
      <point x="116" y="-102"/>
      <point x="83" y="-90"/>
      <point x="62" y="-77" type="curve"/>
      <point x="53" y="-77" type="line"/>
      <point x="53" y="-147" type="line"/>
      <point x="78" y="-158"/>
      <point x="117" y="-168"/>
    </contour>
  </outline>
</glyph>
<glyph name="sixinferior" format="2">
  <advance width="398"/>
  <unicode hex="2086"/>
  <note>
uni2086
</note>
  <outline>
    <contour>
      <point x="205" y="-168" type="curve" smooth="yes"/>
      <point x="300" y="-168"/>
      <point x="358" y="-113"/>
      <point x="358" y="-29" type="curve" smooth="yes"/>
      <point x="358" y="49"/>
      <point x="307" y="101"/>
      <point x="220" y="101" type="curve" smooth="yes"/>
      <point x="172" y="101"/>
      <point x="143" y="88"/>
      <point x="125" y="74" type="curve"/>
      <point x="133" y="139"/>
      <point x="166" y="183"/>
      <point x="249" y="183" type="curve" smooth="yes"/>
      <point x="278" y="183"/>
      <point x="302" y="176"/>
      <point x="317" y="170" type="curve"/>
      <point x="325" y="170" type="line"/>
      <point x="325" y="238" type="line"/>
      <point x="309" y="244"/>
      <point x="282" y="248"/>
      <point x="252" y="248" type="curve" smooth="yes"/>
      <point x="104" y="248"/>
      <point x="40" y="156"/>
      <point x="40" y="32" type="curve" smooth="yes"/>
      <point x="40" y="-81"/>
      <point x="80" y="-168"/>
    </contour>
    <contour>
      <point x="204" y="-104" type="curve" smooth="yes"/>
      <point x="144" y="-104"/>
      <point x="126" y="-65"/>
      <point x="123" y="11" type="curve"/>
      <point x="141" y="28"/>
      <point x="165" y="41"/>
      <point x="204" y="41" type="curve" smooth="yes"/>
      <point x="256" y="41"/>
      <point x="281" y="12"/>
      <point x="281" y="-31" type="curve" smooth="yes"/>
      <point x="281" y="-71"/>
      <point x="257" y="-104"/>
    </contour>
  </outline>
</glyph>
<glyph name="eightinferior" format="2">
  <advance width="397"/>
  <unicode hex="2088"/>
  <note>
uni2088
</note>
  <outline>
    <contour>
      <point x="198" y="-168" type="curve" smooth="yes"/>
      <point x="296" y="-168"/>
      <point x="357" y="-122"/>
      <point x="357" y="-51" type="curve" smooth="yes"/>
      <point x="357" y="-8"/>
      <point x="330" y="23"/>
      <point x="291" y="44" type="curve"/>
      <point x="322" y="64"/>
      <point x="348" y="97"/>
      <point x="348" y="137" type="curve" smooth="yes"/>
      <point x="348" y="201"/>
      <point x="300" y="248"/>
      <point x="205" y="248" type="curve" smooth="yes"/>
      <point x="98" y="248"/>
      <point x="52" y="196"/>
      <point x="52" y="135" type="curve" smooth="yes"/>
      <point x="52" y="94"/>
      <point x="72" y="66"/>
      <point x="105" y="47" type="curve"/>
      <point x="65" y="26"/>
      <point x="37" y="-8"/>
      <point x="37" y="-52" type="curve" smooth="yes"/>
      <point x="37" y="-120"/>
      <point x="89" y="-168"/>
    </contour>
    <contour>
      <point x="200" y="-105" type="curve" smooth="yes"/>
      <point x="149" y="-105"/>
      <point x="116" y="-85"/>
      <point x="116" y="-46" type="curve" smooth="yes"/>
      <point x="116" y="-15"/>
      <point x="135" y="9"/>
      <point x="162" y="24" type="curve"/>
      <point x="248" y="0"/>
      <point x="277" y="-13"/>
      <point x="277" y="-51" type="curve" smooth="yes"/>
      <point x="277" y="-84"/>
      <point x="251" y="-105"/>
    </contour>
    <contour>
      <point x="232" y="68" type="curve"/>
      <point x="153" y="91"/>
      <point x="129" y="102"/>
      <point x="129" y="138" type="curve" smooth="yes"/>
      <point x="129" y="167"/>
      <point x="154" y="188"/>
      <point x="199" y="188" type="curve" smooth="yes"/>
      <point x="248" y="188"/>
      <point x="272" y="165"/>
      <point x="272" y="130" type="curve" smooth="yes"/>
      <point x="272" y="101"/>
      <point x="253" y="80"/>
    </contour>
  </outline>
</glyph>
<glyph name="franc" format="2">
  <advance width="572"/>
  <unicode hex="20A3"/>
  <outline>
    <contour>
      <point x="96" y="0" type="line"/>
      <point x="192" y="0" type="line"/>
      <point x="192" y="720" type="line"/>
      <point x="96" y="720" type="line"/>
    </contour>
    <contour>
      <point x="152" y="300" type="line"/>
      <point x="484" y="300" type="line"/>
      <point x="484" y="384" type="line"/>
      <point x="152" y="384" type="line"/>
    </contour>
    <contour>
      <point x="152" y="636" type="line"/>
      <point x="540" y="636" type="line"/>
      <point x="540" y="720" type="line"/>
      <point x="152" y="720" type="line"/>
    </contour>
    <contour>
      <point x="12" y="128" type="line"/>
      <point x="308" y="128" type="line"/>
      <point x="308" y="208" type="line"/>
      <point x="12" y="208" type="line"/>
    </contour>
  </outline>
</glyph>
<glyph name="naira" format="2">
  <advance width="724"/>
  <unicode hex="20A6"/>
  <outline>
    <contour>
      <point x="96" y="0" type="line"/>
      <point x="192" y="0" type="line"/>
      <point x="192" y="606" type="line"/>
      <point x="156" y="595" type="line"/>
      <point x="548" y="0" type="line"/>
      <point x="628" y="0" type="line"/>
      <point x="628" y="720" type="line"/>
      <point x="532" y="720" type="line"/>
      <point x="532" y="114" type="line"/>
      <point x="568" y="125" type="line"/>
      <point x="176" y="720" type="line"/>
      <point x="96" y="720" type="line"/>
    </contour>
    <contour>
      <point x="12" y="244" type="line"/>
      <point x="712" y="244" type="line"/>
      <point x="712" y="324" type="line"/>
      <point x="12" y="324" type="line"/>
    </contour>
    <contour>
      <point x="12" y="400" type="line"/>
      <point x="712" y="400" type="line"/>
      <point x="712" y="480" type="line"/>
      <point x="12" y="480" type="line"/>
    </contour>
  </outline>
</glyph>
<glyph name="kip" format="2">
  <advance width="580"/>
  <unicode hex="20AD"/>
  <outline>
    <contour>
      <point x="96" y="0" type="line"/>
      <point x="192" y="0" type="line"/>
      <point x="192" y="720" type="line"/>
      <point x="96" y="720" type="line"/>
    </contour>
    <contour>
      <point x="12" y="280" type="line"/>
      <point x="496" y="280" type="line"/>
      <point x="496" y="364" type="line"/>
      <point x="12" y="364" type="line"/>
    </contour>
    <contour>
      <point x="328" y="281" type="line"/>
      <point x="538" y="712" type="line"/>
      <point x="538" y="720" type="line"/>
      <point x="442" y="720" type="line"/>
      <point x="246" y="306" type="line"/>
      <point x="436" y="0" type="line"/>
      <point x="544" y="0" type="line"/>
      <point x="544" y="8" type="line"/>
      <point x="324" y="347" type="line"/>
    </contour>
  </outline>
</glyph>
<glyph name="rupeeIndian" format="2">
  <advance width="604"/>
  <unicode hex="20B9"/>
  <outline>
    <contour>
      <point x="372" y="0" type="line"/>
      <point x="502" y="0" type="line"/>
      <point x="502" y="8" type="line"/>
      <point x="204" y="284" type="line"/>
      <point x="168" y="244" type="line"/>
      <point x="224" y="244" type="line" smooth="yes"/>
      <point x="364" y="244"/>
      <point x="496" y="340"/>
      <point x="496" y="496" type="curve" smooth="yes"/>
      <point x="496" y="640"/>
      <point x="404" y="720"/>
      <point x="260" y="720" type="curve" smooth="yes"/>
      <point x="96" y="720" type="line"/>
      <point x="96" y="636" type="line"/>
      <point x="256" y="636" type="line" smooth="yes"/>
      <point x="340" y="636"/>
      <point x="396" y="592"/>
      <point x="396" y="496" type="curve" smooth="yes"/>
      <point x="396" y="408"/>
      <point x="340" y="328"/>
      <point x="228" y="328" type="curve" smooth="yes"/>
      <point x="126" y="328" type="line"/>
      <point x="98" y="260" type="line"/>
    </contour>
    <contour>
      <point x="96" y="444" type="line"/>
      <point x="592" y="444" type="line"/>
      <point x="592" y="524" type="line"/>
      <point x="96" y="524" type="line"/>
    </contour>
    <contour>
      <point x="116" y="640" type="line"/>
      <point x="592" y="640" type="line"/>
      <point x="592" y="720" type="line"/>
      <point x="116" y="720" type="line"/>
    </contour>
  </outline>
</glyph>
<glyph name="leftArrow" format="2">
  <advance width="728"/>
  <unicode hex="2190"/>
  <note>
uni2190
</note>
  <outline>
    <contour>
      <point x="692" y="232" type="line"/>
      <point x="692" y="320" type="line"/>
      <point x="284" y="316" type="line" smooth="yes"/>
      <point x="231" y="315"/>
      <point x="195" y="314"/>
      <point x="169" y="312" type="curve"/>
      <point x="186" y="325"/>
      <point x="199" y="340"/>
      <point x="214" y="356" type="curve" smooth="yes"/>
      <point x="316" y="468" type="line"/>
      <point x="256" y="520" type="line"/>
      <point x="128" y="380" type="line" smooth="yes"/>
      <point x="109" y="359"/>
      <point x="72" y="324"/>
      <point x="36" y="296" type="curve"/>
      <point x="36" y="256" type="line"/>
      <point x="72" y="228"/>
      <point x="109" y="193"/>
      <point x="128" y="172" type="curve" smooth="yes"/>
      <point x="256" y="32" type="line"/>
      <point x="316" y="84" type="line"/>
      <point x="214" y="196" type="line"/>
      <point x="199" y="211"/>
      <point x="186" y="226"/>
      <point x="169" y="239" type="curve"/>
      <point x="195" y="238"/>
      <point x="232" y="236"/>
      <point x="284" y="236" type="curve" smooth="yes"/>
    </contour>
  </outline>
</glyph>
<glyph name="northWestArrow" format="2">
  <advance width="728"/>
  <unicode hex="2196"/>
  <note>
uni2196
</note>
  <outline>
    <contour>
      <point x="565" y="13" type="line"/>
      <point x="627" y="75" type="line"/>
      <point x="336" y="361" type="line" smooth="yes"/>
      <point x="298" y="397"/>
      <point x="272" y="422"/>
      <point x="252" y="439" type="curve"/>
      <point x="273" y="436"/>
      <point x="293" y="438"/>
      <point x="315" y="439" type="curve" smooth="yes"/>
      <point x="466" y="446" type="line"/>
      <point x="460" y="525" type="line"/>
      <point x="271" y="516" type="line" smooth="yes"/>
      <point x="242" y="515"/>
      <point x="191" y="516"/>
      <point x="146" y="522" type="curve"/>
      <point x="118" y="494" type="line"/>
      <point x="124" y="449"/>
      <point x="125" y="398"/>
      <point x="124" y="369" type="curve" smooth="yes"/>
      <point x="115" y="180" type="line"/>
      <point x="194" y="174" type="line"/>
      <point x="201" y="325" type="line" smooth="yes"/>
      <point x="202" y="346"/>
      <point x="204" y="366"/>
      <point x="201" y="387" type="curve"/>
      <point x="218" y="368"/>
      <point x="243" y="340"/>
      <point x="279" y="304" type="curve" smooth="yes"/>
    </contour>
  </outline>
</glyph>
<glyph name="northEastArrow" format="2">
  <advance width="728"/>
  <unicode hex="2197"/>
  <note>
uni2197
</note>
  <outline>
    <contour>
      <point x="101" y="75" type="line"/>
      <point x="163" y="13" type="line"/>
      <point x="449" y="304" type="line" smooth="yes"/>
      <point x="485" y="341"/>
      <point x="510" y="368"/>
      <point x="527" y="387" type="curve"/>
      <point x="524" y="366"/>
      <point x="526" y="346"/>
      <point x="527" y="325" type="curve" smooth="yes"/>
      <point x="534" y="174" type="line"/>
      <point x="613" y="180" type="line"/>
      <point x="604" y="369" type="line" smooth="yes"/>
      <point x="603" y="398"/>
      <point x="604" y="449"/>
      <point x="610" y="494" type="curve"/>
      <point x="582" y="522" type="line"/>
      <point x="537" y="516"/>
      <point x="486" y="515"/>
      <point x="457" y="516" type="curve" smooth="yes"/>
      <point x="268" y="525" type="line"/>
      <point x="262" y="446" type="line"/>
      <point x="413" y="439" type="line" smooth="yes"/>
      <point x="434" y="438"/>
      <point x="454" y="436"/>
      <point x="475" y="439" type="curve"/>
      <point x="456" y="422"/>
      <point x="428" y="397"/>
      <point x="392" y="361" type="curve" smooth="yes"/>
    </contour>
  </outline>
</glyph>
<glyph name="southEastArrow" format="2">
  <advance width="728"/>
  <unicode hex="2198"/>
  <note>
uni2198
</note>
  <outline>
    <contour>
      <point x="163" y="539" type="line"/>
      <point x="101" y="477" type="line"/>
      <point x="392" y="191" type="line" smooth="yes"/>
      <point x="428" y="155"/>
      <point x="456" y="130"/>
      <point x="475" y="113" type="curve"/>
      <point x="454" y="115"/>
      <point x="434" y="114"/>
      <point x="413" y="113" type="curve" smooth="yes"/>
      <point x="262" y="106" type="line"/>
      <point x="268" y="27" type="line"/>
      <point x="457" y="36" type="line" smooth="yes"/>
      <point x="486" y="37"/>
      <point x="537" y="36"/>
      <point x="582" y="30" type="curve"/>
      <point x="610" y="58" type="line"/>
      <point x="604" y="103"/>
      <point x="603" y="154"/>
      <point x="604" y="183" type="curve" smooth="yes"/>
      <point x="613" y="372" type="line"/>
      <point x="534" y="378" type="line"/>
      <point x="527" y="227" type="line"/>
      <point x="525" y="205"/>
      <point x="524" y="185"/>
      <point x="527" y="164" type="curve"/>
      <point x="510" y="184"/>
      <point x="485" y="210"/>
      <point x="449" y="248" type="curve" smooth="yes"/>
    </contour>
  </outline>
</glyph>
<glyph name="southWestArrow" format="2">
  <advance width="728"/>
  <unicode hex="2199"/>
  <note>
uni2199
</note>
  <outline>
    <contour>
      <point x="627" y="477" type="line"/>
      <point x="565" y="539" type="line"/>
      <point x="279" y="248" type="line" smooth="yes"/>
      <point x="243" y="212"/>
      <point x="218" y="184"/>
      <point x="201" y="165" type="curve"/>
      <point x="203" y="186"/>
      <point x="202" y="206"/>
      <point x="201" y="227" type="curve" smooth="yes"/>
      <point x="194" y="378" type="line"/>
      <point x="115" y="372" type="line"/>
      <point x="124" y="183" type="line" smooth="yes"/>
      <point x="125" y="154"/>
      <point x="124" y="103"/>
      <point x="118" y="58" type="curve"/>
      <point x="146" y="30" type="line"/>
      <point x="191" y="36"/>
      <point x="242" y="37"/>
      <point x="271" y="36" type="curve" smooth="yes"/>
      <point x="460" y="27" type="line"/>
      <point x="466" y="106" type="line"/>
      <point x="315" y="113" type="line"/>
      <point x="293" y="115"/>
      <point x="273" y="116"/>
      <point x="252" y="113" type="curve"/>
      <point x="272" y="130"/>
      <point x="298" y="155"/>
      <point x="336" y="191" type="curve" smooth="yes"/>
    </contour>
  </outline>
</glyph>
<glyph name="partialdiff" format="2">
  <advance width="616"/>
  <unicode hex="2202"/>
  <note>
partialdiff
</note>
  <outline>
    <contour>
      <point x="304" y="-12" type="curve" smooth="yes"/>
      <point x="492" y="-12"/>
      <point x="564" y="132"/>
      <point x="564" y="348" type="curve" smooth="yes"/>
      <point x="564" y="584"/>
      <point x="452" y="732"/>
      <point x="232" y="732" type="curve" smooth="yes"/>
      <point x="176" y="732"/>
      <point x="140" y="724"/>
      <point x="108" y="712" type="curve"/>
      <point x="108" y="624" type="line"/>
      <point x="116" y="624" type="line"/>
      <point x="144" y="636"/>
      <point x="176" y="648"/>
      <point x="236" y="648" type="curve" smooth="yes"/>
      <point x="396" y="648"/>
      <point x="468" y="540"/>
      <point x="468" y="352" type="curve" smooth="yes"/>
      <point x="468" y="164"/>
      <point x="428" y="68"/>
      <point x="300" y="68" type="curve" smooth="yes"/>
      <point x="192" y="68"/>
      <point x="148" y="144"/>
      <point x="148" y="232" type="curve" smooth="yes"/>
      <point x="148" y="328"/>
      <point x="200" y="388"/>
      <point x="300" y="388" type="curve" smooth="yes"/>
      <point x="388" y="388"/>
      <point x="442" y="348"/>
      <point x="480" y="296" type="curve"/>
      <point x="516" y="296" type="line"/>
      <point x="516" y="390" type="line"/>
      <point x="476" y="390" type="line"/>
      <point x="444" y="428"/>
      <point x="388" y="468"/>
      <point x="284" y="468" type="curve" smooth="yes"/>
      <point x="152" y="468"/>
      <point x="56" y="388"/>
      <point x="56" y="232" type="curve" smooth="yes"/>
      <point x="56" y="96"/>
      <point x="144" y="-12"/>
    </contour>
  </outline>
</glyph>
<glyph name="product" format="2">
  <advance width="712"/>
  <unicode hex="220F"/>
  <note>
product
</note>
  <outline>
    <contour>
      <point x="96" y="720" type="line"/>
      <point x="96" y="0" type="line"/>
      <point x="192" y="0" type="line"/>
      <point x="192" y="636" type="line"/>
      <point x="520" y="636" type="line"/>
      <point x="520" y="0" type="line"/>
      <point x="616" y="0" type="line"/>
      <point x="616" y="720" type="line"/>
    </contour>
  </outline>
</glyph>
<glyph name="summation" format="2">
  <advance width="554"/>
  <unicode hex="2211"/>
  <note>
summation
</note>
  <outline>
    <contour>
      <point x="284" y="313" type="line"/>
      <point x="32" y="-65" type="line"/>
      <point x="32" y="-120" type="line"/>
      <point x="522" y="-120" type="line"/>
      <point x="522" y="-39" type="line"/>
      <point x="153" y="-39" type="line"/>
      <point x="386" y="313" type="line"/>
      <point x="167" y="639" type="line"/>
      <point x="510" y="639" type="line"/>
      <point x="510" y="720" type="line"/>
      <point x="45" y="720" type="line"/>
      <point x="45" y="665" type="line"/>
    </contour>
  </outline>
</glyph>
<glyph name="radical" format="2">
  <advance width="588"/>
  <unicode hex="221A"/>
  <note>
radical
</note>
  <outline>
    <contour>
      <point x="24" y="373" type="line"/>
      <point x="24" y="305" type="line"/>
      <point x="150" y="305" type="line"/>
      <point x="304" y="-120" type="line"/>
      <point x="381" y="-120" type="line"/>
      <point x="632" y="720" type="line"/>
      <point x="543" y="720" type="line"/>
      <point x="342" y="25" type="line"/>
      <point x="219" y="373" type="line"/>
    </contour>
  </outline>
</glyph>
<glyph name="approxequal" format="2">
  <advance width="616"/>
  <unicode hex="2248"/>
  <note>
approxequal
</note>
  <outline>
    <contour>
      <point x="544" y="528" type="curve"/>
      <point x="464" y="528" type="line"/>
      <point x="460" y="478"/>
      <point x="450" y="424"/>
      <point x="404" y="424" type="curve" smooth="yes"/>
      <point x="376" y="424"/>
      <point x="353" y="450"/>
      <point x="324" y="476" type="curve" smooth="yes"/>
      <point x="295" y="502"/>
      <point x="259" y="528"/>
      <point x="206" y="528" type="curve" smooth="yes"/>
      <point x="104" y="528"/>
      <point x="68" y="435"/>
      <point x="64" y="344" type="curve"/>
      <point x="144" y="344" type="line"/>
      <point x="148" y="394"/>
      <point x="158" y="448"/>
      <point x="204" y="448" type="curve" smooth="yes"/>
      <point x="232" y="448"/>
      <point x="255" y="422"/>
      <point x="284" y="396" type="curve" smooth="yes"/>
      <point x="313" y="370"/>
      <point x="349" y="344"/>
      <point x="402" y="344" type="curve" smooth="yes"/>
      <point x="504" y="344"/>
      <point x="540" y="437"/>
    </contour>
    <contour>
      <point x="544" y="288" type="curve"/>
      <point x="464" y="288" type="line"/>
      <point x="460" y="238"/>
      <point x="450" y="184"/>
      <point x="404" y="184" type="curve" smooth="yes"/>
      <point x="376" y="184"/>
      <point x="353" y="210"/>
      <point x="324" y="236" type="curve" smooth="yes"/>
      <point x="295" y="262"/>
      <point x="259" y="288"/>
      <point x="206" y="288" type="curve" smooth="yes"/>
      <point x="104" y="288"/>
      <point x="68" y="195"/>
      <point x="64" y="104" type="curve"/>
      <point x="144" y="104" type="line"/>
      <point x="148" y="154"/>
      <point x="158" y="208"/>
      <point x="204" y="208" type="curve" smooth="yes"/>
      <point x="232" y="208"/>
      <point x="255" y="182"/>
      <point x="284" y="156" type="curve" smooth="yes"/>
      <point x="313" y="130"/>
      <point x="349" y="104"/>
      <point x="402" y="104" type="curve" smooth="yes"/>
      <point x="504" y="104"/>
      <point x="540" y="197"/>
    </contour>
  </outline>
</glyph>
<glyph name="whiteSquare" format="2">
  <advance width="912"/>
  <unicode hex="25A1"/>
  <note>
uni25A1
</note>
  <outline>
    <contour>
      <point x="96" y="720" type="line"/>
      <point x="96" y="0" type="line"/>
      <point x="816" y="0" type="line"/>
      <point x="816" y="720" type="line"/>
    </contour>
    <contour>
      <point x="716" y="92" type="line"/>
      <point x="196" y="92" type="line"/>
      <point x="196" y="628" type="line"/>
      <point x="716" y="628" type="line"/>
    </contour>
  </outline>
</glyph>
<glyph name="upWhiteTriangle" format="2">
  <advance width="648"/>
  <unicode hex="25B3"/>
  <note>
uni25C1
</note>
  <outline>
    <contour>
      <point x="28" y="0" type="line"/>
      <point x="620" y="0" type="line"/>
      <point x="324" y="532" type="line"/>
    </contour>
    <contour>
      <point x="172" y="92" type="line"/>
      <point x="324" y="364" type="line"/>
      <point x="475" y="92" type="line"/>
    </contour>
  </outline>
</glyph>
<glyph name="downWhiteTriangle" format="2">
  <advance width="648"/>
  <unicode hex="25BD"/>
  <note>
uni25C1
</note>
  <outline>
    <contour>
      <point x="28" y="532" type="line"/>
      <point x="324" y="0" type="line"/>
      <point x="620" y="532" type="line"/>
    </contour>
    <contour>
      <point x="172" y="440" type="line"/>
      <point x="475" y="440" type="line"/>
      <point x="324" y="168" type="line"/>
    </contour>
  </outline>
</glyph>
<glyph name="leftBlackTriangle" format="2">
  <advance width="648"/>
  <unicode hex="25C0"/>
  <note>
uni25C0
</note>
  <outline>
    <contour>
      <point x="20" y="266" type="line"/>
      <point x="552" y="-30" type="line"/>
      <point x="552" y="562" type="line"/>
    </contour>
  </outline>
</glyph>
<glyph name="leftWhiteTriangle" format="2">
  <advance width="648"/>
  <unicode hex="25C1"/>
  <note>
uni25C1
</note>
  <outline>
    <contour>
      <point x="552" y="-30" type="line"/>
      <point x="552" y="562" type="line"/>
      <point x="20" y="266" type="line"/>
    </contour>
    <contour>
      <point x="460" y="114" type="line"/>
      <point x="188" y="266" type="line"/>
      <point x="460" y="417" type="line"/>
    </contour>
  </outline>
</glyph>
<glyph name="blackDiamond" format="2">
  <advance width="662"/>
  <unicode hex="25C6"/>
  <outline>
    <contour>
      <point x="331" y="566" type="line"/>
      <point x="40" y="275" type="line"/>
      <point x="331" y="-16" type="line"/>
      <point x="622" y="275" type="line"/>
    </contour>
  </outline>
</glyph>
<glyph name="whiteCircle" format="2">
  <advance width="674"/>
  <unicode hex="25CB"/>
  <note>
uni25CB
</note>
  <outline>
    <contour>
      <point x="48" y="268" type="curve" smooth="yes"/>
      <point x="48" y="99"/>
      <point x="164" y="-12"/>
      <point x="337" y="-12" type="curve" smooth="yes"/>
      <point x="510" y="-12"/>
      <point x="626" y="99"/>
      <point x="626" y="268" type="curve" smooth="yes"/>
      <point x="626" y="437"/>
      <point x="510" y="548"/>
      <point x="337" y="548" type="curve" smooth="yes"/>
      <point x="164" y="548"/>
      <point x="48" y="437"/>
    </contour>
    <contour>
      <point x="141" y="268" type="curve" smooth="yes"/>
      <point x="141" y="397"/>
      <point x="221" y="468"/>
      <point x="337" y="468" type="curve" smooth="yes"/>
      <point x="452" y="468"/>
      <point x="532" y="397"/>
      <point x="532" y="268" type="curve" smooth="yes"/>
      <point x="532" y="139"/>
      <point x="452" y="68"/>
      <point x="337" y="68" type="curve" smooth="yes"/>
      <point x="221" y="68"/>
      <point x="141" y="139"/>
    </contour>
  </outline>
</glyph>
<glyph name="blackstar" format="2">
  <advance width="760"/>
  <unicode hex="2605"/>
  <note>
uni2605
</note>
  <outline>
    <contour>
      <point x="160" y="0" type="line"/>
      <point x="380" y="156" type="line"/>
      <point x="596" y="0" type="line"/>
      <point x="512" y="256" type="line"/>
      <point x="732" y="412" type="line"/>
      <point x="460" y="412" type="line"/>
      <point x="380" y="668" type="line"/>
      <point x="296" y="412" type="line"/>
      <point x="28" y="412" type="line"/>
      <point x="244" y="256" type="line"/>
    </contour>
  </outline>
</glyph>
<glyph name="uniFBC0" format="2">
  <unicode hex="FBC0"/>
  <note>
uniFBC0
</note>
  <outline>
    <contour>
      <point x="-148" y="624" type="line"/>
      <point x="28" y="624" type="line" smooth="yes"/>
      <point x="120" y="624"/>
      <point x="139" y="657"/>
      <point x="139" y="698" type="curve" smooth="yes"/>
      <point x="139" y="731"/>
      <point x="113" y="761"/>
      <point x="92" y="778" type="curve"/>
      <point x="79" y="778" type="line"/>
      <point x="64" y="774"/>
      <point x="44" y="774"/>
      <point x="21" y="774" type="curve" smooth="yes"/>
      <point x="-28" y="774" type="line"/>
      <point x="-40" y="746" type="line"/>
      <point x="-40" y="857" type="line"/>
      <point x="-93" y="850" type="line"/>
      <point x="-93" y="669" type="line"/>
      <point x="-133" y="669" type="line"/>
      <point x="-148" y="630" type="line"/>
    </contour>
    <contour>
      <point x="-40" y="669" type="line"/>
      <point x="-40" y="728" type="line"/>
      <point x="21" y="728" type="line" smooth="yes"/>
      <point x="39" y="728"/>
      <point x="58" y="729"/>
      <point x="71" y="730" type="curve"/>
      <point x="80" y="721"/>
      <point x="86" y="708"/>
      <point x="86" y="694" type="curve" smooth="yes"/>
      <point x="86" y="674"/>
      <point x="66" y="669"/>
      <point x="37" y="669" type="curve" smooth="yes"/>
    </contour>
  </outline>
</glyph>
<glyph name="_hamza-ar" format="2">
  <advance width="224"/>
  <anchor x="163" y="75" name="_center"/>
  <outline>
    <contour>
      <point x="20" y="103" type="curve" smooth="yes"/>
      <point x="20" y="53"/>
      <point x="61" y="0"/>
      <point x="142" y="0" type="curve" smooth="yes"/>
      <point x="196" y="0" type="line"/>
      <point x="207" y="63" type="line"/>
      <point x="207" y="70" type="line"/>
      <point x="158" y="70" type="line" smooth="yes"/>
      <point x="124" y="70"/>
      <point x="90" y="73"/>
      <point x="70" y="109" type="curve"/>
      <point x="75" y="90" type="line"/>
      <point x="80" y="129"/>
      <point x="109" y="152"/>
      <point x="158" y="152" type="curve" smooth="yes"/>
      <point x="196" y="152" type="line"/>
      <point x="209" y="214" type="line"/>
      <point x="209" y="222" type="line"/>
      <point x="169" y="222" type="line" smooth="yes"/>
      <point x="76" y="222"/>
      <point x="20" y="167"/>
    </contour>
  </outline>
</glyph>
<glyph name="_horizontalbar-ar" format="2">
  <advance width="367"/>
  <anchor x="199" y="44" name="_verticalbar"/>
  <outline>
    <contour>
      <point x="139" y="44" type="curve"/>
      <point x="219" y="22" type="line"/>
      <point x="219" y="760" type="line"/>
      <point x="211" y="760" type="line"/>
      <point x="127" y="748" type="line"/>
      <point x="127" y="140" type="line" smooth="yes"/>
      <point x="127" y="98"/>
      <point x="134" y="63"/>
    </contour>
  </outline>
</glyph>
<glyph name="_kafbar-ar" format="2">
  <advance width="415"/>
  <anchor x="20" y="529" name="_kafbar"/>
  <outline>
    <contour>
      <point x="6" y="671" type="line"/>
      <point x="10" y="623" type="line"/>
      <point x="22" y="623" type="line"/>
      <point x="376" y="962" type="line"/>
      <point x="352" y="998" type="line"/>
      <point x="340" y="998" type="line"/>
    </contour>
  </outline>
</glyph>
<glyph name="_part.dot" format="2">
  <advance width="284"/>
  <anchor x="140" y="544" name="_top"/>
  <outline>
    <contour>
      <point x="140" y="640" type="curve" smooth="yes"/>
      <point x="174" y="640"/>
      <point x="200" y="664"/>
      <point x="200" y="700" type="curve" smooth="yes"/>
      <point x="200" y="736"/>
      <point x="174" y="760"/>
      <point x="140" y="760" type="curve" smooth="yes"/>
      <point x="106" y="760"/>
      <point x="80" y="736"/>
      <point x="80" y="700" type="curve" smooth="yes"/>
      <point x="80" y="664"/>
      <point x="106" y="640"/>
    </contour>
  </outline>
</glyph>
<glyph name="_part.yehbarree-ar" format="2">
  <advance width="488"/>
  <anchor x="167" y="-256" name="bottom"/>
  <anchor x="160" y="85" name="top"/>
  <outline>
    <contour>
      <point x="243" y="-256" type="curve" smooth="yes"/>
      <point x="996" y="-256" type="line"/>
      <point x="1024" y="-179" type="line"/>
      <point x="1024" y="-171" type="line"/>
      <point x="288" y="-171" type="line" smooth="yes"/>
      <point x="167" y="-171"/>
      <point x="91" y="-155"/>
      <point x="69" y="-84" type="curve"/>
      <point x="82" y="-126" type="line"/>
      <point x="86" y="-61"/>
      <point x="149" y="0"/>
      <point x="284" y="0" type="curve" smooth="yes"/>
      <point x="468" y="0" type="line"/>
      <point x="488" y="20" type="line"/>
      <point x="488" y="85" type="line"/>
      <point x="304" y="85" type="line" smooth="yes"/>
      <point x="91" y="85"/>
      <point x="20" y="-20"/>
      <point x="20" y="-100" type="curve" smooth="yes"/>
      <point x="20" y="-202"/>
      <point x="113" y="-256"/>
    </contour>
  </outline>
</glyph>
<glyph name="_tahbarfinal-ar" format="2">
  <advance width="468"/>
  <note>
uni066E.medi
</note>
  <anchor x="334" y="0" name="*entry"/>
  <outline>
    <contour>
      <point x="12" y="0" type="line"/>
      <point x="448" y="0" type="line"/>
      <point x="468" y="20" type="line"/>
      <point x="468" y="85" type="line"/>
      <point x="282" y="85" type="line"/>
      <point x="320" y="42" type="line"/>
      <point x="320" y="760" type="line"/>
      <point x="312" y="760" type="line"/>
      <point x="228" y="748" type="line"/>
      <point x="228" y="160" type="line" smooth="yes"/>
      <point x="228" y="118"/>
      <point x="235" y="83"/>
      <point x="240" y="64" type="curve"/>
      <point x="274" y="85" type="line"/>
      <point x="40" y="85" type="line"/>
      <point x="12" y="8" type="line"/>
    </contour>
  </outline>
</glyph>
<glyph name="a.sc" format="2">
  <advance width="616"/>
  <note>
a.sc
</note>
  <anchor x="306" y="0" name="bottom"/>
  <anchor x="516" y="0" name="ogonek"/>
  <anchor x="347" y="572" name="top"/>
  <outline>
    <contour>
      <point x="60" y="0" type="line"/>
      <point x="152" y="0" type="line"/>
      <point x="220" y="376" type="line" smooth="yes"/>
      <point x="235" y="458"/>
      <point x="271" y="500"/>
      <point x="380" y="500" type="curve" smooth="yes"/>
      <point x="405" y="500"/>
      <point x="429" y="495"/>
      <point x="447" y="493" type="curve"/>
      <point x="429" y="522" type="line"/>
      <point x="424" y="489"/>
      <point x="424" y="460"/>
      <point x="424" y="428" type="curve" smooth="yes"/>
      <point x="424" y="0" type="line"/>
      <point x="516" y="0" type="line"/>
      <point x="516" y="432" type="line" smooth="yes"/>
      <point x="516" y="464"/>
      <point x="516" y="528"/>
      <point x="520" y="560" type="curve"/>
      <point x="518" y="568" type="line"/>
      <point x="473" y="576"/>
      <point x="428" y="580"/>
      <point x="388" y="580" type="curve" smooth="yes"/>
      <point x="216" y="580"/>
      <point x="153" y="508"/>
      <point x="128" y="372" type="curve" smooth="yes"/>
    </contour>
    <contour>
      <point x="160" y="168" type="line"/>
      <point x="464" y="168" type="line"/>
      <point x="464" y="248" type="line"/>
      <point x="160" y="248" type="line"/>
    </contour>
  </outline>
</glyph>
<glyph name="ain-ar.fina.short" format="2">
  <advance width="660"/>
  <note>
uni0639.fina.short
</note>
  <anchor x="236" y="-256" name="bottom"/>
  <anchor x="403" y="-146" name="center"/>
  <anchor x="352" y="516" name="top"/>
  <outline>
    <contour>
      <point x="276" y="0" type="curve" smooth="yes"/>
      <point x="664" y="0" type="line"/>
      <point x="684" y="20" type="line"/>
      <point x="684" y="85" type="line"/>
      <point x="426" y="85" type="line"/>
      <point x="444" y="73" type="line"/>
      <point x="522" y="113"/>
      <point x="588" y="219"/>
      <point x="588" y="304" type="curve" smooth="yes"/>
      <point x="588" y="424"/>
      <point x="501" y="516"/>
      <point x="352" y="516" type="curve" smooth="yes"/>
      <point x="246" y="516"/>
      <point x="128" y="469"/>
      <point x="64" y="424" type="curve"/>
      <point x="64" y="416" type="line"/>
      <point x="94" y="378"/>
      <point x="152" y="253"/>
      <point x="172" y="204" type="curve" smooth="yes"/>
      <point x="239" y="40" type="line"/>
      <point x="297" y="80" type="line"/>
      <point x="84" y="80"/>
      <point x="13" y="-22"/>
      <point x="13" y="-100" type="curve" smooth="yes"/>
      <point x="13" y="-202"/>
      <point x="89" y="-256"/>
      <point x="196" y="-256" type="curve" smooth="yes"/>
      <point x="234" y="-256" type="line"/>
      <point x="262" y="-179" type="line"/>
      <point x="262" y="-171" type="line"/>
      <point x="241" y="-171" type="line" smooth="yes"/>
      <point x="142" y="-171"/>
      <point x="80" y="-155"/>
      <point x="62" y="-84" type="curve"/>
      <point x="75" y="-126" type="line"/>
      <point x="79" y="-61"/>
      <point x="141" y="0"/>
    </contour>
    <contour>
      <point x="329" y="46" type="line"/>
      <point x="260" y="220" type="line" smooth="yes"/>
      <point x="223" y="314"/>
      <point x="207" y="357"/>
      <point x="172" y="411" type="curve"/>
      <point x="156" y="387" type="line"/>
      <point x="201" y="408"/>
      <point x="261" y="436"/>
      <point x="336" y="436" type="curve" smooth="yes"/>
      <point x="440" y="436"/>
      <point x="496" y="372"/>
      <point x="496" y="284" type="curve" smooth="yes"/>
      <point x="496" y="164"/>
      <point x="373" y="81"/>
      <point x="297" y="79" type="curve"/>
    </contour>
  </outline>
</glyph>
<glyph name="ain-ar.medi" format="2">
  <advance width="648"/>
  <note>
uni0639.medi
</note>
  <anchor x="305" y="0" name="bottom"/>
  <anchor x="308" y="510" name="top"/>
  <outline>
    <contour>
      <point x="0" y="85" type="line"/>
      <point x="-20" y="65" type="line"/>
      <point x="-20" y="0" type="line"/>
      <point x="652" y="0" type="line"/>
      <point x="672" y="20" type="line"/>
      <point x="672" y="85" type="line"/>
      <point x="414" y="85" type="line"/>
      <point x="432" y="68" type="line"/>
      <point x="510" y="109"/>
      <point x="576" y="217"/>
      <point x="576" y="304" type="curve" smooth="yes"/>
      <point x="576" y="424"/>
      <point x="489" y="516"/>
      <point x="340" y="516" type="curve" smooth="yes"/>
      <point x="234" y="516"/>
      <point x="116" y="469"/>
      <point x="52" y="424" type="curve"/>
      <point x="52" y="416" type="line"/>
      <point x="82" y="378"/>
      <point x="140" y="253"/>
      <point x="160" y="204" type="curve" smooth="yes"/>
      <point x="227" y="40" type="line"/>
      <point x="220" y="85" type="line"/>
    </contour>
    <contour>
      <point x="317" y="46" type="line"/>
      <point x="248" y="220" type="line" smooth="yes"/>
      <point x="211" y="314"/>
      <point x="195" y="357"/>
      <point x="160" y="411" type="curve"/>
      <point x="144" y="387" type="line"/>
      <point x="189" y="408"/>
      <point x="249" y="436"/>
      <point x="324" y="436" type="curve" smooth="yes"/>
      <point x="428" y="436"/>
      <point x="484" y="372"/>
      <point x="484" y="284" type="curve" smooth="yes"/>
      <point x="484" y="164"/>
      <point x="381" y="101"/>
      <point x="285" y="69" type="curve"/>
    </contour>
  </outline>
</glyph>
<glyph name="alef-ar.short" format="2">
  <advance width="284"/>
  <note>
uni0627.short
</note>
  <anchor x="188" y="0" name="*entry"/>
  <anchor x="143" y="0" name="bottom"/>
  <anchor x="143" y="658" name="top"/>
  <outline>
    <contour>
      <point x="96" y="648" type="line"/>
      <point x="96" y="0" type="line"/>
      <point x="188" y="0" type="line"/>
      <point x="188" y="504" type="line" smooth="yes"/>
      <point x="188" y="544"/>
      <point x="188" y="616"/>
      <point x="196" y="652" type="curve"/>
      <point x="196" y="660" type="line"/>
    </contour>
  </outline>
</glyph>
<glyph name="at.sc" format="2">
  <advance width="856"/>
  <note>
at.sc
</note>
  <outline>
    <contour>
      <point x="452" y="-128" type="curve" smooth="yes"/>
      <point x="509" y="-128"/>
      <point x="577" y="-121"/>
      <point x="608" y="-108" type="curve"/>
      <point x="608" y="-36" type="line"/>
      <point x="600" y="-36" type="line"/>
      <point x="569" y="-50"/>
      <point x="506" y="-60"/>
      <point x="452" y="-60" type="curve" smooth="yes"/>
      <point x="275" y="-60"/>
      <point x="136" y="21"/>
      <point x="136" y="228" type="curve" smooth="yes"/>
      <point x="136" y="426"/>
      <point x="267" y="516"/>
      <point x="452" y="516" type="curve" smooth="yes"/>
      <point x="606" y="516"/>
      <point x="720" y="440"/>
      <point x="720" y="300" type="curve" smooth="yes"/>
      <point x="720" y="197"/>
      <point x="671" y="137"/>
      <point x="590" y="108" type="curve"/>
      <point x="588" y="130"/>
      <point x="588" y="153"/>
      <point x="588" y="168" type="curve" smooth="yes"/>
      <point x="588" y="252" type="line" smooth="yes"/>
      <point x="588" y="372"/>
      <point x="519" y="404"/>
      <point x="420" y="404" type="curve" smooth="yes"/>
      <point x="378" y="404"/>
      <point x="336" y="395"/>
      <point x="304" y="384" type="curve"/>
      <point x="304" y="316" type="line"/>
      <point x="312" y="316" type="line"/>
      <point x="333" y="325"/>
      <point x="371" y="336"/>
      <point x="412" y="336" type="curve" smooth="yes"/>
      <point x="483" y="336"/>
      <point x="512" y="318"/>
      <point x="512" y="252" type="curve" smooth="yes"/>
      <point x="512" y="144" type="line" smooth="yes"/>
      <point x="512" y="114"/>
      <point x="514" y="89"/>
      <point x="525" y="75" type="curve"/>
      <point x="545" y="97" type="line"/>
      <point x="516" y="91"/>
      <point x="482" y="87"/>
      <point x="450" y="87" type="curve" smooth="yes"/>
      <point x="395" y="87"/>
      <point x="348" y="100"/>
      <point x="348" y="144" type="curve" smooth="yes"/>
      <point x="348" y="184"/>
      <point x="379" y="200"/>
      <point x="444" y="200" type="curve" smooth="yes"/>
      <point x="471" y="200"/>
      <point x="498" y="196"/>
      <point x="518" y="190" type="curve"/>
      <point x="518" y="249" type="line"/>
      <point x="500" y="255"/>
      <point x="473" y="260"/>
      <point x="436" y="260" type="curve" smooth="yes"/>
      <point x="340" y="260"/>
      <point x="272" y="228"/>
      <point x="272" y="148" type="curve" smooth="yes"/>
      <point x="272" y="60"/>
      <point x="338" y="24"/>
      <point x="452" y="24" type="curve" smooth="yes"/>
      <point x="645" y="24"/>
      <point x="800" y="112"/>
      <point x="800" y="300" type="curve" smooth="yes"/>
      <point x="800" y="474"/>
      <point x="657" y="584"/>
      <point x="452" y="584" type="curve" smooth="yes"/>
      <point x="203" y="584"/>
      <point x="56" y="445"/>
      <point x="56" y="228" type="curve" smooth="yes"/>
      <point x="56" y="-12"/>
      <point x="221" y="-128"/>
    </contour>
  </outline>
</glyph>
<glyph name="behDotless-ar.init" format="2">
  <advance width="316"/>
  <note>
uni066E.init
</note>
  <anchor x="152" y="0" name="bottom"/>
  <anchor x="122" y="0" name="ring"/>
  <anchor x="171" y="498" name="top"/>
  <outline>
    <contour>
      <point x="-20" y="0" type="line"/>
      <point x="44" y="0" type="line" smooth="yes"/>
      <point x="128" y="0"/>
      <point x="188" y="8"/>
      <point x="228" y="24" type="curve"/>
      <point x="228" y="32" type="line"/>
      <point x="220" y="68"/>
      <point x="220" y="132"/>
      <point x="220" y="172" type="curve" smooth="yes"/>
      <point x="220" y="504" type="line"/>
      <point x="212" y="504" type="line"/>
      <point x="128" y="492" type="line"/>
      <point x="128" y="160" type="line" smooth="yes"/>
      <point x="128" y="118"/>
      <point x="135" y="83"/>
      <point x="140" y="64" type="curve"/>
      <point x="174" y="85" type="line"/>
      <point x="0" y="85" type="line"/>
      <point x="-20" y="65" type="line"/>
    </contour>
  </outline>
</glyph>
<glyph name="behDotless-ar.init.h1" format="2">
  <advance width="375"/>
  <note>
uni066E.init
</note>
  <anchor x="334" y="400" name="bottom"/>
  <anchor x="240" y="353" name="ring"/>
  <anchor x="221" y="620" name="top"/>
  <outline>
    <contour>
      <point x="-26" y="279" type="line"/>
      <point x="3" y="262"/>
      <point x="33" y="256"/>
      <point x="61" y="256" type="curve" smooth="yes"/>
      <point x="189" y="256"/>
      <point x="273" y="322"/>
      <point x="273" y="520" type="curve" smooth="yes"/>
      <point x="273" y="640" type="line"/>
      <point x="265" y="640" type="line"/>
      <point x="181" y="628" type="line"/>
      <point x="181" y="484" type="line" smooth="yes"/>
      <point x="181" y="418"/>
      <point x="177" y="384"/>
      <point x="168" y="350" type="curve"/>
      <point x="193" y="350" type="line"/>
      <point x="189" y="385" type="line"/>
      <point x="159" y="348"/>
      <point x="110" y="331"/>
      <point x="57" y="331" type="curve" smooth="yes"/>
      <point x="-4" y="331"/>
      <point x="-69" y="354"/>
      <point x="-116" y="396" type="curve"/>
    </contour>
  </outline>
</glyph>
<glyph name="braceright.sc" format="2">
  <advance width="360"/>
  <note>
braceright.sc
</note>
  <outline>
    <contour>
      <point x="232" y="268" type="curve"/>
      <point x="232" y="264" type="line"/>
      <point x="186" y="257"/>
      <point x="148" y="226"/>
      <point x="148" y="168" type="curve" smooth="yes"/>
      <point x="148" y="48" type="line" smooth="yes"/>
      <point x="148" y="13"/>
      <point x="131" y="0"/>
      <point x="96" y="0" type="curve" smooth="yes"/>
      <point x="40" y="0" type="line"/>
      <point x="40" y="-72" type="line"/>
      <point x="100" y="-72" type="line" smooth="yes"/>
      <point x="188" y="-72"/>
      <point x="232" y="-29"/>
      <point x="232" y="52" type="curve" smooth="yes"/>
      <point x="232" y="168" type="line" smooth="yes"/>
      <point x="232" y="200"/>
      <point x="246" y="228"/>
      <point x="288" y="228" type="curve" smooth="yes"/>
      <point x="332" y="228" type="line"/>
      <point x="332" y="304" type="line"/>
      <point x="288" y="304" type="line" smooth="yes"/>
      <point x="246" y="304"/>
      <point x="232" y="332"/>
      <point x="232" y="364" type="curve" smooth="yes"/>
      <point x="232" y="480" type="line" smooth="yes"/>
      <point x="232" y="561"/>
      <point x="188" y="604"/>
      <point x="100" y="604" type="curve" smooth="yes"/>
      <point x="40" y="604" type="line"/>
      <point x="40" y="532" type="line"/>
      <point x="96" y="532" type="line" smooth="yes"/>
      <point x="131" y="532"/>
      <point x="148" y="519"/>
      <point x="148" y="484" type="curve" smooth="yes"/>
      <point x="148" y="364" type="line" smooth="yes"/>
      <point x="148" y="306"/>
      <point x="186" y="275"/>
    </contour>
  </outline>
</glyph>
<glyph name="cent.inferior" format="2">
  <advance width="397"/>
  <note>
cent.inferior
</note>
  <outline>
    <contour>
      <point x="58" y="47" type="curve" smooth="yes"/>
      <point x="58" y="-42"/>
      <point x="111" y="-93"/>
      <point x="191" y="-107" type="curve"/>
      <point x="191" y="-196" type="line"/>
      <point x="258" y="-196" type="line"/>
      <point x="258" y="-111" type="line"/>
      <point x="280" y="-109"/>
      <point x="303" y="-103"/>
      <point x="315" y="-99" type="curve"/>
      <point x="315" y="-35" type="line"/>
      <point x="309" y="-35" type="line"/>
      <point x="295" y="-42"/>
      <point x="274" y="-47"/>
      <point x="246" y="-47" type="curve" smooth="yes"/>
      <point x="184" y="-47"/>
      <point x="137" y="-18"/>
      <point x="137" y="47" type="curve" smooth="yes"/>
      <point x="137" y="111"/>
      <point x="184" y="140"/>
      <point x="246" y="140" type="curve" smooth="yes"/>
      <point x="274" y="140"/>
      <point x="295" y="136"/>
      <point x="309" y="129" type="curve"/>
      <point x="315" y="129" type="line"/>
      <point x="315" y="193" type="line"/>
      <point x="303" y="196"/>
      <point x="281" y="201"/>
      <point x="258" y="203" type="curve"/>
      <point x="258" y="284" type="line"/>
      <point x="191" y="284" type="line"/>
      <point x="191" y="200" type="line"/>
      <point x="112" y="186"/>
      <point x="58" y="136"/>
    </contour>
  </outline>
</glyph>
<glyph name="comma.inferior" format="2">
  <advance width="218"/>
  <note>
comma.inferior
</note>
  <outline>
    <contour>
      <point x="85" y="-165" type="curve"/>
      <point x="31" y="-266" type="line"/>
      <point x="31" y="-272" type="line"/>
      <point x="100" y="-272" type="line"/>
      <point x="142" y="-182" type="line" smooth="yes"/>
      <point x="149" y="-166"/>
      <point x="162" y="-142"/>
      <point x="162" y="-116" type="curve" smooth="yes"/>
      <point x="162" y="-77"/>
      <point x="137" y="-59"/>
      <point x="106" y="-59" type="curve" smooth="yes"/>
      <point x="75" y="-59"/>
      <point x="52" y="-79"/>
      <point x="52" y="-114" type="curve" smooth="yes"/>
      <point x="52" y="-143"/>
      <point x="71" y="-158"/>
    </contour>
  </outline>
</glyph>
<glyph name="copyright.sc" format="2">
  <advance width="712"/>
  <note>
copyright.sc
</note>
  <outline>
    <contour>
      <point x="196" y="284" type="curve" smooth="yes"/>
      <point x="196" y="188"/>
      <point x="264" y="124"/>
      <point x="384" y="124" type="curve" smooth="yes"/>
      <point x="413" y="124"/>
      <point x="445" y="129"/>
      <point x="464" y="136" type="curve"/>
      <point x="464" y="190" type="line"/>
      <point x="456" y="190" type="line"/>
      <point x="437" y="182"/>
      <point x="412" y="178"/>
      <point x="384" y="178" type="curve" smooth="yes"/>
      <point x="307" y="178"/>
      <point x="260" y="209"/>
      <point x="260" y="284" type="curve" smooth="yes"/>
      <point x="260" y="357"/>
      <point x="308" y="394"/>
      <point x="384" y="394" type="curve" smooth="yes"/>
      <point x="412" y="394"/>
      <point x="437" y="390"/>
      <point x="456" y="382" type="curve"/>
      <point x="464" y="382" type="line"/>
      <point x="464" y="436" type="line"/>
      <point x="445" y="443"/>
      <point x="413" y="448"/>
      <point x="384" y="448" type="curve" smooth="yes"/>
      <point x="264" y="448"/>
      <point x="196" y="380"/>
    </contour>
    <contour>
      <point x="356" y="48" type="curve" smooth="yes"/>
      <point x="213" y="48"/>
      <point x="116" y="125"/>
      <point x="116" y="286" type="curve" smooth="yes"/>
      <point x="116" y="447"/>
      <point x="213" y="524"/>
      <point x="356" y="524" type="curve" smooth="yes"/>
      <point x="499" y="524"/>
      <point x="596" y="447"/>
      <point x="596" y="286" type="curve" smooth="yes"/>
      <point x="596" y="125"/>
      <point x="499" y="48"/>
    </contour>
    <contour>
      <point x="356" y="-12" type="curve" smooth="yes"/>
      <point x="538" y="-12"/>
      <point x="660" y="100"/>
      <point x="660" y="286" type="curve" smooth="yes"/>
      <point x="660" y="472"/>
      <point x="538" y="584"/>
      <point x="356" y="584" type="curve" smooth="yes"/>
      <point x="174" y="584"/>
      <point x="52" y="472"/>
      <point x="52" y="286" type="curve" smooth="yes"/>
      <point x="52" y="100"/>
      <point x="174" y="-12"/>
    </contour>
  </outline>
</glyph>
<glyph name="d.inferior" format="2">
  <advance width="472"/>
  <note>
d.inferior
</note>
  <outline>
    <contour>
      <point x="254" y="-169" type="curve" smooth="yes"/>
      <point x="310" y="-169"/>
      <point x="361" y="-157"/>
      <point x="401" y="-142" type="curve"/>
      <point x="402" y="-136" type="line"/>
      <point x="397" y="-109"/>
      <point x="397" y="-47"/>
      <point x="397" y="-18" type="curve" smooth="yes"/>
      <point x="397" y="395" type="line"/>
      <point x="308" y="395" type="line"/>
      <point x="307" y="389" type="line"/>
      <point x="310" y="371"/>
      <point x="312" y="327"/>
      <point x="312" y="238" type="curve"/>
      <point x="297" y="242"/>
      <point x="276" y="246"/>
      <point x="250" y="246" type="curve" smooth="yes"/>
      <point x="123" y="246"/>
      <point x="39" y="169"/>
      <point x="39" y="40" type="curve" smooth="yes"/>
      <point x="39" y="-95"/>
      <point x="117" y="-169"/>
    </contour>
    <contour>
      <point x="255" y="-100" type="curve" smooth="yes"/>
      <point x="169" y="-100"/>
      <point x="125" y="-54"/>
      <point x="125" y="40" type="curve" smooth="yes"/>
      <point x="125" y="127"/>
      <point x="171" y="177"/>
      <point x="259" y="177" type="curve" smooth="yes"/>
      <point x="282" y="177"/>
      <point x="300" y="173"/>
      <point x="312" y="169" type="curve"/>
      <point x="312" y="-43" type="line" smooth="yes"/>
      <point x="312" y="-61"/>
      <point x="312" y="-77"/>
      <point x="314" y="-91" type="curve"/>
      <point x="298" y="-96"/>
      <point x="278" y="-100"/>
    </contour>
  </outline>
</glyph>
<glyph name="d.sc" format="2">
  <advance width="644"/>
  <note>
d.sc
</note>
  <anchor x="322" y="0" name="bottom"/>
  <anchor x="156" y="290" name="center"/>
  <anchor x="322" y="572" name="top"/>
  <outline>
    <contour>
      <point x="96" y="572" type="line"/>
      <point x="96" y="0" type="line"/>
      <point x="284" y="0" type="line" smooth="yes"/>
      <point x="510" y="0"/>
      <point x="592" y="155"/>
      <point x="592" y="316" type="curve" smooth="yes"/>
      <point x="592" y="483"/>
      <point x="494" y="572"/>
      <point x="308" y="572" type="curve" smooth="yes"/>
    </contour>
    <contour>
      <point x="150" y="492" type="line"/>
      <point x="308" y="492" type="line" smooth="yes"/>
      <point x="437" y="492"/>
      <point x="496" y="431"/>
      <point x="496" y="316" type="curve" smooth="yes"/>
      <point x="496" y="204"/>
      <point x="451" y="80"/>
      <point x="288" y="80" type="curve" smooth="yes"/>
      <point x="150" y="80" type="line"/>
      <point x="188" y="42" type="line"/>
      <point x="188" y="530" type="line"/>
    </contour>
  </outline>
</glyph>
<glyph name="daggerdbl.sc" format="2">
  <advance width="511"/>
  <note>
daggerdbl.sc
</note>
  <outline>
    <contour>
      <point x="468" y="368" type="line"/>
      <point x="40" y="368" type="line"/>
      <point x="40" y="296" type="line"/>
      <point x="468" y="296" type="line"/>
    </contour>
    <contour>
      <point x="296" y="-196" type="line"/>
      <point x="296" y="572" type="line"/>
      <point x="212" y="572" type="line"/>
      <point x="212" y="-196" type="line"/>
    </contour>
    <contour>
      <point x="468" y="72" type="line"/>
      <point x="40" y="72" type="line"/>
      <point x="40" y="0" type="line"/>
      <point x="468" y="0" type="line"/>
    </contour>
  </outline>
</glyph>
<glyph name="dollar.sc" format="2">
  <advance width="568"/>
  <note>
dollar.sc
</note>
  <outline>
    <contour>
      <point x="264" y="-12" type="curve" smooth="yes"/>
      <point x="412" y="-12"/>
      <point x="488" y="56"/>
      <point x="488" y="152" type="curve" smooth="yes"/>
      <point x="488" y="235"/>
      <point x="435" y="287"/>
      <point x="332" y="308" type="curve" smooth="yes"/>
      <point x="272" y="320" type="line" smooth="yes"/>
      <point x="201" y="334"/>
      <point x="172" y="353"/>
      <point x="172" y="408" type="curve" smooth="yes"/>
      <point x="172" y="477"/>
      <point x="241" y="504"/>
      <point x="340" y="504" type="curve" smooth="yes"/>
      <point x="390" y="504"/>
      <point x="433" y="495"/>
      <point x="460" y="484" type="curve"/>
      <point x="468" y="484" type="line"/>
      <point x="468" y="568" type="line"/>
      <point x="436" y="580"/>
      <point x="377" y="584"/>
      <point x="332" y="584" type="curve" smooth="yes"/>
      <point x="160" y="584"/>
      <point x="84" y="504"/>
      <point x="84" y="404" type="curve" smooth="yes"/>
      <point x="84" y="307"/>
      <point x="147" y="261"/>
      <point x="252" y="240" type="curve" smooth="yes"/>
      <point x="312" y="228" type="line" smooth="yes"/>
      <point x="380" y="214"/>
      <point x="400" y="190"/>
      <point x="400" y="148" type="curve" smooth="yes"/>
      <point x="400" y="94"/>
      <point x="344" y="68"/>
      <point x="264" y="68" type="curve" smooth="yes"/>
      <point x="194" y="68"/>
      <point x="130" y="87"/>
      <point x="92" y="108" type="curve"/>
      <point x="84" y="108" type="line"/>
      <point x="84" y="20" type="line"/>
      <point x="119" y="4"/>
      <point x="193" y="-12"/>
    </contour>
    <contour>
      <point x="244" y="-128" type="line"/>
      <point x="320" y="-128" type="line"/>
      <point x="320" y="16" type="line"/>
      <point x="244" y="16" type="line"/>
    </contour>
    <contour>
      <point x="260" y="556" type="line"/>
      <point x="340" y="556" type="line"/>
      <point x="340" y="684" type="line"/>
      <point x="260" y="684" type="line"/>
    </contour>
  </outline>
</glyph>
<glyph name="e.sc" format="2">
  <advance width="552"/>
  <note>
e.sc
</note>
  <anchor x="276" y="0" name="bottom"/>
  <anchor x="500" y="0" name="ogonek"/>
  <anchor x="276" y="572" name="top"/>
  <anchor x="20" y="572" name="topleft"/>
  <outline>
    <contour>
      <point x="96" y="572" type="line"/>
      <point x="96" y="0" type="line"/>
      <point x="500" y="0" type="line"/>
      <point x="500" y="80" type="line"/>
      <point x="188" y="80" type="line"/>
      <point x="188" y="260" type="line"/>
      <point x="444" y="260" type="line"/>
      <point x="444" y="336" type="line"/>
      <point x="188" y="336" type="line"/>
      <point x="188" y="492" type="line"/>
      <point x="492" y="492" type="line"/>
      <point x="492" y="572" type="line"/>
    </contour>
  </outline>
</glyph>
<glyph name="eight.osf" format="2">
  <advance width="608"/>
  <note>
eight.oldstyle
</note>
  <outline>
    <contour>
      <point x="52" y="196" type="curve" smooth="yes"/>
      <point x="52" y="72"/>
      <point x="132" y="-12"/>
      <point x="304" y="-12" type="curve" smooth="yes"/>
      <point x="456" y="-12"/>
      <point x="556" y="64"/>
      <point x="556" y="188" type="curve" smooth="yes"/>
      <point x="556" y="308"/>
      <point x="459" y="366"/>
      <point x="344" y="404" type="curve" smooth="yes"/>
      <point x="296" y="420" type="line" smooth="yes"/>
      <point x="219" y="446"/>
      <point x="164" y="468"/>
      <point x="164" y="544" type="curve" smooth="yes"/>
      <point x="164" y="604"/>
      <point x="212" y="652"/>
      <point x="304" y="652" type="curve" smooth="yes"/>
      <point x="400" y="652"/>
      <point x="450" y="604"/>
      <point x="450" y="524" type="curve" smooth="yes"/>
      <point x="450" y="450"/>
      <point x="396" y="406"/>
      <point x="358" y="388" type="curve"/>
      <point x="410" y="340" type="line"/>
      <point x="468" y="364"/>
      <point x="540" y="432"/>
      <point x="540" y="528" type="curve" smooth="yes"/>
      <point x="540" y="636"/>
      <point x="468" y="732"/>
      <point x="312" y="732" type="curve" smooth="yes"/>
      <point x="148" y="732"/>
      <point x="76" y="640"/>
      <point x="76" y="540" type="curve" smooth="yes"/>
      <point x="76" y="424"/>
      <point x="159" y="378"/>
      <point x="260" y="344" type="curve" smooth="yes"/>
      <point x="308" y="328" type="line" smooth="yes"/>
      <point x="385" y="302"/>
      <point x="464" y="272"/>
      <point x="464" y="188" type="curve" smooth="yes"/>
      <point x="464" y="116"/>
      <point x="412" y="68"/>
      <point x="308" y="68" type="curve" smooth="yes"/>
      <point x="208" y="68"/>
      <point x="146" y="112"/>
      <point x="146" y="200" type="curve" smooth="yes"/>
      <point x="146" y="292"/>
      <point x="220" y="344"/>
      <point x="308" y="360" type="curve"/>
      <point x="256" y="416" type="line"/>
      <point x="144" y="384"/>
      <point x="52" y="312"/>
    </contour>
  </outline>
</glyph>
<glyph name="eight.tsc" format="2">
  <advance width="568"/>
  <note>
eight.sc
</note>
  <outline>
    <contour>
      <point x="253" y="280" type="curve"/>
      <point x="192" y="318" type="line"/>
      <point x="107" y="282"/>
      <point x="60" y="224"/>
      <point x="60" y="156" type="curve" smooth="yes"/>
      <point x="60" y="58"/>
      <point x="134" y="-12"/>
      <point x="284" y="-12" type="curve" smooth="yes"/>
      <point x="417" y="-12"/>
      <point x="504" y="52"/>
      <point x="504" y="152" type="curve" smooth="yes"/>
      <point x="504" y="232"/>
      <point x="452" y="283"/>
      <point x="362" y="312" type="curve" smooth="yes"/>
      <point x="300" y="332" type="line" smooth="yes"/>
      <point x="196" y="365"/>
      <point x="168" y="380"/>
      <point x="168" y="432" type="curve" smooth="yes"/>
      <point x="168" y="477"/>
      <point x="209" y="512"/>
      <point x="284" y="512" type="curve" smooth="yes"/>
      <point x="364" y="512"/>
      <point x="404" y="475"/>
      <point x="404" y="416" type="curve" smooth="yes"/>
      <point x="404" y="364"/>
      <point x="366" y="333"/>
      <point x="324" y="312" type="curve"/>
      <point x="396" y="284" type="line"/>
      <point x="448" y="316"/>
      <point x="488" y="362"/>
      <point x="488" y="424" type="curve" smooth="yes"/>
      <point x="488" y="512"/>
      <point x="427" y="584"/>
      <point x="292" y="584" type="curve" smooth="yes"/>
      <point x="148" y="584"/>
      <point x="84" y="510"/>
      <point x="84" y="428" type="curve" smooth="yes"/>
      <point x="84" y="352"/>
      <point x="136" y="306"/>
      <point x="204" y="284" type="curve" smooth="yes"/>
      <point x="266" y="264" type="line" smooth="yes"/>
      <point x="386" y="225"/>
      <point x="416" y="206"/>
      <point x="416" y="152" type="curve" smooth="yes"/>
      <point x="416" y="98"/>
      <point x="373" y="64"/>
      <point x="288" y="64" type="curve" smooth="yes"/>
      <point x="205" y="64"/>
      <point x="148" y="95"/>
      <point x="148" y="160" type="curve" smooth="yes"/>
      <point x="148" y="212"/>
      <point x="184" y="256"/>
    </contour>
  </outline>
</glyph>
<glyph name="eng.sc" format="2">
  <advance width="668"/>
  <note>
eng.sc
</note>
  <outline>
    <contour>
      <point x="96" y="0" type="line"/>
      <point x="188" y="0" type="line"/>
      <point x="188" y="473" type="line"/>
      <point x="161" y="461" type="line"/>
      <point x="498" y="138" type="line"/>
      <point x="498" y="260" type="line"/>
      <point x="172" y="572" type="line"/>
      <point x="96" y="572" type="line"/>
    </contour>
    <contour>
      <point x="292" y="-152" type="line"/>
      <point x="292" y="-228" type="line"/>
      <point x="313" y="-233"/>
      <point x="348" y="-240"/>
      <point x="380" y="-240" type="curve" smooth="yes"/>
      <point x="504" y="-240"/>
      <point x="572" y="-172"/>
      <point x="572" y="-60" type="curve" smooth="yes"/>
      <point x="572" y="572" type="line"/>
      <point x="480" y="572" type="line"/>
      <point x="480" y="-68" type="line" smooth="yes"/>
      <point x="480" y="-127"/>
      <point x="444" y="-160"/>
      <point x="376" y="-160" type="curve" smooth="yes"/>
      <point x="352" y="-160"/>
      <point x="314" y="-157"/>
      <point x="300" y="-152" type="curve"/>
    </contour>
  </outline>
</glyph>
<glyph name="equal.inferior" format="2">
  <advance width="398"/>
  <note>
equal.inferior
</note>
  <outline>
    <contour>
      <point x="49" y="145" type="line"/>
      <point x="49" y="81" type="line"/>
      <point x="349" y="81" type="line"/>
      <point x="349" y="145" type="line"/>
    </contour>
    <contour>
      <point x="49" y="1" type="line"/>
      <point x="49" y="-63" type="line"/>
      <point x="349" y="-63" type="line"/>
      <point x="349" y="1" type="line"/>
    </contour>
  </outline>
</glyph>
<glyph name="euro.sc" format="2">
  <advance width="568"/>
  <note>
Euro.sc
</note>
  <outline>
    <contour>
      <point x="224" y="284" type="curve" smooth="yes"/>
      <point x="224" y="460"/>
      <point x="320" y="508"/>
      <point x="404" y="508" type="curve" smooth="yes"/>
      <point x="433" y="508"/>
      <point x="466" y="503"/>
      <point x="496" y="488" type="curve"/>
      <point x="504" y="488" type="line"/>
      <point x="504" y="568" type="line"/>
      <point x="473" y="580"/>
      <point x="430" y="584"/>
      <point x="404" y="584" type="curve" smooth="yes"/>
      <point x="236" y="584"/>
      <point x="132" y="480"/>
      <point x="132" y="284" type="curve" smooth="yes"/>
      <point x="132" y="88"/>
      <point x="236" y="-12"/>
      <point x="404" y="-12" type="curve" smooth="yes"/>
      <point x="430" y="-12"/>
      <point x="473" y="-8"/>
      <point x="504" y="4" type="curve"/>
      <point x="504" y="88" type="line"/>
      <point x="496" y="88" type="line"/>
      <point x="466" y="74"/>
      <point x="433" y="68"/>
      <point x="404" y="68" type="curve" smooth="yes"/>
      <point x="319" y="68"/>
      <point x="224" y="108"/>
    </contour>
    <contour>
      <point x="48" y="396" type="line"/>
      <point x="48" y="328" type="line"/>
      <point x="388" y="328" type="line"/>
      <point x="388" y="396" type="line"/>
    </contour>
    <contour>
      <point x="48" y="240" type="line"/>
      <point x="48" y="172" type="line"/>
      <point x="388" y="172" type="line"/>
      <point x="388" y="240" type="line"/>
    </contour>
  </outline>
</glyph>
<glyph name="exclamdown.sc" format="2">
  <advance width="304"/>
  <note>
exclamdown.sc
</note>
  <outline>
    <contour>
      <point x="192" y="400" type="curve"/>
      <point x="116" y="400" type="line"/>
      <point x="116" y="395"/>
      <point x="108" y="318"/>
      <point x="108" y="232" type="curve" smooth="yes"/>
      <point x="108" y="124" type="line" smooth="yes"/>
      <point x="108" y="102"/>
      <point x="111" y="37"/>
      <point x="104" y="8" type="curve"/>
      <point x="104" y="0" type="line"/>
      <point x="200" y="0" type="line"/>
      <point x="200" y="232" type="line" smooth="yes"/>
      <point x="200" y="318"/>
      <point x="193" y="395"/>
    </contour>
    <contour>
      <point x="152" y="580" type="curve" smooth="yes"/>
      <point x="118" y="580"/>
      <point x="92" y="556"/>
      <point x="92" y="520" type="curve" smooth="yes"/>
      <point x="92" y="484"/>
      <point x="118" y="460"/>
      <point x="152" y="460" type="curve" smooth="yes"/>
      <point x="186" y="460"/>
      <point x="212" y="484"/>
      <point x="212" y="520" type="curve" smooth="yes"/>
      <point x="212" y="556"/>
      <point x="186" y="580"/>
    </contour>
  </outline>
</glyph>
<glyph name="f.sc" format="2">
  <advance width="520"/>
  <note>
f.sc
</note>
  <outline>
    <contour>
      <point x="96" y="572" type="line"/>
      <point x="96" y="0" type="line"/>
      <point x="188" y="0" type="line"/>
      <point x="188" y="216" type="line"/>
      <point x="432" y="216" type="line"/>
      <point x="432" y="292" type="line"/>
      <point x="188" y="292" type="line"/>
      <point x="188" y="492" type="line"/>
      <point x="480" y="492" type="line"/>
      <point x="480" y="572" type="line"/>
    </contour>
  </outline>
</glyph>
<glyph name="f_j" format="2">
  <advance width="618"/>
  <note>
f_j
</note>
  <anchor x="376" y="0" name="caret_1"/>
  <outline>
    <contour>
      <point x="332" y="-240" type="curve" smooth="yes"/>
      <point x="468" y="-240"/>
      <point x="524" y="-148"/>
      <point x="524" y="-48" type="curve" smooth="yes"/>
      <point x="524" y="544" type="line"/>
      <point x="432" y="544" type="line"/>
      <point x="432" y="-52" type="line" smooth="yes"/>
      <point x="432" y="-124"/>
      <point x="392" y="-160"/>
      <point x="328" y="-160" type="curve" smooth="yes"/>
      <point x="300" y="-160"/>
      <point x="280" y="-154"/>
      <point x="264" y="-148" type="curve"/>
      <point x="256" y="-148" type="line"/>
      <point x="256" y="-228" type="line"/>
      <point x="272" y="-234"/>
      <point x="296" y="-240"/>
    </contour>
    <contour>
      <point x="476" y="640" type="curve" smooth="yes"/>
      <point x="510" y="640"/>
      <point x="536" y="664"/>
      <point x="536" y="700" type="curve" smooth="yes"/>
      <point x="536" y="736"/>
      <point x="510" y="760"/>
      <point x="476" y="760" type="curve" smooth="yes"/>
      <point x="442" y="760"/>
      <point x="416" y="736"/>
      <point x="416" y="700" type="curve" smooth="yes"/>
      <point x="416" y="664"/>
      <point x="442" y="640"/>
    </contour>
    <component base="_part.f.liga"/>
  </outline>
</glyph>
<glyph name="fehDotless-ar.medi" format="2">
  <advance width="616"/>
  <note>
uni06A1.medi
</note>
  <anchor x="321" y="0" name="bottom"/>
  <anchor x="310" y="516" name="top"/>
  <outline>
    <contour>
      <point x="310" y="516" type="curve" smooth="yes"/>
      <point x="165" y="516"/>
      <point x="72" y="419"/>
      <point x="72" y="318" type="curve" smooth="yes"/>
      <point x="72" y="211"/>
      <point x="141" y="122"/>
      <point x="227" y="65" type="curve"/>
      <point x="244" y="85" type="line"/>
      <point x="0" y="85" type="line"/>
      <point x="-20" y="65" type="line"/>
      <point x="-20" y="0" type="line"/>
      <point x="220" y="0" type="line" smooth="yes"/>
      <point x="259" y="0"/>
      <point x="302" y="11"/>
      <point x="344" y="29" type="curve"/>
      <point x="294" y="29" type="line"/>
      <point x="337" y="11"/>
      <point x="381" y="0"/>
      <point x="421" y="0" type="curve" smooth="yes"/>
      <point x="616" y="0" type="line"/>
      <point x="636" y="20" type="line"/>
      <point x="635" y="85" type="line"/>
      <point x="388" y="85" type="line"/>
      <point x="406" y="65" type="line"/>
      <point x="484" y="119"/>
      <point x="544" y="203"/>
      <point x="544" y="304" type="curve" smooth="yes"/>
      <point x="544" y="421"/>
      <point x="450" y="516"/>
    </contour>
    <contour>
      <point x="136" y="325" type="line"/>
      <point x="161" y="395"/>
      <point x="236" y="436"/>
      <point x="302" y="436" type="curve" smooth="yes"/>
      <point x="400" y="436"/>
      <point x="452" y="353"/>
      <point x="452" y="280" type="curve" smooth="yes"/>
      <point x="452" y="191"/>
      <point x="377" y="113"/>
      <point x="306" y="87" type="curve"/>
      <point x="342" y="89" type="line"/>
      <point x="269" y="119"/>
      <point x="138" y="210"/>
      <point x="147" y="383" type="curve"/>
    </contour>
  </outline>
</glyph>
<glyph name="four.osf" format="2">
  <advance width="608"/>
  <note>
four.oldstyle
</note>
  <outline>
    <contour>
      <point x="604" y="0" type="line"/>
      <point x="604" y="80" type="line"/>
      <point x="91" y="80" type="line"/>
      <point x="118" y="44" type="line"/>
      <point x="192" y="296" type="line" smooth="yes"/>
      <point x="228" y="421"/>
      <point x="272" y="476"/>
      <point x="372" y="476" type="curve" smooth="yes"/>
      <point x="393" y="476"/>
      <point x="411" y="472"/>
      <point x="431" y="467" type="curve"/>
      <point x="410" y="494" type="line"/>
      <point x="404" y="476"/>
      <point x="404" y="448"/>
      <point x="404" y="420" type="curve" smooth="yes"/>
      <point x="404" y="-176" type="line"/>
      <point x="496" y="-176" type="line"/>
      <point x="496" y="368" type="line" smooth="yes"/>
      <point x="496" y="408"/>
      <point x="496" y="488"/>
      <point x="502" y="528" type="curve"/>
      <point x="500" y="540" type="line"/>
      <point x="470" y="550"/>
      <point x="426" y="556"/>
      <point x="376" y="556" type="curve" smooth="yes"/>
      <point x="212" y="556"/>
      <point x="146" y="464"/>
      <point x="102" y="308" type="curve" smooth="yes"/>
      <point x="36" y="76" type="line"/>
      <point x="36" y="0" type="line"/>
    </contour>
  </outline>
</glyph>
<glyph name="greaterequal.sc" format="2">
  <advance width="568"/>
  <note>
greaterequal.sc
</note>
  <outline>
    <contour>
      <point x="481" y="0" type="line"/>
      <point x="481" y="80" type="line"/>
      <point x="85" y="80" type="line"/>
      <point x="85" y="0" type="line"/>
    </contour>
    <contour>
      <point x="92" y="162" type="line"/>
      <point x="477" y="345" type="line"/>
      <point x="477" y="401" type="line"/>
      <point x="94" y="583" type="line"/>
      <point x="86" y="583" type="line"/>
      <point x="86" y="495" type="line"/>
      <point x="353" y="373" type="line"/>
      <point x="84" y="250" type="line"/>
      <point x="84" y="162" type="line"/>
    </contour>
  </outline>
</glyph>
<glyph name="guillemetleft.sc" format="2">
  <advance width="564"/>
  <note>
guillemotleft.sc
</note>
  <outline>
    <contour>
      <point x="256" y="280" type="line"/>
      <point x="496" y="60" type="line"/>
      <point x="504" y="60" type="line"/>
      <point x="504" y="156" type="line"/>
      <point x="348" y="296" type="line"/>
      <point x="504" y="436" type="line"/>
      <point x="504" y="532" type="line"/>
      <point x="496" y="532" type="line"/>
      <point x="256" y="312" type="line"/>
    </contour>
    <contour>
      <point x="36" y="280" type="line"/>
      <point x="276" y="60" type="line"/>
      <point x="284" y="60" type="line"/>
      <point x="284" y="156" type="line"/>
      <point x="128" y="296" type="line"/>
      <point x="284" y="436" type="line"/>
      <point x="284" y="532" type="line"/>
      <point x="276" y="532" type="line"/>
      <point x="36" y="312" type="line"/>
    </contour>
  </outline>
</glyph>
<glyph name="guilsinglleft.sc" format="2">
  <advance width="344"/>
  <note>
guilsinglleft.sc
</note>
  <outline>
    <contour>
      <point x="276" y="60" type="line"/>
      <point x="284" y="60" type="line"/>
      <point x="284" y="156" type="line"/>
      <point x="128" y="296" type="line"/>
      <point x="284" y="436" type="line"/>
      <point x="284" y="532" type="line"/>
      <point x="276" y="532" type="line"/>
      <point x="36" y="312" type="line"/>
      <point x="36" y="280" type="line"/>
    </contour>
  </outline>
</glyph>
<glyph name="guilsinglright.sc" format="2">
  <advance width="344"/>
  <note>
guilsinglright.sc
</note>
  <outline>
    <contour>
      <point x="60" y="156" type="line"/>
      <point x="60" y="60" type="line"/>
      <point x="68" y="60" type="line"/>
      <point x="308" y="280" type="line"/>
      <point x="308" y="312" type="line"/>
      <point x="68" y="532" type="line"/>
      <point x="60" y="532" type="line"/>
      <point x="60" y="436" type="line"/>
      <point x="216" y="296" type="line"/>
    </contour>
  </outline>
</glyph>
<glyph name="h.sc" format="2">
  <advance width="668"/>
  <note>
h.sc
</note>
  <anchor x="334" y="0" name="bottom"/>
  <anchor x="334" y="456" name="center"/>
  <anchor x="334" y="572" name="top"/>
  <anchor x="20" y="572" name="topleft"/>
  <outline>
    <contour>
      <point x="96" y="572" type="line"/>
      <point x="96" y="0" type="line"/>
      <point x="188" y="0" type="line"/>
      <point x="188" y="572" type="line"/>
    </contour>
    <contour>
      <point x="480" y="572" type="line"/>
      <point x="480" y="0" type="line"/>
      <point x="572" y="0" type="line"/>
      <point x="572" y="572" type="line"/>
    </contour>
    <contour>
      <point x="148" y="336" type="line"/>
      <point x="148" y="256" type="line"/>
      <point x="520" y="256" type="line"/>
      <point x="520" y="336" type="line"/>
    </contour>
  </outline>
</glyph>
<glyph name="heh-ar.fina" format="2">
  <advance width="616"/>
  <note>
uni0647.fina
</note>
  <anchor x="236" y="0" name="bottom"/>
  <anchor x="296" y="532" name="top"/>
  <outline>
    <contour>
      <point x="415" y="162" type="curve"/>
      <point x="420" y="91" type="line"/>
      <point x="388" y="52"/>
      <point x="323" y="0"/>
      <point x="236" y="0" type="curve" smooth="yes"/>
      <point x="133" y="0"/>
      <point x="60" y="72"/>
      <point x="60" y="181" type="curve" smooth="yes"/>
      <point x="60" y="274"/>
      <point x="96" y="388"/>
      <point x="444" y="510" type="curve"/>
      <point x="424" y="420" type="line"/>
      <point x="301" y="371"/>
      <point x="227" y="335"/>
      <point x="139" y="267" type="curve"/>
      <point x="173" y="304" type="line"/>
      <point x="154" y="266"/>
      <point x="148" y="234"/>
      <point x="148" y="200" type="curve" smooth="yes"/>
      <point x="148" y="124"/>
      <point x="201" y="85"/>
      <point x="260" y="85" type="curve" smooth="yes"/>
      <point x="318" y="85"/>
      <point x="371" y="124"/>
    </contour>
    <contour>
      <point x="616" y="0" type="line"/>
      <point x="408" y="0" type="line"/>
      <point x="408" y="115" type="line"/>
      <point x="396" y="103" type="line"/>
      <point x="396" y="532" type="line"/>
      <point x="480" y="544" type="line"/>
      <point x="488" y="544" type="line"/>
      <point x="488" y="47" type="line"/>
      <point x="450" y="85" type="line"/>
      <point x="636" y="85" type="line"/>
      <point x="636" y="20" type="line"/>
    </contour>
  </outline>
</glyph>
<glyph name="hehgoal-ar.fina" format="2">
  <advance width="642"/>
  <note>
uni06C1.fina
</note>
  <anchor x="358" y="0" name="bottom"/>
  <anchor x="371" y="390" name="top"/>
  <outline>
    <contour>
      <point x="622" y="0" type="curve"/>
      <point x="642" y="20" type="line"/>
      <point x="642" y="85" type="line"/>
      <point x="536" y="85"/>
      <point x="475" y="137"/>
      <point x="445" y="330" type="curve"/>
      <point x="371" y="390" type="line"/>
      <point x="278" y="370"/>
      <point x="138" y="318"/>
      <point x="40" y="264" type="curve"/>
      <point x="59" y="182" type="line"/>
      <point x="67" y="182" type="line"/>
      <point x="176" y="240"/>
      <point x="331" y="296"/>
      <point x="389" y="302" type="curve"/>
      <point x="376" y="335" type="line"/>
      <point x="387" y="136"/>
      <point x="452" y="0"/>
    </contour>
  </outline>
</glyph>
<glyph name="i.inferior" format="2">
  <advance width="234"/>
  <note>
i.inferior
</note>
  <outline>
    <contour>
      <point x="116" y="304" type="curve" smooth="yes"/>
      <point x="145" y="304"/>
      <point x="167" y="323"/>
      <point x="167" y="354" type="curve" smooth="yes"/>
      <point x="167" y="385"/>
      <point x="145" y="404"/>
      <point x="116" y="404" type="curve" smooth="yes"/>
      <point x="87" y="404"/>
      <point x="65" y="385"/>
      <point x="65" y="354" type="curve" smooth="yes"/>
      <point x="65" y="323"/>
      <point x="87" y="304"/>
    </contour>
    <contour>
      <point x="75" y="113" type="curve" smooth="yes"/>
      <point x="75" y="-160" type="line"/>
      <point x="159" y="-160" type="line"/>
      <point x="159" y="238" type="line"/>
      <point x="70" y="238" type="line"/>
      <point x="69" y="232" type="line"/>
      <point x="75" y="206"/>
      <point x="75" y="142"/>
    </contour>
  </outline>
</glyph>
<glyph name="idotless.sc" format="2">
  <advance width="284"/>
  <note>
dotlessi.sc
</note>
  <anchor x="142" y="0" name="bottom"/>
  <anchor x="188" y="0" name="ogonek"/>
  <anchor x="142" y="572" name="top"/>
  <anchor x="20" y="572" name="topleft"/>
  <outline>
    <contour>
      <point x="96" y="572" type="line"/>
      <point x="96" y="0" type="line"/>
      <point x="188" y="0" type="line"/>
      <point x="188" y="572" type="line"/>
    </contour>
  </outline>
</glyph>
<glyph name="infinity.sc" format="2">
  <advance width="568"/>
  <note>
infinity.sc
</note>
  <outline>
    <contour>
      <point x="408" y="168" type="curve" smooth="yes"/>
      <point x="485" y="168"/>
      <point x="540" y="215"/>
      <point x="540" y="292" type="curve" smooth="yes"/>
      <point x="540" y="369"/>
      <point x="485" y="416"/>
      <point x="408" y="416" type="curve" smooth="yes"/>
      <point x="328" y="416"/>
      <point x="296" y="368"/>
      <point x="264" y="320" type="curve" smooth="yes"/>
      <point x="236" y="278"/>
      <point x="212" y="234"/>
      <point x="162" y="234" type="curve" smooth="yes"/>
      <point x="129" y="234"/>
      <point x="104" y="255"/>
      <point x="104" y="291" type="curve" smooth="yes"/>
      <point x="104" y="328"/>
      <point x="129" y="350"/>
      <point x="162" y="350" type="curve" smooth="yes"/>
      <point x="212" y="350"/>
      <point x="236" y="306"/>
      <point x="264" y="264" type="curve" smooth="yes"/>
      <point x="296" y="216"/>
      <point x="328" y="168"/>
    </contour>
    <contour>
      <point x="160" y="168" type="curve" smooth="yes"/>
      <point x="240" y="168"/>
      <point x="272" y="216"/>
      <point x="304" y="264" type="curve" smooth="yes"/>
      <point x="332" y="306"/>
      <point x="356" y="350"/>
      <point x="406" y="350" type="curve" smooth="yes"/>
      <point x="439" y="350"/>
      <point x="464" y="329"/>
      <point x="464" y="293" type="curve" smooth="yes"/>
      <point x="464" y="256"/>
      <point x="439" y="234"/>
      <point x="406" y="234" type="curve" smooth="yes"/>
      <point x="356" y="234"/>
      <point x="332" y="278"/>
      <point x="304" y="320" type="curve" smooth="yes"/>
      <point x="272" y="368"/>
      <point x="240" y="416"/>
      <point x="160" y="416" type="curve" smooth="yes"/>
      <point x="83" y="416"/>
      <point x="28" y="369"/>
      <point x="28" y="292" type="curve" smooth="yes"/>
      <point x="28" y="215"/>
      <point x="83" y="168"/>
    </contour>
  </outline>
</glyph>
<glyph name="invertsmallvbelow" format="2">
  <note>
invertsmallvbelow
</note>
  <outline>
    <contour>
      <point x="59" y="-71" type="line"/>
      <point x="0" y="-175" type="line"/>
      <point x="-65" y="-71" type="line"/>
      <point x="-129" y="-71" type="line"/>
      <point x="-129" y="-75" type="line"/>
      <point x="-37" y="-227" type="line"/>
      <point x="39" y="-227" type="line"/>
      <point x="123" y="-75" type="line"/>
      <point x="123" y="-71" type="line"/>
    </contour>
  </outline>
</glyph>
<glyph name="j.sc" format="2">
  <advance width="404"/>
  <note>
j.sc
</note>
  <anchor x="202" y="0" name="bottom"/>
  <anchor x="270" y="572" name="top"/>
  <outline>
    <contour>
      <point x="36" y="76" type="line"/>
      <point x="36" y="0" type="line"/>
      <point x="57" y="-5"/>
      <point x="92" y="-12"/>
      <point x="124" y="-12" type="curve" smooth="yes"/>
      <point x="248" y="-12"/>
      <point x="316" y="56"/>
      <point x="316" y="168" type="curve" smooth="yes"/>
      <point x="316" y="572" type="line"/>
      <point x="224" y="572" type="line"/>
      <point x="224" y="160" type="line" smooth="yes"/>
      <point x="224" y="101"/>
      <point x="188" y="68"/>
      <point x="120" y="68" type="curve" smooth="yes"/>
      <point x="96" y="68"/>
      <point x="58" y="71"/>
      <point x="44" y="76" type="curve"/>
    </contour>
  </outline>
</glyph>
<glyph name="k.inferior" format="2">
  <advance width="428"/>
  <note>
k.inferior
</note>
  <outline>
    <contour>
      <point x="75" y="270" type="curve" smooth="yes"/>
      <point x="75" y="-160" type="line"/>
      <point x="159" y="-160" type="line"/>
      <point x="159" y="33" type="line"/>
      <point x="321" y="-160" type="line"/>
      <point x="418" y="-160" type="line"/>
      <point x="418" y="-152" type="line"/>
      <point x="404" y="-140"/>
      <point x="378" y="-110"/>
      <point x="359" y="-88" type="curve" smooth="yes"/>
      <point x="241" y="50" type="line"/>
      <point x="364" y="172" type="line" smooth="yes"/>
      <point x="384" y="193"/>
      <point x="407" y="217"/>
      <point x="422" y="229" type="curve"/>
      <point x="422" y="238" type="line"/>
      <point x="329" y="238" type="line"/>
      <point x="159" y="60" type="line"/>
      <point x="159" y="394" type="line"/>
      <point x="71" y="394" type="line"/>
      <point x="69" y="389" type="line"/>
      <point x="75" y="362"/>
      <point x="75" y="299"/>
    </contour>
  </outline>
</glyph>
<glyph name="k.sc" format="2">
  <advance width="588"/>
  <note>
k.sc
</note>
  <anchor x="294" y="0" name="bottom"/>
  <anchor x="294" y="572" name="top"/>
  <outline>
    <contour>
      <point x="432" y="336" type="curve" smooth="yes"/>
      <point x="548" y="564" type="line"/>
      <point x="548" y="572" type="line"/>
      <point x="456" y="572" type="line"/>
      <point x="348" y="360" type="line" smooth="yes"/>
      <point x="329" y="322"/>
      <point x="306" y="296"/>
      <point x="248" y="296" type="curve" smooth="yes"/>
      <point x="188" y="296" type="line"/>
      <point x="188" y="572" type="line"/>
      <point x="96" y="572" type="line"/>
      <point x="96" y="0" type="line"/>
      <point x="188" y="0" type="line"/>
      <point x="188" y="216" type="line"/>
      <point x="252" y="216" type="line" smooth="yes"/>
      <point x="336" y="216"/>
      <point x="398" y="269"/>
    </contour>
    <contour>
      <point x="284" y="252" type="line"/>
      <point x="452" y="0" type="line"/>
      <point x="552" y="0" type="line"/>
      <point x="552" y="8" type="line"/>
      <point x="360" y="288" type="line"/>
    </contour>
  </outline>
</glyph>
<glyph name="keheh-ar.fina" format="2">
  <advance width="1460"/>
  <note>
uni06A9.fina
</note>
  <anchor x="812" y="0" name="bottom"/>
  <anchor x="388" y="382" name="kafbar"/>
  <anchor x="717" y="600" name="ring"/>
  <anchor x="402" y="560" name="top"/>
  <outline>
    <contour>
      <point x="1125" y="0" type="line"/>
      <point x="1442" y="0" type="line"/>
      <point x="1462" y="20" type="line"/>
      <point x="1462" y="85" type="line"/>
      <point x="1233" y="85" type="line"/>
    </contour>
    <contour>
      <point x="482" y="368" type="line"/>
      <point x="809" y="678" type="line"/>
      <point x="768" y="740" type="line"/>
      <point x="760" y="740" type="line"/>
      <point x="388" y="382" type="line"/>
      <point x="391" y="325"/>
      <point x="422" y="309"/>
      <point x="452" y="309" type="curve" smooth="yes"/>
      <point x="1060" y="309" type="line" smooth="yes"/>
      <point x="1131" y="309"/>
      <point x="1151" y="310"/>
      <point x="1211" y="322" type="curve"/>
      <point x="1162" y="342" type="line"/>
      <point x="1215" y="292"/>
      <point x="1244" y="223"/>
      <point x="1244" y="173" type="curve" smooth="yes"/>
      <point x="1244" y="107"/>
      <point x="1205" y="85"/>
      <point x="1125" y="85" type="curve" smooth="yes"/>
      <point x="552" y="85" type="line" smooth="yes"/>
      <point x="413" y="85"/>
      <point x="269" y="87"/>
      <point x="172" y="115" type="curve" smooth="yes"/>
      <point x="149" y="122"/>
      <point x="92" y="139"/>
      <point x="70" y="150" type="curve"/>
      <point x="62" y="150" type="line"/>
      <point x="44" y="69" type="line"/>
      <point x="69" y="58"/>
      <point x="104" y="46"/>
      <point x="143" y="35" type="curve" smooth="yes"/>
      <point x="255" y="4"/>
      <point x="382" y="0"/>
      <point x="504" y="0" type="curve" smooth="yes"/>
      <point x="1104" y="0" type="line" smooth="yes"/>
      <point x="1153" y="0"/>
      <point x="1193" y="6"/>
      <point x="1225" y="18" type="curve"/>
      <point x="1287" y="54" type="line"/>
      <point x="1321" y="85"/>
      <point x="1336" y="129"/>
      <point x="1336" y="179" type="curve" smooth="yes"/>
      <point x="1336" y="273"/>
      <point x="1273" y="359"/>
      <point x="1224" y="406" type="curve"/>
      <point x="1212" y="406" type="line"/>
      <point x="1172" y="395"/>
      <point x="1112" y="394"/>
      <point x="1060" y="394" type="curve" smooth="yes"/>
      <point x="466" y="394" type="line"/>
    </contour>
  </outline>
</glyph>
<glyph name="keheh-ar.init" format="2">
  <advance width="1196"/>
  <note>
uni06A9.init
</note>
  <anchor x="512" y="0" name="bottom"/>
  <anchor x="88" y="382" name="kafbar"/>
  <anchor x="417" y="600" name="ring"/>
  <anchor x="102" y="560" name="top"/>
  <outline>
    <contour>
      <point x="-20" y="0" type="line"/>
      <point x="904" y="0" type="line" smooth="yes"/>
      <point x="1062" y="0"/>
      <point x="1136" y="75"/>
      <point x="1136" y="179" type="curve" smooth="yes"/>
      <point x="1136" y="273"/>
      <point x="1073" y="359"/>
      <point x="1024" y="406" type="curve"/>
      <point x="1012" y="406" type="line"/>
      <point x="972" y="395"/>
      <point x="912" y="394"/>
      <point x="860" y="394" type="curve" smooth="yes"/>
      <point x="166" y="394" type="line"/>
      <point x="182" y="368" type="line"/>
      <point x="509" y="678" type="line"/>
      <point x="468" y="740" type="line"/>
      <point x="460" y="740" type="line"/>
      <point x="88" y="382" type="line"/>
      <point x="91" y="325"/>
      <point x="122" y="309"/>
      <point x="152" y="309" type="curve" smooth="yes"/>
      <point x="860" y="309" type="line" smooth="yes"/>
      <point x="931" y="309"/>
      <point x="951" y="310"/>
      <point x="1011" y="322" type="curve"/>
      <point x="962" y="342" type="line"/>
      <point x="1015" y="292"/>
      <point x="1044" y="223"/>
      <point x="1044" y="173" type="curve" smooth="yes"/>
      <point x="1044" y="106"/>
      <point x="992" y="85"/>
      <point x="925" y="85" type="curve" smooth="yes"/>
      <point x="0" y="85" type="line"/>
      <point x="-20" y="65" type="line"/>
    </contour>
  </outline>
</glyph>
<glyph name="kgreenlandic.sc" format="2">
  <advance width="532"/>
  <anchor x="266" y="0" name="bottom"/>
  <anchor x="266" y="572" name="top"/>
  <outline>
    <contour>
      <point x="416" y="0" type="line"/>
      <point x="524" y="0" type="line"/>
      <point x="524" y="12" type="line"/>
      <point x="506" y="28"/>
      <point x="469" y="69"/>
      <point x="444" y="100" type="curve" smooth="yes"/>
      <point x="259" y="332" type="line"/>
      <point x="258" y="285" type="line"/>
      <point x="442" y="480" type="line" smooth="yes"/>
      <point x="469" y="509"/>
      <point x="500" y="544"/>
      <point x="520" y="560" type="curve"/>
      <point x="520" y="572" type="line"/>
      <point x="416" y="572" type="line"/>
      <point x="176" y="300" type="line"/>
    </contour>
    <contour>
      <point x="96" y="0" type="line"/>
      <point x="188" y="0" type="line"/>
      <point x="188" y="572" type="line"/>
      <point x="96" y="572" type="line"/>
    </contour>
  </outline>
</glyph>
<glyph name="l.inferior" format="2">
  <advance width="234"/>
  <note>
l.inferior
</note>
  <outline>
    <contour>
      <point x="75" y="270" type="curve" smooth="yes"/>
      <point x="75" y="-160" type="line"/>
      <point x="159" y="-160" type="line"/>
      <point x="159" y="394" type="line"/>
      <point x="71" y="394" type="line"/>
      <point x="68" y="389" type="line"/>
      <point x="75" y="362"/>
      <point x="75" y="299"/>
    </contour>
  </outline>
</glyph>
<glyph name="l.sc" format="2">
  <advance width="484"/>
  <note>
l.sc
</note>
  <anchor x="242" y="0" name="bottom"/>
  <anchor x="178" y="318" name="center"/>
  <anchor x="324" y="312" name="periodCAT"/>
  <anchor x="142" y="572" name="top"/>
  <anchor x="340" y="368" name="topright"/>
  <outline>
    <contour>
      <point x="96" y="572" type="line"/>
      <point x="96" y="0" type="line"/>
      <point x="448" y="0" type="line"/>
      <point x="448" y="80" type="line"/>
      <point x="188" y="80" type="line"/>
      <point x="188" y="572" type="line"/>
    </contour>
  </outline>
</glyph>
